<?xml version="1.0" standalone="no"?>
<!DOCTYPE svg PUBLIC "-//W3C//DTD SVG 1.1//EN" "http://www.w3.org/Graphics/SVG/1.1/DTD/svg11.dtd" >
<svg xmlns="http://www.w3.org/2000/svg" xmlns:xlink="http://www.w3.org/1999/xlink" version="1.1">
<metadata>
Created by FontForge 20170731 at Tue Nov 30 18:41:58 2021
 By Aleksey,,,
Copyright (c) 2021 by MaulanaCreative. All rights reserved.
</metadata>
<defs>
<font id="Hartsinger" horiz-adv-x="804" >
  <font-face 
    font-family="Hartsinger"
    font-weight="400"
    font-stretch="normal"
    units-per-em="2048"
    panose-1="0 0 0 0 0 0 0 0 0 0"
    ascent="1638"
    descent="-410"
    x-height="893"
    cap-height="1155"
    bbox="-159.31 -571 1632 1778"
    underline-thickness="102"
    underline-position="-307"
    unicode-range="U+000D-FB06"
  />
<missing-glyph horiz-adv-x="1024" 
 />
    <glyph glyph-name="s_t" unicode="st" horiz-adv-x="1069" 
d="M760 55q-23 6 -49 34t-35 56q-26 85 -33 549q-1 66 -2 101q-47 -3 -88.5 -12t-52.5 -9q-19 0 -47 14q-26 13 -33 13q-22 0 -50.5 -15t-45.5 -32q-13 -12 -4.5 -27t65.5 -80q90 -102 122.5 -148t45.5 -91q23 -75 -10 -137t-119 -103q-72 -35 -184.5 -65.5t-169.5 -30.5
q-49 0 -85 20t-51.5 48.5t-14.5 60.5t20 57q21 27 48.5 36t75.5 12t74 9q33 8 101.5 32t68.5 28q0 7 -38 48t-88.5 102.5t-74.5 111.5q-45 94 3 190q36 72 118.5 124.5t155.5 52.5q33 0 59 -13l25 -12q73 20 193 35.5t219 15.5q106 0 153 -20q66 -29 81 -89.5t-34 -101.5
q-36 -31 -86 -31q-15 0 -60 4.5t-77 4.5q3 -31 17.5 -268.5t25.5 -309.5q9 -57 3.5 -84.5t-30.5 -52.5q-33 -33 -75 -33q-19 0 -37 6z" />
    <glyph glyph-name="a_a" unicode="aa" horiz-adv-x="1478" 
d="M184 172q-40 -100 -121 -100q-49 0 -84 40t-28 93q5 33 154.5 375.5t150.5 345.5q10 27 37 45t57 18q17 0 23 -2q34 -9 52 -30t50 -89q111 -232 211 -479q41 -103 48 -127t7 -57q0 -30 -2.5 -41.5t-13.5 -26.5q-38 -47 -88 -47q-42 0 -78 33q-8 7 -15.5 16t-14.5 22
t-11 21.5t-13 28t-13 27.5h-181h-41.5t-29.5 -3t-19.5 -3.5t-12.5 -9t-8 -11t-7 -18t-9 -21.5zM983 926q13 20 39 33.5t47 13.5q45 0 99 -52.5t110 -150.5q65 -114 139.5 -268.5t89.5 -206.5q18 -62 -19 -108t-91 -46q-45 0 -78 33q-18 19 -45 79t-29 62q-4 2 -10 2
q-64 0 -211 -24q-2 -8 -11 -44.5t-18 -67.5t-14 -40q-33 -65 -102 -65q-43 0 -76.5 30.5t-36.5 83.5q-4 57 92 377t125 359zM305 463q-1 -4 5.5 -6t19.5 -2q33 0 73 8q-6 17 -26 70t-23 53q-2 0 -12 -25t-22.5 -59t-14.5 -39zM1094 569q-3 -14 -7 -31q-4 -18 0 -18q1 0 5 1
t8 1q6 1 19.5 3t15 3t5 7t0 15.5t-11.5 27.5q-14 32 -20 32t-14 -41z" />
    <glyph glyph-name="c_c" unicode="cc" horiz-adv-x="1177" 
d="M559 174q-37 -12 -100 -12q-44 0 -89 7.5t-93.5 23t-90.5 43t-76 64.5t-53.5 91t-19.5 119q0 150 102 285q110 145 305 151q33 0 45.5 -2t30.5 -12q52 -26 53.5 -85.5t-49.5 -88.5q-20 -12 -77 -22t-76 -23q-55 -35 -83 -82t-26.5 -88t17.5 -78q37 -66 184 -66q22 0 72 4
q18 3 28 3q15 0 37 -11q43 -22 56 -67.5t-12.5 -90t-84.5 -63.5zM977 682q-31 -2 -53 -16q-28 -22 -49.5 -61t-20.5 -68q2 -53 157 -74q7 -1 11 -2q56 -9 76 -17t39 -28q30 -31 31.5 -69.5t-22 -71t-63.5 -46.5q-21 -8 -34 -8q-53 0 -142.5 21t-134.5 45
q-98 56 -134.5 151.5t1.5 198.5q38 101 126.5 179.5t188.5 78.5q57 0 94.5 -28.5t38.5 -78.5q2 -48 -27 -76.5t-83 -29.5z" />
    <glyph glyph-name="e_e" unicode="ee" horiz-adv-x="1277" 
d="M31 698q-12 23 -13 45.5t4 36.5t15 35.5t14 32.5q10 30 38.5 48.5t60.5 18.5q28 0 49 -12q23 -10 24 -10q4 0 12.5 1.5t29.5 6t44 8.5q139 21 199 21q30 0 59 -15q38 -19 56 -55.5t11.5 -71t-43.5 -60.5t-99 -26q-30 0 -126.5 -10.5t-101.5 -13.5q0 -88 15 -88h6
q23 6 100.5 16t99.5 10q41 0 72 -19t44 -46.5t7.5 -60.5t-33.5 -60q-12 -11 -23.5 -18t-22 -11t-34.5 -7t-43.5 -5t-65.5 -6t-85 -8q35 -28 105 -44t139 -16q27 0 59 4q25 5 31 5q48 0 77.5 -29.5t33.5 -68t-19.5 -77t-71.5 -55.5q-40 -14 -127 -14q-46 0 -100 8
q-72 11 -127 28.5t-95 38.5t-67.5 52.5t-44.5 63.5t-26.5 78.5t-13.5 90.5t-5 107q-3 90 -5.5 110.5t-12.5 40.5zM948 651h8q10 0 72 4q66 4 76 4q49 0 76 -24q50 -43 39 -100.5t-74 -85.5q-21 -10 -53.5 -12.5t-135.5 -4.5q8 -42 27 -52.5t66 -10.5q40 0 67 6q10 2 27 2
q42 0 71.5 -27t37.5 -62.5t-12 -74.5t-69 -61q-34 -15 -120 -15l-74 2q-66 10 -114.5 37.5t-74.5 65t-41.5 84t-18 94t-2.5 97t3.5 90.5t3 76.5t-7.5 53.5q-15 38 -0.5 73.5t53.5 57.5q43 24 151 43t187 19q108 0 141 -84q13 -35 0 -73t-45 -58q-16 -10 -106 -10h-35
q-52 0 -92 -7q-19 -3 -23.5 -6.5t-7.5 -17.5q-4 -23 0 -23z" />
    <glyph glyph-name="h_h" unicode="hh" horiz-adv-x="1400" 
d="M117 424q-23 -10 -54 -10q-51 0 -79.5 38.5t-16.5 84.5q8 31 34 54.5t45.5 32t70.5 25.5q11 4 16 6q-2 71 -4.5 164t-1.5 111t9 31q4 7 7 12q29 57 93 57q53 0 83 -49q11 -20 15 -42.5t10 -104.5q11 -124 14 -127h7q24 0 108 12q-5 101 -0.5 138t33.5 61q29 26 67 26
q94 0 111 -135q9 -81 11.5 -90.5t17.5 -13.5q32 -10 57 -41t31 -66q5 -34 -17 -71t-53 -46q-13 -4 -15.5 -8.5t-0.5 -19.5q22 -173 22 -250q0 -52 -32 -83.5t-76 -31.5q-62 0 -99 55q-23 36 -32 107.5t-16 203.5v9t-0.5 8.5t-0.5 9.5q-18 0 -57 -2.5t-43 -5.5q-7 -7 22 -246
q8 -70 8.5 -85t-5.5 -38q-12 -36 -42 -57.5t-65 -21.5q-61 0 -96 55q-17 23 -23.5 58t-22.5 174q-8 75 -14 122zM829 389q-26 27 -27 65t23 68l19 23q-3 69 -8 136.5t-7.5 93.5t-1.5 53t8 39t23 26q30 27 68 27q32 0 59 -21q33 -24 49.5 -82t22 -128t6.5 -75q4 -4 20 -4
q40 0 47 11q6 9 8 72.5t-3 88.5q-11 59 20 98.5t78 39.5q69 0 102 -82q15 -37 17.5 -231.5t13.5 -225.5q20 -58 -15 -101.5t-91 -43.5q-48 0 -83 32.5t-44 79.5q-6 29 -10 35t-21 6h-21q8 -56 11.5 -137t-5.5 -123q-10 -26 -38.5 -51t-65.5 -25q-15 0 -33 6q-16 6 -29 13.5
t-22 20t-16 23t-12 30t-7.5 32.5t-5 40t-3.5 43.5t-2.5 51t-2.5 54.5z" />
    <glyph glyph-name="l_l" unicode="ll" horiz-adv-x="851" 
d="M272 336q70 -16 154 -21.5t139 -9.5t76 -18q47 -32 47 -88.5t-47 -94.5q-38 -32 -127 -32q-33 0 -51 2q-174 14 -241 33q-129 38 -169 147q-6 16 -10 33q-11 35 -8.5 116t9 146t15.5 156t11 147q5 105 14 125q27 55 92 55q58 0 86 -49q16 -28 20.5 -76.5t1.5 -106.5
t-7.5 -192.5t-4.5 -271.5zM631 328q-83 13 -133 31.5t-88 56t-51 98t-9 154.5q9 232 27 272q30 61 94 61q53 0 90 -49q9 -12 10.5 -37t1.5 -153q0 -171 9 -180q14 -17 157 -27q54 -5 80 -14.5t45 -32.5q25 -33 25.5 -69t-24.5 -69t-66 -44q-21 -7 -60 -7q-29 0 -108 9z" />
    <glyph glyph-name="o_o" unicode="oo" horiz-adv-x="1566" 
d="M780 514q0 -103 -47 -196.5t-133 -153.5t-190 -60q-111 0 -208 73.5t-149.5 200t-36.5 267.5q15 134 65.5 211.5t121.5 77.5q10 0 30 -4q9 -2 66.5 -10t129 -23.5t130.5 -38.5q149 -61 207 -223q10 -31 12 -49t2 -72zM1360 780q91 -68 128.5 -126.5t37.5 -133.5
q0 -146 -110.5 -255t-254.5 -109q-21 0 -67 8q-131 29 -202 138.5t-46 242.5q11 48 37.5 103t63.5 106t88.5 84.5t103.5 33.5q91 0 221 -92zM240 690q-1 -51 0.5 -83.5t8 -76t23.5 -78t45 -63.5q47 -47 97 -47q36 0 68 25.5t48 64.5t19 80.5t-19 78t-65 52.5q-91 34 -225 47
zM1290 514q0 24 -65 75.5t-82 51.5t-56 -80q-29 -65 -5.5 -117.5t79.5 -52.5q46 0 87.5 39t41.5 84z" />
    <glyph glyph-name="s_s" unicode="ss" horiz-adv-x="960" 
d="M-6 68q-53 15 -83.5 54t-29 83t34.5 74q32 30 70 30q16 0 45 -7t43 -7q12 0 18 2q21 3 56.5 17.5t44.5 23.5q19 18 -2 70t-58 130t-45 132q-17 107 65 210t193 124q10 2 29 2q63 0 94 -45.5t10 -94.5q-14 -31 -37.5 -45.5t-50 -22.5t-37.5 -18q-11 -9 -27 -34.5
t-16 -34.5q0 -7 21 -50.5t48.5 -101t37.5 -86.5q38 -113 2.5 -207t-135.5 -145q-117 -60 -232 -60q-35 0 -59 7zM555 293q30 5 67 20.5t52 30.5q12 12 -1 33.5t-40.5 52t-56 67t-49 87.5t-17.5 104q5 68 58.5 136.5t128 110.5t141.5 42q74 0 102 -64q16 -39 0 -79
q-20 -48 -84 -62q-30 -9 -64.5 -34t-46.5 -46q-8 -14 8 -39t45 -57t58.5 -69t48.5 -86.5t15 -98.5q-8 -80 -55.5 -138t-143.5 -102q-90 -43 -154 -43q-21 0 -45 7q-39 14 -60.5 48.5t-20.5 70.5t30.5 67.5t83.5 40.5z" />
    <glyph glyph-name="t_t" unicode="tt" horiz-adv-x="874" 
d="M385 788q0 -98 29 -555q3 -54 6 -98.5t-16.5 -80.5t-67.5 -50q-16 -4 -25 -4q-34 0 -65.5 23t-46.5 59q-8 19 -13.5 60t-9 100.5t-5.5 115.5t-2.5 130.5t-0.5 117.5v105v67q-48 -5 -90 -20q-32 -13 -58 -13q-43 0 -71.5 28t-29.5 64t20 70q32 45 136.5 71.5t186.5 32
t160 5.5q39 0 118 3t117 3q57 0 97.5 -5.5t77 -19.5t55 -43t18.5 -73q0 -28 -15 -48.5t-39.5 -30.5t-48.5 -14t-50 -4q-14 1 -28.5 4t-16.5 3q-6 0 -7.5 -5t0.5 -22q4 -34 10 -192t7.5 -310.5t-10.5 -189.5q-34 -64 -101 -64q-58 0 -96 53q-15 22 -20 51.5t-6.5 100
t-0.5 252.5q0 323 -4 323q-9 3 -18 3q-6 0 -23.5 -1.5t-31.5 -1.5h-21z" />
    <glyph glyph-name="t_h" unicode="th" horiz-adv-x="1134" 
d="M1128 569q-4 -20 -30 -61q1 -35 4 -94q7 -196 0 -230q-5 -27 -31 -51q-30 -27 -70 -27q-31 0 -59 19.5t-45 54.5q-15 28 -21.5 74.5t-7 78t-0.5 122.5q-9 0 -57 -4t-51 -7q-2 -2 -2 -186q-1 -150 -6 -179.5t-30 -53.5h-1q-29 -29 -70 -29q-22 0 -45 10q-22 10 -38 23.5
t-25.5 37.5t-15 43.5t-7 61.5t-2 68.5t0.5 88t1 97.5l-16 10q-40 25 -50 64t7.5 73t52.5 50q16 7 19 13q4 9 14 124l2 20q-46 0 -117 -8q2 -30 11.5 -305t9.5 -297q-2 -47 -34.5 -82t-76.5 -35q-25 0 -54 16.5t-42 39.5q-27 41 -30 110.5t-1 507.5q-37 -14 -74 -32
t-55.5 -25.5t-34.5 -7.5q-12 0 -39 10q-35 15 -50 52t-3 77q15 44 109 94t225.5 84.5t243.5 34.5q86 0 145 -23q63 -23 91.5 -79t2.5 -107q-2 -5 -3.5 -9.5l-3 -9t-2 -12t-1 -12.5t-0.5 -17v-19.5v-25.5v-30q25 5 59 9q39 4 45 16t3 77q-1 9 -1 14q-3 63 1.5 89.5t21.5 48.5
q31 34 78 34q46 0 74 -32q24 -25 32 -84.5t11 -116.5t16 -74q12 -15 19 -41t3 -41z" />
    <glyph glyph-name=".notdef" horiz-adv-x="1024" 
 />
    <glyph glyph-name=".null" horiz-adv-x="0" 
 />
    <glyph glyph-name=".null" horiz-adv-x="0" 
 />
    <glyph glyph-name="nonmarkingreturn" unicode="&#xd;" horiz-adv-x="512" 
 />
    <glyph glyph-name="space" unicode=" " horiz-adv-x="311" 
 />
    <glyph glyph-name="exclam" unicode="!" horiz-adv-x="512" 
d="M209 371q-22 9 -41.5 35t-28.5 57q-17 63 -2.5 339t39.5 333q13 32 40 49.5t58 17.5q58 0 84 -47q12 -21 14 -45q1 -13 -3 -344q-5 -271 -8 -300q-6 -48 -29 -71q-5 -5 -13 -12q-28 -21 -71 -21q-24 0 -39 9zM350 188q0 -56 -35.5 -105.5t-89.5 -49.5q-40 0 -69 30
t-29 78q0 53 36 100.5t87 47.5q40 0 70 -29t30 -72z" />
    <glyph glyph-name="quotedbl" unicode="&#x22;" horiz-adv-x="616" 
d="M51 1004q-10 30 10 92q11 34 12 120t19 111q28 47 84 47q63 0 90 -55q16 -30 23.5 -100.5t-9 -152.5t-63.5 -116q-26 -20 -67 -20q-33 0 -60.5 18.5t-38.5 55.5zM354 1356q33 45 86 45q62 0 90 -60q9 -20 13 -44.5t8 -106.5q4 -132 -5.5 -178t-49.5 -80q-28 -21 -62 -21
q-61 0 -94 58q-12 23 -13.5 34.5t1.5 51.5q4 69 6 133.5t3 88.5t4.5 44.5t12.5 34.5z" />
    <glyph glyph-name="numbersign" unicode="#" horiz-adv-x="974" 
d="M774 1008q23 -18 33 -45t10 -50.5t5 -49t18 -40.5q26 -29 27.5 -65t-21.5 -68l-17 -24q2 -35 9 -127l22 -9q46 -15 69 -48t21 -67.5t-25 -63.5t-61 -36l-18 -4q2 -117 1 -142.5t-11 -47.5q-13 -29 -40.5 -45.5t-58.5 -16.5q-37 0 -68.5 25t-45.5 74q-3 12 -6.5 55.5
t-6.5 80t-6 38.5q-5 4 -66 14t-63 8q-3 -3 8 -39q20 -73 -13 -115t-89 -42q-61 0 -98 49q-21 30 -29 60t-23 128q-6 0 -21.5 1t-20.5 1t-17.5 1t-17 2t-14.5 3t-14.5 4t-12 5.5t-12 7.5t-9.5 9.5t-10 12.5q-16 23 -17.5 50.5t11 52t42.5 42.5t72 21q38 3 36 8q-2 7 -50 7
q-45 2 -70 13t-40 38q-20 32 -14.5 67.5t34.5 61.5q16 13 37.5 20t37.5 9.5t66 7.5l2 28q0 54 32 86.5t73 32.5q36 0 63.5 -23t36.5 -67q4 -18 7.5 -23.5t9.5 -5.5h8q10 2 147 13q0 75 32.5 110t76.5 35q38 0 59 -18zM451 588q39 -3 72.5 -7.5t50.5 -7t22 -2.5q1 0 3 1t3 1
q4 2 4 70h-78q-28 0 -73 -2q-1 -19 -2 -29t-2 -24z" />
    <glyph glyph-name="dollar" unicode="$" horiz-adv-x="952" 
d="M602 901h-29q-1 -61 -1 -97t-1 -93q347 -132 347 -316q0 -54 -28.5 -96.5t-80 -70.5t-101.5 -45t-116 -31q-17 -3 -17 -21q0 -51 -29 -85t-77 -34q-36 0 -49 8q0 -2 -11 5.5t-26.5 23.5t-24.5 33q-1 1 -2 3q-15 16 -24 17q-5 0 -14 -1t-25 -3t-29 -4q-82 -8 -114 -8
q-46 0 -78 8q-48 18 -70.5 55.5t-15.5 76t37 63.5q24 20 55.5 25.5t104.5 9.5t145 16q2 137 2 217q-104 54 -139 82q-69 55 -89 129q-9 38 -2 70q9 45 33 81.5t63.5 64.5t77 47.5t91.5 41.5l6 29q10 47 41 72.5t69 25.5q64 0 90 -57q7 -17 12.5 -22t14.5 -5q39 0 80 -41
q28 -38 28.5 -76.5t-29 -67.5t-75.5 -30zM612 397q33 11 33 15t-35.5 25.5t-40.5 21.5q-4 0 -4 -35q0 -14 0.5 -20.5t3.5 -10.5t9 -4q2 0 34 8z" />
    <glyph glyph-name="percent" unicode="%" horiz-adv-x="1157" 
d="M352 23q-12 -3 -22 -3q-61 0 -92.5 54t-4.5 127q5 13 45.5 95t127 244.5t178.5 323.5q32 55 62 111t42.5 79.5t27 46.5t25 31.5t27.5 14.5q18 6 35 6q43 0 75.5 -34.5t26.5 -78.5q-6 -40 -66.5 -166t-222.5 -436q-27 -51 -54 -103.5t-44 -85t-34 -66t-27.5 -52.5l-21 -38
t-18 -28t-14.5 -18t-15 -12.5t-16 -6.5t-20 -5zM272 637h-10q-68 0 -122 30.5t-82 78.5t-27 113t37 130q30 53 80 89t106 36q50 0 99.5 -22t82.5 -60q48 -53 64 -111t0.5 -106.5t-48.5 -88.5t-81 -63.5t-99 -25.5zM807 553q18 12 28.5 14t45.5 2q36 0 48.5 -2.5t41.5 -17.5
q39 -19 76.5 -56t56.5 -75q12 -24 14 -36t2 -50q0 -47 -12 -82q-35 -83 -104 -139t-148 -56q-15 0 -43 4q-90 20 -143 96.5t-41 166.5q12 83 50 142t87 71q10 0 41 18zM918 332q-26 25 -33.5 29t-26.5 4h-22l-7 -25q-10 -37 -3.5 -56.5t24.5 -19.5q29 0 55 45zM268 858
q4 8 0.5 20.5t-8.5 12.5q-6 0 -6 -21q0 -20 8 -20q3 0 6 8z" />
    <glyph glyph-name="ampersand" unicode="&#x26;" horiz-adv-x="823" 
d="M811 63q-7 -34 -34 -53.5t-62 -19.5t-62 18q-27 20 -78 78l-26 -12q-62 -29 -182 -29q-47 0 -81.5 2.5t-77.5 13t-70 29t-47.5 53.5t-22.5 84q-3 44 22 103.5t48 95t67 96.5q8 11 12 17q-5 9 -22 37.5t-23.5 39.5t-20 36t-20 40t-15.5 37t-14 42t-8 40q-11 85 34.5 154.5
t119.5 105t155 35.5q133 0 199 -92q21 -30 31 -64.5t12.5 -64t-7.5 -69t-17.5 -64.5t-29.5 -68.5t-32.5 -62t-35.5 -61.5q-3 -5 -4 -7t-3 -5.5t-4 -6.5q42 -59 82.5 -115t67 -92t52 -70.5t40 -55t28 -39.5t19.5 -30.5t10.5 -21.5t4.5 -19t-1 -16t-4 -19zM330 844
q-4 -7 10 -46.5t22 -41.5q5 0 22.5 37t21.5 57q3 12 0.5 15t-11.5 3q-15 0 -38 -8.5t-27 -15.5zM365 340q-1 -2 -18.5 -27.5t-18.5 -27.5q0 -6 45 -6q27 0 35 4q1 2 1 4.5t-6 10t-11 13t-13.5 15t-13.5 14.5z" />
    <glyph glyph-name="quotesingle" unicode="'" horiz-adv-x="403" 
d="M94 1022q1 43 -0.5 104.5t-1.5 100t4 53.5q9 34 37 54t62 20q48 0 77 -33q25 -29 36 -153t5 -181q-7 -61 -40 -94t-74 -33q-29 0 -55.5 17.5t-39.5 48.5q-12 31 -10 96z" />
    <glyph glyph-name="parenleft" unicode="(" horiz-adv-x="602" 
d="M469 1026q-6 -1 -19.5 -16.5t-32.5 -47.5t-37 -74.5t-35 -106t-26 -132.5q-15 -149 62 -321q26 -57 43.5 -81t36.5 -30q50 -10 71 -53q31 -60 -1.5 -108t-75.5 -58q-14 -4 -41 -4q-51 0 -97 31t-81.5 84t-61 107.5t-47.5 117.5q-54 169 -42 320t67.5 272.5t115.5 196.5
t103 91q27 9 41 9q29 0 56 -12.5t40 -32.5q25 -41 16.5 -75t-26 -54t-29.5 -23z" />
    <glyph glyph-name="parenright" unicode=")" horiz-adv-x="534" 
d="M156 168q30 61 67 188t47 207q11 77 1 188.5t-35 176.5q-12 30 -45 74.5t-35 76.5q-3 73 53 97q17 10 45 10q62 0 119.5 -73t94 -191.5t40.5 -247.5q5 -133 -39 -301q-106 -388 -215 -443q-37 -16 -64 -16q-42 0 -73 26.5t-39 65.5q-5 25 7 51.5t37.5 61t33.5 49.5z" />
    <glyph glyph-name="asterisk" unicode="*" 
d="M156 778q13 54 14 64.5t-8 11.5q-25 6 -45.5 35t-18.5 55q1 19 15 46t26 36q16 13 51.5 26.5t40.5 26.5q10 40 46 66t77 26q2 0 6.5 -1t6.5 -1q42 -9 81 -85q2 -5 3 -7q14 0 39.5 -0.5t36.5 -0.5t29.5 -0.5t27.5 -1.5l22.5 -2.5t21.5 -3.5t17 -4.5t17 -6.5q38 -20 53 -57
t6 -72t-46 -61.5t-93 -26.5h-9h-38q53 -123 58 -148q7 -33 -9 -67q-17 -34 -48.5 -54t-66.5 -20q-46 0 -74 31q-13 13 -23 29t-14.5 24t-7.5 8q-4 0 -10 -14q-12 -20 -40.5 -37t-51.5 -17q-48 0 -74 23q-1 -1 -5 3t-9 12.5t-10.5 19.5t-9 24.5t-3.5 26.5q0 20 19 94z" />
    <glyph glyph-name="plus" unicode="+" horiz-adv-x="819" 
d="M311 823q33 45 84 45q109 0 109 -159h28q58 0 86 -5.5t54 -25.5q28 -22 35 -56t-5.5 -65.5t-53.5 -54.5t-101 -23h-33q6 -115 5.5 -139t-11.5 -45q-14 -27 -40 -43t-56 -16q-28 0 -52 12q-22 11 -37 29.5t-22.5 35t-11 46.5t-4 48t-0.5 55v6v5v6h-39q-70 0 -88 6
q-33 9 -54 33t-23 52.5t8.5 56t43.5 45.5t80 18q44 0 76 8q1 11 2 27t1.5 23t1 17.5t1 14t2 10.5t2.5 9.5l3 7.5t4 8t5 8z" />
    <glyph glyph-name="comma" unicode="," horiz-adv-x="425" 
d="M121 39q-6 40 8 125t29 102q28 35 78 35q61 0 88 -49q13 -25 16 -51t-2 -92q-3 -30 -9.5 -56t-20 -51.5t-37 -40t-54.5 -14.5q-36 0 -64 26.5t-32 65.5z" />
    <glyph glyph-name="hyphen" unicode="-" horiz-adv-x="706" 
d="M139 489q-47 10 -71.5 45.5t-14.5 77t51 66.5l29 16q69 4 148 9t120.5 7.5t67.5 2.5q46 0 64.5 -6.5t41.5 -26.5q34 -28 39 -68t-18 -73t-64 -45q-37 -9 -47 -9h-98h-65q-151 0 -183 4z" />
    <glyph glyph-name="period" unicode="." horiz-adv-x="407" 
d="M86 74q-19 35 -5 91.5t48 82.5q21 18 64 18q38 0 57 -16q26 -19 41 -67t6 -85q-10 -40 -41.5 -64t-69.5 -24q-64 0 -100 64z" />
    <glyph glyph-name="slash" unicode="/" horiz-adv-x="739" 
d="M514 631q-133 -291 -206 -434t-94.5 -169t-41.5 -26q-44 0 -77 34t-32 91q1 65 112 318t165 358q137 254 210 377.5t91.5 144.5t34.5 21q47 0 77.5 -40t18.5 -94q-2 -7 -45 -103t-108.5 -241t-104.5 -237z" />
    <glyph glyph-name="zero" unicode="0" horiz-adv-x="892" 
d="M420 1075q59 0 116 -28.5t101.5 -74t82 -103t62 -115.5t37.5 -111q19 -75 6.5 -176t-49.5 -176q-52 -109 -150 -173.5t-206 -64.5q-67 0 -128.5 28t-114 84t-88.5 152t-46 220q-5 63 10.5 150t47 171t87 143.5t121.5 61.5q42 0 66 6q21 6 45 6zM332 844
q-19 -46 -27.5 -69t-17 -70.5t-8.5 -106.5q0 -38 6 -83.5t19.5 -100.5t43 -91t70.5 -36q39 0 80 29t63 67q52 110 26 210.5t-77.5 169.5t-87.5 75q-30 6 -90 6z" />
    <glyph glyph-name="one" unicode="1" horiz-adv-x="382" 
d="M63 891q-3 46 1.5 68t21.5 47q27 38 78 38q31 0 53.5 -13t34.5 -37.5t17.5 -48t9.5 -56.5q17 -113 31.5 -340.5t11.5 -317.5q-1 -42 -4.5 -56t-14.5 -36q-35 -53 -96 -53q-41 0 -72.5 26.5t-40.5 77.5q-6 37 -15.5 343.5t-15.5 357.5z" />
    <glyph glyph-name="two" unicode="2" horiz-adv-x="759" 
d="M145 141q-44 12 -73 48t-29 77q0 45 22 83.5t95 133.5q19 25 30 39q70 94 110 194q38 93 -1 93q-10 0 -33 -10q-29 -13 -51 -13q-55 0 -86 48q-33 51 -4 104q35 64 149 84q24 4 39 4q84 0 149.5 -60t78.5 -153q9 -57 -4 -120.5t-45 -126t-60.5 -108t-66.5 -98.5
q210 -17 251 -30q75 -22 99 -84t-23 -109q-35 -35 -92 -35q-5 0 -88 9q-38 5 -193.5 15.5t-173.5 14.5z" />
    <glyph glyph-name="three" unicode="3" horiz-adv-x="602" 
d="M203 754q62 44 63 53q1 2 -4 2q-22 0 -37.5 1.5t-33.5 7t-30.5 18t-19.5 32.5q-29 70 26.5 122t141.5 52q58 0 107.5 -27.5t77.5 -84.5q25 -55 24 -100.5t-20 -87.5t-41.5 -70t-41 -48t-18.5 -22q0 -1 27 -14.5t65.5 -45.5t61.5 -73q14 -27 17 -40t3 -48q0 -53 -14 -80
q-34 -69 -153 -142.5t-195 -72.5q-76 0 -116.5 59t-10.5 121q26 58 111 58h8q15 0 51 16q58 29 57 40q0 2 -2 3q-4 4 -74 33q-82 32 -116.5 60t-46.5 73q-9 34 -0.5 65t34.5 58t45.5 43t53.5 39z" />
    <glyph glyph-name="four" unicode="4" horiz-adv-x="706" 
d="M504 975q20 10 43 10q58 0 86 -45q2 -3 5 -6q11 -12 10 -314q-1 -250 -1 -446l-14 -24q-33 -48 -92 -48q-11 0 -27 4q-25 7 -43 19t-29 34t-17.5 39.5t-9 53t-3 55t-0.5 64.5v24q-67 12 -114.5 24t-96 29t-77.5 36.5t-51 47.5t-25.5 62.5t8.5 79.5t42 100
q102 184 133 215q34 37 78 37q41 0 72 -29t31 -73q0 -24 -57.5 -136.5t-57.5 -117.5q0 -6 46.5 -19.5t66.5 -13.5l6 2q5 5 12 127q6 81 14 119t21 56.5t41 33.5z" />
    <glyph glyph-name="five" unicode="5" horiz-adv-x="643" 
d="M147 231q12 25 36.5 41.5t47.5 16.5q18 0 49.5 34.5t61.5 86.5q21 35 7 45t-93 14q-54 3 -83.5 14t-57.5 37q-31 33 -41 64.5t-11 111.5q-2 51 3 176q3 40 6 58.5t12.5 52t29.5 52.5t50 26q33 10 184 10q66 0 94 -4q74 -14 106.5 -61t4.5 -99q-15 -32 -42 -45.5
t-79 -13.5q-15 0 -65 4q-29 2 -86 2q-2 -9 -0.5 -39.5t4 -71.5t2.5 -43h26q52 0 110.5 -23.5t96.5 -60.5q51 -51 66.5 -112.5t-1.5 -117.5t-48 -110t-70.5 -96t-71 -69t-47.5 -35q-43 -19 -78 -19q-74 0 -113.5 58.5t-9.5 115.5z" />
    <glyph glyph-name="six" unicode="6" horiz-adv-x="626" 
d="M502 977q27 -43 11 -86t-67 -66q-33 -15 -65.5 -47.5t-49 -57t-14.5 -26.5q4 -3 37.5 -18.5t78 -43.5t85.5 -65q53 -49 70 -106t2 -131q-25 -108 -96.5 -167t-161.5 -59q-78 0 -148.5 46t-111.5 131q-48 104 -47 208.5t41 201.5t98 171.5t126 119t124 44.5q60 0 88 -49z
M260 463q20 -121 72 -121q13 0 20 10q7 12 6.5 33t-24.5 31q-33 26 -74 47z" />
    <glyph glyph-name="seven" unicode="7" horiz-adv-x="630" 
d="M535 786q-1 -21 -2.5 -41.5t-3.5 -29.5t-0.5 -19t0 -11.5t3.5 -7.5t6 -6t11 -7q35 -23 43.5 -63.5t-15.5 -77.5t-77 -50l-19 -2q-10 -52 -20.5 -110.5t-16 -90t-12 -67.5t-12 -53t-13 -36t-16.5 -27.5t-21.5 -15.5t-29.5 -12q-21 -6 -31 -6q-11 0 -30 8q-31 11 -49.5 32
t-26 40.5t-6.5 55t4 55.5t10 61q20 108 20 109q2 5 -0.5 6.5t-9.5 1.5q-12 0 -22 -2q-50 0 -81.5 25t-31.5 75q-1 41 25.5 69t58.5 39t66 21.5t43 18.5q3 3 8.5 28t10.5 69.5t5 88.5q-40 4 -61 4q-46 0 -80 -10q-16 -4 -25 -4q-52 0 -84.5 48.5t-11.5 100.5q14 28 38 45.5
t57 25t58.5 9.5t61.5 2q70 0 113 -12q181 -47 166 -277z" />
    <glyph glyph-name="eight" unicode="8" horiz-adv-x="647" 
d="M338 1067q64 0 116.5 -33.5t80.5 -91.5q12 -24 17 -59t5 -65t-5.5 -76t-9 -68t-12 -66t-8.5 -47l31 -31q78 -82 83 -179t-56 -173t-164 -104q-52 -15 -101 -15q-74 0 -137 30.5t-101 85t-53 122t5 148t75 157.5l-18 31q-43 79 -34 157t49 139.5t105 99.5t132 38zM242 369
q0 -38 21 -56t52 -18q32 0 59 14t27 29q0 13 -34 42.5t-68.5 51.5t-36.5 17q-20 -54 -20 -80zM299 805q-6 -8 -8.5 -17t-3.5 -14.5t3 -16t5 -13.5t8 -15.5t8 -13.5q3 20 5.5 36.5t4 33t0 25.5t-5.5 9q-8 0 -16 -14z" />
    <glyph glyph-name="nine" unicode="9" horiz-adv-x="692" 
d="M178 268q32 14 63 42.5t59 70t43.5 68t39.5 71.5q-18 0 -51 0.5t-45.5 1t-32 1.5t-32 3.5t-23.5 5.5q-159 47 -183 187q-13 67 17.5 134.5t86 116t125 79t132.5 30.5q42 0 68.5 -10.5t41 -20.5t29.5 -10q19 0 42 -12.5t36 -30.5q6 -8 10 -27t8 -30q33 -90 41 -160.5
t-4 -177.5q-5 -49 -31 -119t-69 -145t-93.5 -139.5t-112 -106t-118.5 -41.5q-48 0 -83 26.5t-45.5 62t9.5 73t72 57.5zM324 842q-26 -13 -49 -36.5t-23 -35.5q0 -16 57 -16q21 0 48.5 2.5t45.5 5.5t19 4q2 1 1.5 10t-3.5 19q-1 6 -2 10t-1.5 7.5t-3.5 7t-5 5.5t-7.5 6.5
t-10 7t-14.5 9.5t-18 12z" />
    <glyph glyph-name="colon" unicode=":" horiz-adv-x="518" 
d="M178 264q-52 24 -66.5 78t17 99t98.5 44q85 -3 111 -67q26 -59 -12.5 -111.5t-100.5 -52.5q-20 0 -47 10zM119 750q0 17 14.5 53.5t26.5 50.5q30 35 78 35q35 0 65 -21q31 -22 41.5 -64t-6.5 -85t-59 -64q-25 -14 -54 -14q-45 0 -75.5 34.5t-30.5 74.5z" />
    <glyph glyph-name="semicolon" unicode=";" horiz-adv-x="419" 
d="M319 266q-7 -35 -16 -62t-25 -55t-42 -43.5t-60 -15.5q-58 0 -87 50.5t-1 115.5q14 32 26.5 80t12.5 72q0 51 29.5 80.5t70.5 29.5q49 0 82 -39q25 -31 27.5 -78t-17.5 -135zM176 680q-51 20 -69.5 65t0.5 91t69 69q29 13 55 13q47 0 79 -34t31.5 -83.5t-40.5 -89.5
q-37 -37 -90 -37q-17 0 -35 6z" />
    <glyph glyph-name="less" unicode="&#x3c;" horiz-adv-x="620" 
d="M295 317q-150 108 -192.5 162t-34.5 125q6 51 91 121.5t224 144.5q49 28 71.5 38t41.5 10q43 0 73.5 -31.5t30.5 -75.5q0 -43 -28.5 -69.5t-109.5 -69.5t-138 -84q160 -116 198 -150t45 -78q6 -48 -25 -87.5t-83 -39.5q-6 0 -31 5q-2 3 -3 1.5t-3 -1.5q-19 0 -127 79z
" />
    <glyph glyph-name="equal" unicode="=" 
d="M672 807q32 -43 18 -90.5t-65 -69.5q-21 -8 -66 -8q-22 0 -127 4.5t-201 5.5q-58 2 -73.5 4.5t-30.5 12.5q-36 20 -47 56.5t5.5 71.5t55.5 52q26 12 88 16.5t230 7.5q96 0 140.5 -13t72.5 -50zM643 479q49 -51 24 -109.5t-100 -70.5q-8 -2 -35 -2q-23 0 -128 5t-179 5
h-26q-70 -1 -100.5 48t-12.5 89q15 33 38.5 48.5t72.5 22.5t151 9q18 0 48.5 1t43.5 1q98 0 137 -9.5t66 -37.5z" />
    <glyph glyph-name="greater" unicode="&#x3e;" horiz-adv-x="622" 
d="M143 924q31 0 117 -45q140 -75 224.5 -146.5t90.5 -122.5q5 -49 -11.5 -85t-64 -80t-151.5 -119q-109 -80 -127 -80q-4 0 -6 -2q-20 -4 -29 -4q-53 0 -84.5 40t-25.5 87q7 44 46 79t197 148q-50 35 -110.5 69.5t-91 51t-52.5 43t-22 61.5q0 42 29.5 73.5t70.5 31.5z" />
    <glyph glyph-name="question" unicode="?" horiz-adv-x="780" 
d="M473 944q-78 0 -151.5 -45.5t-73.5 -118.5q0 -46 -30 -77t-71 -31q-26 0 -55 16q-55 32 -56 109t48.5 162.5t130.5 140.5q121 80 254 80q111 0 193 -57t102 -160q12 -72 -26 -154.5t-134 -192.5q-227 -264 -239 -274q-33 -29 -76 -29q-46 0 -80.5 32.5t-34.5 80.5
q0 31 25.5 70.5t109.5 136.5q168 191 199 240q36 55 1 67q-13 4 -36 4zM197 166q15 20 40.5 33.5t47.5 13.5q34 0 64 -25t36 -59q9 -48 -28 -88.5t-85 -40.5q-20 0 -36 8q-43 20 -55.5 70.5t16.5 87.5z" />
    <glyph glyph-name="at" unicode="@" horiz-adv-x="1292" 
d="M993 668l15 14q15 15 16.5 43.5t-14 61t-43.5 62.5t-79 49.5t-114 19.5h-24q-224 -13 -364 -147q-110 -105 -124 -238q-13 -133 80 -222q98 -93 283 -98q14 0 38 -1t35 -1q114 0 223 13.5t123 13.5q32 0 54 -11q52 -25 58.5 -81t-36.5 -99q-30 -30 -86 -43t-190 -20
q-124 -9 -182 -9q-315 0 -494 179q-65 66 -100.5 150.5t-41 174.5t22.5 183.5t84.5 176t150.5 152.5t214 113q143 51 270 51q75 0 142.5 -17t119 -46.5t95.5 -69.5t71 -85t45.5 -94t19.5 -96.5t-8 -91.5q-25 -94 -100 -158.5t-166 -64.5q-53 0 -100 23l-31 14l-39 -39
q-116 -125 -246 -125q-64 0 -115.5 32t-78.5 87q-36 72 -19 152t64 149t119 118t145 60q12 2 37 2q73 0 124.5 -41.5t70.5 -115.5l3.5 -10.5t3.5 -8t6 -8t6.5 -7.5t9.5 -9t12 -9.5t15.5 -12.5t18.5 -15zM598 563q-5 -12 0 -12q13 0 67 59t54 70q0 6 -4 6q-9 0 -35 -20
q-62 -45 -82 -103z" />
    <glyph glyph-name="A" unicode="A" horiz-adv-x="704" 
d="M573 598q10 -33 17 -43t22 -18q40 -23 53.5 -64t-6.5 -78l-14 -26q84 -248 84 -301q0 -50 -31 -85.5t-75 -35.5q-29 0 -54 14q-34 17 -52 53t-56 162q-8 26 -16.5 50t-14.5 38t-8 15q-5 2 -83.5 -23.5t-88.5 -32.5q-6 -3 -17 -61q-6 -45 -16.5 -67.5t-34.5 -43.5
q-21 -14 -65 -14q-30 0 -40.5 2.5t-25.5 13.5q-52 43 -49 113q1 99 81.5 461t113.5 458q32 86 104 86q41 0 71.5 -26.5t30.5 -65.5q0 -12 21.5 -68.5t65.5 -175.5t83 -237zM291 483q-4 -8 4 -8q6 0 41 14l20 11q0 5 -16.5 63t-17.5 58q-1 2 -7.5 -28.5t-14.5 -67.5t-9 -42z
" />
    <glyph glyph-name="B" unicode="B" horiz-adv-x="778" 
d="M756 324q-27 -60 -99 -109q-80 -53 -292 -117l-9 -26q-10 -44 -39.5 -68t-66.5 -24q-39 0 -73.5 27t-47.5 75q-17 59 -34.5 197.5t-27.5 259.5t-20 253l-10 132q-7 66 0.5 102.5t32.5 63.5q51 51 163 51q74 0 148 -25.5t117 -68.5q42 -42 59.5 -91.5t13 -91t-14.5 -76.5
t-19 -56.5t-5 -22.5q15 -8 47.5 -28t89.5 -71t81 -100q21 -43 24.5 -90t-18.5 -96zM299 575q-2 0 4 -54l12.5 -112.5t6.5 -64.5q0 -8 10 -8q17 0 61 16q129 48 137 62q3 5 -18 24.5t-45 34.5q-16 11 -77.5 44.5t-72.5 43.5q-14 14 -18 14zM338 883q-7 20 -86 41
q5 -31 10.5 -76.5t8.5 -70.5t5 -25q4 0 35 59.5t27 71.5z" />
    <glyph glyph-name="C" unicode="C" horiz-adv-x="653" 
d="M274 500q-4 -47 13 -78.5t46 -46t67 -27t73 -20t66 -25t45 -43.5q28 -54 -3.5 -107.5t-95.5 -60.5q-87 0 -199.5 48t-168.5 112q-94 107 -76.5 278.5t137.5 309.5q61 70 151.5 130t164.5 60t119 -48.5t22 -107.5q-14 -38 -41.5 -50.5t-73.5 -12.5q-10 2 -22 2
q-17 0 -45 -22q-73 -54 -122.5 -131t-56.5 -160z" />
    <glyph glyph-name="D" unicode="D" horiz-adv-x="808" 
d="M78 254l41 6q-3 101 -7 172.5t-6 158t-2 306.5l-14 8q-26 19 -33.5 60t9.5 73q21 33 51 46.5t86 13.5h24q129 -7 236.5 -55.5t177 -121t103 -165.5t25 -187t-67 -187t-164.5 -163q-60 -40 -124.5 -77.5t-160 -77t-156.5 -39.5q-41 0 -77 25.5t-46 64.5q-14 51 15.5 90
t89.5 49zM322 860q13 -180 23 -365q5 -105 11 -110q2 -1 4 0q7 2 35.5 20.5t68 55.5t56.5 74q23 65 5.5 125.5t-66.5 113.5q-60 60 -137 86z" />
    <glyph glyph-name="E" unicode="E" horiz-adv-x="684" 
d="M539 319q76 -1 105 -9.5t48 -33.5q40 -51 16.5 -107.5t-92.5 -76.5q-24 -8 -100 -8q-41 0 -57 2q-14 2 -41 5q-40 5 -59.5 7.5t-53.5 8t-52.5 11t-46.5 14.5t-44 19t-36.5 25.5t-33 33.5t-24.5 42t-19 53q-11 67 -8 178t8 138q6 22 10 96q3 52 2 63.5t-12 26.5
q-28 45 -16 94q6 19 17 34.5t21 26.5t29.5 20t30 14t36.5 10.5t34.5 7t38.5 5.5t36 5q102 12 166 12q211 0 211 -133q0 -46 -31 -77t-77 -31q-12 0 -59.5 8t-94.5 8q-51 0 -108 -8q0 -1 -1.5 -34t-1 -56t4.5 -23q19 0 172 37q24 8 49 8q47 0 81 -30.5t34 -75.5
q0 -33 -16.5 -58.5t-41.5 -40.5t-61 -25.5t-69.5 -16t-72.5 -10.5q-7 -1 -10 -1q-63 -7 -70.5 -13t-7.5 -46q0 -46 4 -58q6 -13 85.5 -25.5t177.5 -15.5z" />
    <glyph glyph-name="F" unicode="F" horiz-adv-x="808" 
d="M369 57q-1 -52 -35.5 -83t-79.5 -31q-40 0 -73 27t-44 81q-14 72 -14 772l-23 6q-53 19 -66.5 71t23.5 95q13 14 26 21.5t19 8t9.5 7t3.5 23.5q0 50 27 87.5t75 37.5q36 0 65 -28t37 -67l9 -34h172q136 0 190 -10t88 -44q37 -38 39.5 -85t-28.5 -80t-82 -33q-18 0 -39 6
t-133 14t-162 8l-21 -2q-1 -1 0 -31t2.5 -63t1.5 -35q168 4 191 4q73 0 100.5 -8t54.5 -35q34 -34 34 -74.5t-34 -74.5q-22 -22 -42 -28.5t-74 -6.5q-62 0 -228 6q1 -24 6 -209.5t5 -212.5z" />
    <glyph glyph-name="G" unicode="G" horiz-adv-x="821" 
d="M801 453q0 -101 -62.5 -201.5t-162.5 -164.5t-203 -64q-34 0 -76 10q-118 34 -189 140t-79.5 253.5t43.5 323.5q57 179 155 261.5t205 82.5q104 0 164.5 -65t15.5 -136q-27 -43 -82 -43q-26 0 -53 12q-30 17 -41 17q-17 0 -40.5 -20.5t-43.5 -49.5q-14 -22 -35.5 -71
t-21.5 -58q72 -2 162 -4q132 -1 175.5 -8.5t84.5 -32.5q84 -57 84 -182zM287 334q35 -74 92 -74q59 0 121.5 66t62.5 106q0 10 -82 10h-82q-73 0 -108 9q-29 8 -31 6q-4 -4 6 -52t21 -71z" />
    <glyph glyph-name="H" unicode="H" horiz-adv-x="831" 
d="M729 1106q10 -22 11 -59t-1 -232l25 -10q38 -19 52 -56.5t-0.5 -77.5t-53.5 -65l-31 -16q1 -92 3 -216q3 -132 2 -155.5t-10 -33.5q-2 -2 -3.5 -4t-3.5 -5q-34 -49 -90 -49q-36 0 -68 23t-47 63q-9 22 -11 59t-4 173q0 64 -1 104q-161 -22 -164 -25q-4 -4 6.5 -115
t19.5 -231.5t2 -142.5q-10 -38 -40.5 -60t-67.5 -22q-40 0 -71 23.5t-42 70.5q-10 37 -45 449l-30 14q-61 32 -57 93t63 93q7 4 8 18.5t-4 78.5q-14 198 -15.5 240t5.5 57q10 33 37.5 54t60.5 21q17 0 35 -6q12 -5 20.5 -10.5t15.5 -11t12 -16t9.5 -20.5t8 -29.5t6.5 -37
t7 -49.5t7.5 -61.5t9.5 -78t12 -93.5q38 2 203 34q5 35 15 160t14 144q9 34 36.5 53.5t61.5 19.5q66 0 92 -57z" />
    <glyph glyph-name="I" unicode="I" horiz-adv-x="344" 
d="M139 -31q-26 5 -51 33q-25 25 -33 49q-13 43 -5.5 511t22.5 519q11 37 37.5 55.5t58.5 18.5q57 0 88 -45q10 -17 12.5 -32t5.5 -79q3 -73 4.5 -484.5t-8.5 -483.5q-8 -15 -29 -37.5t-28 -22.5q-5 0 -25 -4q-6 -2 -18 -2z" />
    <glyph glyph-name="J" unicode="J" horiz-adv-x="417" 
d="M190 88q-127 -121 -202 -121q-17 0 -35 6q-38 12 -60 44.5t-20 72.5q3 33 18 54t54 46q164 104 190 304q14 99 4 561q12 25 20 38t21.5 29.5t31.5 23.5t42 7t51 -18q28 -19 36.5 -39.5t8.5 -71.5q1 -49 9 -140t14 -160.5t2.5 -163.5t-19.5 -169t-58 -156.5t-108 -146.5z
" />
    <glyph glyph-name="K" unicode="K" horiz-adv-x="796" 
d="M281 399q-3 2 -3.5 -34.5t-0.5 -91v-111t-2.5 -102t-6.5 -56.5q-15 -34 -44 -53t-62 -19q-41 0 -73.5 27.5t-41.5 79.5q-7 44 -5.5 545t9.5 524q9 24 33 47.5t47 30.5q16 4 27 4q28 0 52 -15.5t36 -41.5q11 -25 14.5 -158t9.5 -172l109 94q56 49 103 94.5t64 63.5
t34 28.5t36 10.5q68 0 99 -60q25 -54 -6 -104.5t-172 -190.5q-81 -81 -106 -109t-21 -32q6 -6 137 -87t186 -112q46 -27 61 -39.5t25 -33.5q9 -17 10.5 -47t-4.5 -48q-12 -32 -43.5 -50.5t-70.5 -18.5q-23 0 -35 4q-25 8 -195 110.5t-200 122.5z" />
    <glyph glyph-name="L" unicode="L" horiz-adv-x="747" 
d="M743 43q-33 -31 -139 -45t-190 -14q-113 0 -183 44.5t-100 161.5q-32 128 -62.5 485.5t-5.5 405.5q26 56 95 56q20 0 35.5 -6t25.5 -13t18.5 -24t12.5 -26.5t7.5 -34t4.5 -33.5t4 -37l25.5 -212.5t25.5 -220.5q30 -283 54 -307q6 -6 24 -6q6 0 15 0.5t25.5 1.5t29.5 2
q59 4 104 10t66.5 9.5t32.5 3.5q14 0 32 -6q63 -22 76.5 -85.5t-33.5 -109.5z" />
    <glyph glyph-name="M" unicode="M" horiz-adv-x="1118" 
d="M883 131q-9 31 -21 113.5t-21.5 150t-11.5 70.5q-1 1 -2.5 -2l-4.5 -9t-7 -13.5t-8 -17.5l-8 -20q-32 -75 -65.5 -106t-82.5 -31q-38 0 -66 17.5t-44.5 50.5t-25.5 63.5t-19 72.5q-3 13 -4 19q-14 70 -19 70q-4 0 -38.5 -106t-70.5 -221t-42 -128q-18 -39 -50.5 -60
t-70.5 -21q-56 0 -95 45q-27 30 -36.5 83.5t-18.5 227.5q-7 118 -7.5 371t5.5 274q9 32 38 55t63 23q33 0 60 -20t36 -52q5 -17 8.5 -62.5t6.5 -121t5 -103.5q3 -41 6 -41q6 0 54 127q46 117 76.5 153.5t86.5 39.5h11q39 0 67.5 -17t45.5 -50.5t28 -67t23 -82.5q1 -7 2 -10
l22 -84q1 -2 5.5 4.5t13 18.5t19 26t25.5 29t32 27t38.5 20t44.5 8q18 0 39 -6q25 -7 45.5 -23t34.5 -33.5t26.5 -49t19.5 -53.5t14.5 -63.5t10.5 -63t9 -68t8 -64.5q9 -62 19 -121.5t14.5 -88t8.5 -56t3 -40.5t-5.5 -25t-14.5 -26q-31 -45 -90 -45q-39 0 -74 29t-51 84z
" />
    <glyph glyph-name="N" unicode="N" horiz-adv-x="765" 
d="M137 1174q22 0 62 -19q37 -17 52 -39.5t46 -103.5q22 -56 63.5 -150.5t75.5 -166t37 -68.5q39 223 47 389q3 53 6.5 68.5t14.5 33.5q37 49 94 49q41 0 72 -28q32 -28 41.5 -68t3.5 -118t-31 -257q-17 -119 -29.5 -186.5t-29 -116t-34.5 -70.5t-48 -40q-31 -17 -70 -17
q-34 0 -68 15q-33 18 -63.5 52.5t-51 67.5t-48.5 84q-6 11 -9 17q0 -99 2 -189t4 -134t3 -82.5t-2.5 -55.5t-10 -30.5t-20.5 -28.5q-37 -37 -78 -37q-11 0 -39 8q-12 0 -40.5 28.5t-35.5 55.5q-17 61 -20 651q-2 360 4 403q5 30 22 48q32 35 78 35z" />
    <glyph glyph-name="O" unicode="O" horiz-adv-x="901" 
d="M125 877q80 157 154 157q12 0 110 34t162 34q34 0 61 -8q113 -33 184.5 -136.5t71.5 -269.5q0 -78 -18.5 -167.5t-57 -179.5t-91 -163t-127.5 -118.5t-160 -45.5q-82 0 -157.5 43t-129.5 124t-80 185t-7.5 239t85.5 272zM301 733q-40 -124 -35 -230.5t47 -178.5t99 -72
q43 0 86.5 46t81.5 142q33 84 46 157t8 121.5t-19.5 83.5t-33.5 50.5t-38 15.5q-51 0 -224 -84z" />
    <glyph glyph-name="P" unicode="P" horiz-adv-x="669" 
d="M358 399q23 -256 17 -325q-7 -47 -40 -74t-75 -27q-39 0 -72 26.5t-43 74.5q-5 26 -15.5 222.5t-19.5 410.5t-10 227l-37 2q-51 4 -80 42t-18.5 84.5t60.5 70.5q32 14 55 14q30 0 55 -2q108 -5 197 -28.5t149.5 -60t102 -83t58.5 -98.5t14 -105t-27 -104
q-18 -37 -49.5 -76t-74 -75.5t-73.5 -60.5t-74 -55zM344 680q3 3 17 18.5t25 27.5t22 26.5t12 21.5q5 22 -17 48.5t-46 42t-29 12.5q-1 -7 0 -37t5.5 -78.5t10.5 -81.5z" />
    <glyph glyph-name="Q" unicode="Q" horiz-adv-x="921" 
d="M872 733q28 -108 -15.5 -247.5t-119.5 -254.5q95 -123 111 -153q22 -39 18 -74q-3 -45 -33.5 -72.5t-72.5 -27.5q-23 0 -35 4q-27 8 -62.5 44t-54 61.5t-49.5 70.5l-41 -10q-50 -11 -80 -11q-69 0 -135.5 29t-121.5 83t-91 139t-43 188q-6 101 31 220t100 209t129 113
q21 9 45 9q58 0 88 -35q11 -13 26 -14.5t57.5 -6.5t99.5 -24q105 -35 164.5 -92.5t84.5 -147.5zM319 729q-4 -3 -12 -28t-15 -66t-9.5 -86t8 -95t35.5 -87q13 -20 39.5 -42t35.5 -22q5 0 5 4q0 2 -22.5 34.5t-46 72t-26.5 55.5q-9 48 23 84.5t78 36.5q23 0 39 -8
q31 -14 106 -113q6 -7 9.5 -11.5t9 -12t10.5 -13.5l16 37q34 77 42 145t-15 93q-21 24 -79 42.5t-110 18.5q-24 0 -67 -14t-54 -25z" />
    <glyph glyph-name="R" unicode="R" horiz-adv-x="808" 
d="M307 420q4 -97 8 -181t7 -124t4.5 -72t1 -46.5t-3.5 -25.5q-13 -41 -44.5 -64.5t-68.5 -23.5q-32 0 -61.5 19t-43.5 53q-25 56 -36 446t-11 598h-41q-37 0 -50 3t-27 14q-43 32 -39 87.5t51 84.5q33 19 106 35t156 16q229 0 350 -121q67 -67 89.5 -153t-11 -176
t-123.5 -158q-41 -29 -41 -35q0 -4 80.5 -42.5t126.5 -55.5q64 -25 86 -38t35 -34q34 -59 5.5 -111t-91.5 -63q-2 0 -6 -1t-6 -1q-82 0 -402 170zM276 1008q-2 -1 2 -51t8.5 -113t4.5 -86q71 43 104 73t33 64q0 32 -36 64.5t-85 44.5q-28 7 -31 4z" />
    <glyph glyph-name="S" unicode="S" horiz-adv-x="604" 
d="M588 1075q-19 -29 -53 -37t-83 -12t-83 -20q-39 -21 -74 -53.5t-35 -49.5q0 -18 27.5 -54t68 -77.5t85 -99t79.5 -116t51 -132t0 -143.5q-17 -74 -100 -200t-141 -167q-44 -33 -92 -33q-33 0 -60 17.5t-41 46.5q-13 26 -14.5 46.5t7.5 38.5t23.5 34.5t36 39.5t43.5 47.5
t48 64.5t47 85q18 41 16 64q-5 46 -40.5 99t-81 102.5t-90.5 101t-76 112.5t-31 119q0 112 81 193q64 64 155.5 107.5t180.5 43.5q50 0 93 -14q45 -16 63.5 -59.5t-10.5 -94.5z" />
    <glyph glyph-name="T" unicode="T" horiz-adv-x="751" 
d="M748 954q-19 -22 -42.5 -29t-78.5 -7h-31q-31 2 -64 2q-10 0 -14 -1t-4.5 -3t0.5 -5q10 -35 18.5 -85.5t15 -122.5t11 -126t9 -147.5t6 -132.5t5 -135.5t3.5 -104.5l-15 -28q-15 -28 -44 -45t-60 -17q-36 0 -68 26.5t-41 61.5q-7 26 -20 366.5t-35 481.5
q-156 -18 -209 -35q-30 -10 -51 -10q-33 0 -59 17t-35.5 44t-6 56t29.5 56t71 42q74 26 246 54t295 28q95 0 131 -20q54 -29 65.5 -83.5t-28.5 -97.5z" />
    <glyph glyph-name="U" unicode="U" 
d="M551 1075q35 53 94 53q41 0 75.5 -27t47.5 -77q15 -49 19 -173t-16.5 -294.5t-70.5 -286.5q-54 -125 -152 -202.5t-200 -77.5t-181 81.5t-114 247.5q-15 69 -19.5 153.5t-2.5 275.5q1 181 3 214.5t13 53.5q13 27 39 42t55 15q31 0 52.5 -16.5t44.5 -46.5q4 -75 11 -202
q17 -307 29 -404.5t48 -155.5q12 -21 24 -21q7 0 29 11q49 25 85 87.5t54.5 140.5t27 166.5t7 165t-9.5 136.5q-7 63 -5.5 92t13.5 49z" />
    <glyph glyph-name="V" unicode="V" horiz-adv-x="688" 
d="M500 203q-22 -60 -62.5 -103t-95.5 -43q-36 0 -72.5 23.5t-58.5 56.5q-54 83 -124 318t-87 387q-7 61 6.5 95.5t50.5 55.5q15 6 39 6q45 0 62 -14q38 -24 45 -74q10 -72 42 -181.5t58.5 -184t28.5 -72.5t63 229q29 110 44 165t25.5 86.5t14 38t13.5 20.5q39 51 98 51
q57 0 87.5 -50t6.5 -141q-21 -81 -96 -358.5t-88 -310.5z" />
    <glyph glyph-name="W" unicode="W" horiz-adv-x="1079" 
d="M821 1071q10 33 41 56.5t62 23.5q55 0 88 -41t43 -100q7 -38 7 -242.5t-7 -278.5q-51 -520 -291 -520q-22 0 -43 6q-32 9 -62.5 31t-51 45t-45 62.5t-36.5 62t-34 66.5q-5 9 -7 14q-57 -119 -78 -149q-56 -76 -135 -78q-86 0 -139 85t-82.5 271t-42.5 508
q-3 64 -1.5 80.5t9.5 36.5q28 61 95 61q42 0 75 -33q16 -18 19 -31q7 -25 31 -227q42 -359 49 -374q5 -7 19 28l7 19q15 37 22.5 54t21 45t24.5 40.5t27 28t35 21t42 5.5h11q54 -3 83 -36.5t72 -139.5q20 -49 45.5 -105t45 -92t22.5 -34q12 8 31 95.5t26 172.5q7 79 7 258.5
t-7 226.5q-7 48 2 78z" />
    <glyph glyph-name="X" unicode="X" horiz-adv-x="839" 
d="M342 838q73 -62 76 -62q5 0 84 133.5t92 165.5q32 72 102 72q40 0 71 -27t34 -71q2 -30 -15.5 -70.5t-99.5 -194.5q-90 -176 -90 -178q269 -264 283 -280q33 -46 32 -90t-31.5 -75.5t-74.5 -31.5q-29 0 -57 14q-21 11 -88 73.5t-124.5 117t-60.5 51.5q-1 -2 -94 -177.5
t-105 -191.5q-31 -45 -96 -45q-18 0 -33 6q-37 13 -59 51t-16 76q4 26 231 459q-18 18 -63 62.5t-77 76.5t-68.5 69t-58 61.5t-24.5 33.5q-25 51 4 98.5t84 47.5h7q28 -1 51 -17q30 -20 184 -157z" />
    <glyph glyph-name="Y" unicode="Y" horiz-adv-x="712" 
d="M453 1104q18 6 36 6q40 0 75 -25.5t54 -66.5q11 -27 29 -99t27 -124q12 -72 11 -165t-13 -159q-19 -87 -46.5 -148.5t-76.5 -123.5q-45 -56 -103 -105t-110 -76q-20 -10 -62 -22t-51 -10q-1 0 -21.5 4.5t-30.5 8.5t-28.5 13t-32.5 24t-26 36q-34 64 -3.5 123t91.5 59
q20 0 43 -10l27 -13q119 91 159 168q28 53 42 139.5t1 168.5q-24 -32 -38.5 -49.5t-40.5 -43.5t-54.5 -38.5t-58.5 -12.5q-66 0 -114.5 34t-73.5 90.5t-36.5 115t-11.5 121.5q-1 87 5 118t28 58q28 35 76 35q35 0 57 -13.5t31 -40t11.5 -49t2.5 -57.5q5 -145 23 -137
q7 7 57 94q60 102 84 130t62 42z" />
    <glyph glyph-name="Z" unicode="Z" horiz-adv-x="759" 
d="M324 35q-12 0 -33 -1t-29 -1q-66 0 -106.5 11.5t-71.5 43.5q-63 63 -29 168q8 27 81.5 176.5t138.5 284.5t59 141q-11 0 -23.5 -1t-27.5 -2.5t-23 -2.5q-57 -8 -101.5 -25.5t-56.5 -17.5q-42 0 -70 32t-28 74q0 82 100 123q51 20 132 33.5t141 13.5q76 0 126.5 -31
t69.5 -91q23 -81 -23.5 -202t-207.5 -444q-17 -32 -25 -49q135 6 297 6q73 0 105 -4q66 -9 96.5 -52.5t17 -92t-60.5 -72.5q-33 -16 -160 -16q-192 0 -288 -2z" />
    <glyph glyph-name="bracketleft" unicode="[" horiz-adv-x="550" 
d="M389 -104q7 0 -1 1q-139 15 -216 89q-27 26 -43 59q-23 46 -29 96.5t-6 202.5q0 282 9.5 509t23.5 290q12 53 46.5 86t72.5 44t82 11q60 0 96 -16q44 -20 58.5 -66t-11.5 -84q-16 -22 -34.5 -31.5t-32.5 -11t-62 -4.5q-19 -882 -8 -909q9 -25 106 -35q66 -7 100.5 -45
t32 -80.5t-41 -76.5t-101.5 -34q-6 0 -41 5z" />
    <glyph glyph-name="backslash" unicode="\" horiz-adv-x="563" 
d="M274 272q-67 241 -126.5 537t-53.5 332q9 39 36.5 61.5t62.5 22.5q27 0 49 -11q16 -7 28 -31.5t29.5 -90t36.5 -145.5t60.5 -238.5t90.5 -329.5q73 -250 80 -291q3 -25 -9.5 -59t-31.5 -49q-30 -23 -69 -23q-42 0 -68 20q-25 17 -46.5 72.5t-68.5 222.5z" />
    <glyph glyph-name="bracketright" unicode="]" horiz-adv-x="602" 
d="M354 -59q-47 -13 -192 -13q-41 0 -47 2q-47 15 -71.5 57.5t-12.5 88.5q6 23 29.5 46.5t48.5 31.5q18 6 81 6q62 2 76 6.5t15 26.5q0 34 10 167q7 92 10.5 334.5t-8.5 331.5q-79 -6 -100 -6q-23 0 -41 10q-47 23 -54 73.5t31 88.5q28 28 63 37.5t107 9.5q55 0 70.5 -2
t38.5 -14q80 -38 106.5 -154.5t22.5 -404.5q-3 -284 -27 -531q-7 -87 -43 -130t-113 -62z" />
    <glyph glyph-name="asciicircum" unicode="^" horiz-adv-x="634" 
d="M205 1298q66 88 162 88q24 -2 42.5 -12.5t31.5 -23t29.5 -43.5t28 -56.5t35.5 -80.5t44 -97q32 -66 32 -105.5t-32 -76.5q-38 -41 -99 -41q-24 0 -37 8q-35 17 -59.5 59t-73.5 152q-16 -24 -36 -64t-32 -60.5t-36.5 -37t-59.5 -16.5q-62 0 -81.5 49.5t12.5 122.5
q17 40 62 122t67 113z" />
    <glyph glyph-name="underscore" unicode="_" horiz-adv-x="1026" 
d="M51 150q0 42 31 73l1 1q22 20 46 25q43 9 339 11h1h1h1h1h1h1h1h1h1h1h1h1h1h1h1h1h1h1h1h1h1h1h1h1h1h1h1h1h1h1h1h1h1h1h1h1h1h1h1h1h1h1h1h1h1h1h1h1h1h1h1h1q55 0 133 1t101 1q88 0 128.5 -4t53 -10t29.5 -23q13 -13 23.5 -35t10.5 -34q0 -35 -23.5 -66.5
t-60.5 -46.5q-38 -14 -206 -14q-96 0 -223 4t-243 9t-124 5q-2 1 -11 8t-11 9t-10 8t-10.5 9.5t-8 10t-7.5 12t-5 13t-4 16t-1 17.5z" />
    <glyph glyph-name="grave" unicode="`" horiz-adv-x="622" 
d="M100 1251q-12 51 19.5 88t77.5 37q33 0 57 -16q15 -9 106 -111q106 -121 122 -141t22 -43q12 -54 -22 -91.5t-85 -37.5q-53 0 -92 39q-24 24 -110.5 134t-94.5 142z" />
    <glyph glyph-name="a" unicode="a" horiz-adv-x="700" 
d="M461 264q-3 3 -230 21q-2 -5 -9.5 -30t-9.5 -30.5t-9.5 -26t-12 -26.5t-13 -21t-16.5 -20t-19.5 -12.5t-24.5 -10t-29 -2.5q-50 0 -82.5 34.5t-32.5 88.5q0 24 81.5 254t158.5 426q19 48 56.5 89.5t82.5 41.5q31 0 58.5 -19t42.5 -54q24 -57 100 -260.5t109 -300.5
q64 -184 73.5 -235t-12.5 -91q-12 -27 -38 -42t-56 -15q-28 0 -49 12q-29 15 -46.5 44t-41.5 99q-20 64 -31 86zM305 502q0 -4 43 -4q33 0 33 2q0 7 -37 118q-39 -107 -39 -116z" />
    <glyph glyph-name="b" unicode="b" horiz-adv-x="657" 
d="M270 1016q75 -13 133 -42t92 -67t50 -83.5t12.5 -93t-25.5 -93.5l-12 -29l27 -20q61 -46 95.5 -115t16.5 -133q-14 -54 -48.5 -92.5t-116.5 -89.5q-189 -119 -279 -119q-16 0 -22 2q-71 14 -100 76t13 125q3 4 8 9q7 7 6.5 15t-9.5 61q-34 193 -70 451q-4 27 -16 43
q-23 31 -23 66.5t20.5 65.5t66.5 49.5t108 19.5q33 0 73 -6zM252 797q2 -16 13 -68.5t14 -52.5t9.5 8t11.5 16l5 7q12 17 16 27t0.5 21.5t-20.5 21t-49 20.5zM324 449q5 -20 8.5 -40t5.5 -29.5t3.5 -18t3.5 -11t5 -2.5q17 0 68 41q-35 28 -94 60z" />
    <glyph glyph-name="c" unicode="c" horiz-adv-x="696" 
d="M31 522q-1 82 31 152.5t81.5 115.5t106.5 70t110 25q47 0 82 -22.5t45 -63.5q12 -39 -14 -80q-17 -26 -43 -36t-49.5 -9.5t-52 -15t-49.5 -52.5q-15 -32 -17.5 -66.5t10.5 -60.5q18 -28 55.5 -44.5t78.5 -16.5q48 0 81 20q61 37 91 37q21 0 45 -12q67 -30 60 -101
q-8 -68 -78 -123q-78 -61 -187 -61q-92 0 -197 51q-190 97 -190 293z" />
    <glyph glyph-name="d" unicode="d" horiz-adv-x="604" 
d="M53 844q19 68 51 99.5t97 31.5q50 0 107 -22t109 -64t91.5 -95.5t56 -124.5t0.5 -143q-23 -100 -132.5 -242t-192.5 -180q-32 -14 -72 -14q-33 0 -37 4q-17 5 -49 33q-26 27 -32 49q-11 38 -11 242v80v96v73t-0.5 50t0 36.5t0.5 22t1.5 17.5t2.5 12.5t4.5 17t5.5 21.5z
M319 670q-10 18 -35 42t-30 21q-2 -2 0.5 -51t6 -120t3.5 -109q24 31 38.5 54.5t25.5 52t8.5 56t-17.5 54.5z" />
    <glyph glyph-name="e" unicode="e" horiz-adv-x="813" 
d="M72 610q6 4 8.5 60t-8.5 82q-9 19 -9 46t9 44q23 44 80 61q70 19 243 19q145 0 191 -15q39 -12 67.5 -46.5t28.5 -69.5q0 -25 -13 -50.5t-32 -35.5q-36 -23 -70 -23q-16 0 -49.5 3t-94.5 8.5t-130 8.5q0 -3 1 -7q1 -17 8 -18l7 -1q21 2 45.5 4t37.5 3t22 1q19 0 43 -12
q57 -28 57.5 -92.5t-57.5 -96.5q-18 -10 -38 -16t-35.5 -7.5t-32 -3t-26.5 -1.5t-18 -3.5t-8 -9.5t4 -18q10 -23 88.5 -35t171.5 -12q61 0 99 6q3 0 9 1t9 1q54 0 84.5 -33t27 -78t-37.5 -79q-29 -30 -65 -40t-116 -12h-28q-112 0 -197 16t-133 42t-79.5 57.5t-43 65
t-16.5 61.5t-8 49.5t-9 26.5q-21 18 -23.5 57t15.5 66q15 23 21 26z" />
    <glyph glyph-name="f" unicode="f" horiz-adv-x="718" 
d="M555 567q-10 -49 -49 -73q-21 -13 -112.5 -17.5t-100.5 -7.5l-1 -1q-7 -2 -7 -15q0 -6 2 -31q5 -72 8 -146q6 -125 2.5 -159t-25.5 -62q-27 -41 -86 -41q-40 0 -71.5 26t-42.5 77q-3 12 -8 84.5t-11 208.5t-10 292l-18 15q-37 30 -39.5 80t32.5 90q21 26 29 45
q13 27 38.5 43t53.5 16q21 0 31 -4q12 -4 16 -4q17 0 66 14q184 52 287 52q17 0 47 -5q59 -11 94.5 -46t40 -74t-17 -74.5t-64.5 -48.5q-12 -4 -31 -4q-9 0 -34 7t-56 7q-25 0 -41 -2q-31 -3 -72.5 -9.5t-88 -15t-58.5 -10.5q1 -13 4.5 -43.5t3.5 -36.5t6 -6q8 0 35 6
q41 8 101 8q43 0 61 -6q38 -13 65 -54t21 -75z" />
    <glyph glyph-name="g" unicode="g" horiz-adv-x="704" 
d="M362 729q-31 0 -70.5 -60t-39.5 -94v-22q1 0 2.5 2t5 7t6.5 9q17 27 47.5 42.5t65.5 15.5q19 0 61 -12t72 -25q95 -48 139 -123t32 -149t-71 -130q-86 -77 -202 -77q-82 0 -159 37.5t-137.5 113.5t-84.5 178q-30 134 21 261.5t171 199.5q74 45 152 45q103 0 143 -76
q28 -54 -1 -106.5t-87 -52.5q-28 1 -46 8.5t-20 7.5zM438 356q-2 8 -28.5 20.5t-55.5 18.5q-45 13 -47 15h-4q-10 0 24 -30q19 -15 31 -22q16 -8 54 -8q26 0 26 6z" />
    <glyph glyph-name="h" unicode="h" horiz-adv-x="774" 
d="M676 854q0 -16 -1.5 -29.5t-2.5 -20.5t-2 -12.5t-0.5 -8t3 -4t9.5 -3.5q18 -5 40.5 -26.5t29.5 -42.5q14 -38 -0.5 -77t-49.5 -59l-24 -12q5 -87 18 -157t11 -89q-4 -41 -35.5 -67.5t-71.5 -26.5q-34 0 -60 15t-40.5 36t-24.5 54t-13.5 57.5t-6.5 58.5q-1 19 -2.5 38.5
t-2.5 30.5l-1 11q-1 1 -30.5 -4.5t-60.5 -11.5t-32 -6q-2 -9 -0.5 -65.5t4.5 -132.5t6 -101q8 -55 0 -78q-10 -36 -41 -58t-68 -22q-22 0 -49 10q-54 25 -68 90.5t-21 262.5v10t-0.5 9.5t-0.5 10.5l-16 4q-24 5 -49 35.5t-25 56.5q0 29 22 61.5t54 51.5l22 12q0 217 1.5 252
t11.5 56q14 26 39.5 42.5t54.5 16.5q40 0 73 -33q21 -21 25 -40t10 -126q2 -21 4 -44.5t3 -36t1 -13.5q8 -4 121 25q7 2 10.5 22t7.5 47.5t13.5 55t34.5 47.5t63 22q32 0 50.5 -7.5t39.5 -31.5q11 -16 14 -25t3 -30z" />
    <glyph glyph-name="i" unicode="i" horiz-adv-x="325" 
d="M59 190q-6 22 -5.5 336t7.5 351q9 47 38 72.5t65 25.5q65 0 92 -64q7 -17 10.5 -64.5t9.5 -223.5q10 -339 9.5 -398t-11.5 -78l-2 -4q-13 -24 -41.5 -40.5t-56.5 -16.5q-39 0 -71.5 32t-43.5 72z" />
    <glyph glyph-name="j" unicode="j" horiz-adv-x="473" 
d="M379 336q-47 -71 -152 -152.5t-178 -81.5q-69 0 -104 55t-15 109q9 23 41.5 46.5t55.5 23.5q22 0 87.5 58.5t84.5 94.5q26 51 31.5 117.5t-2.5 117.5t-10 104t9 77q12 26 37 41t53 15q22 0 48 -13q30 -15 43.5 -47.5t31.5 -128.5q49 -277 -61 -436z" />
    <glyph glyph-name="k" unicode="k" horiz-adv-x="727" 
d="M272 307q2 -140 -4 -175.5t-35 -63.5q-37 -37 -79 -37q-65 0 -101 65q-10 21 -13 51t-2.5 206.5t7.5 584.5q2 4 8 16.5t8.5 16.5t8.5 14t10 14l11 11t13.5 10t16 6t20.5 4q62 0 95 -41q11 -16 14.5 -33.5t8.5 -78.5q2 -27 3 -43q189 122 256 122q38 0 64.5 -21
t33.5 -52.5t1 -64t-33 -58.5t-68 -33q-14 -3 -58 -28t-44 -31q0 -5 143 -144q119 -118 145.5 -152t26.5 -75q0 -49 -34.5 -82t-84.5 -33q-8 0 -32 4q-10 3 -84 72.5t-145 138t-73 68.5q-4 0 -4 -158z" />
    <glyph glyph-name="l" unicode="l" horiz-adv-x="638" 
d="M256 915q21 -48 25.5 -273.5t15.5 -256.5q12 -30 90 -48.5t133 -21.5q55 -4 71 -8.5t38 -19.5q49 -35 39 -97.5t-70 -93.5q-29 -16 -86 -16q-47 0 -115 14q-59 12 -99.5 24t-82 31.5t-68 45t-48.5 64t-33 89.5q-13 55 -10.5 260t-0.5 246q-9 55 25 91t82 36q66 0 94 -66z
" />
    <glyph glyph-name="m" unicode="m" horiz-adv-x="1079" 
d="M266 600q68 140 94 177q50 71 119 81q47 0 90 -23t66 -63q10 -20 14 -20q2 0 13.5 19t31.5 46t45.5 54t64 46t79.5 19q43 0 74 -13.5t50 -47t30.5 -62.5t17.5 -90.5t7.5 -98t2.5 -114.5q1 -61 2 -92q5 -202 -4 -221q-13 -33 -41 -51.5t-61 -18.5q-38 0 -70.5 25t-46.5 73
q-2 6 -5 40t-5.5 81t-4.5 91.5t-4 84.5t-2 47q-39 -113 -57 -151q-21 -40 -55 -62t-72 -22q-60 0 -102 53q-11 15 -23.5 43t-20.5 48t-12 20q-17 -48 -123 -285q-68 -135 -157 -135q-15 0 -43 8q-40 14 -64 48t-34 78.5t-14.5 112.5t-4.5 134.5t-3.5 162t-12.5 177.5
q-7 68 -5.5 90.5t13.5 46.5q28 49 86 49q23 0 47 -12q12 -6 21 -12.5t16.5 -18t12.5 -22t10 -31t8 -36.5t7 -47.5t7 -56t8.5 -69.5t9.5 -80z" />
    <glyph glyph-name="n" unicode="n" horiz-adv-x="751" 
d="M692 459q-20 -80 -64.5 -124t-105.5 -44q-40 0 -83 26.5t-66 49t-82 88.5l-6 6t-5 5.5t-6 6.5q12 -194 13 -217.5t-2 -67.5q-9 -37 -40.5 -61.5t-68.5 -24.5q-112 0 -125 172q-7 85 -9.5 336.5t3.5 270.5q10 37 37.5 58.5t60.5 21.5q34 0 63 -22.5t40 -64.5
q9 -34 116 -156t117 -122q5 0 14.5 71t10.5 117q3 67 35 101.5t77 34.5q43 0 78.5 -31t44.5 -84q5 -32 -11 -152.5t-36 -193.5z" />
    <glyph glyph-name="o" unicode="o" 
d="M555 903q39 -19 58.5 -33.5t52.5 -48.5q173 -170 90 -428q-51 -147 -141 -228t-203 -81q-17 0 -45 4q-86 12 -155.5 62t-112 123.5t-64 161t-15.5 180t37 173.5q32 83 98.5 137t137.5 54q103 0 262 -76zM270 737q-17 -21 -21 -81t5 -127t41.5 -127t81.5 -76q17 -7 29 -7
q58 0 98.5 80.5t40.5 149.5q0 39 -9.5 62t-35.5 48q-31 30 -100 57t-107 27q-17 0 -23 -6z" />
    <glyph glyph-name="p" unicode="p" horiz-adv-x="708" 
d="M266 43q-108 0 -129 158q-22 157 -26 301.5t0 288.5q-1 1 -11.5 5t-12.5 5t-11 5t-11.5 6.5t-9.5 8t-9.5 10t-7.5 11.5t-6.5 14.5t-3 17.5t-1.5 21q0 31 13.5 51.5t43.5 40.5q60 31 192 31q72 0 119 -12q111 -30 184.5 -92t95.5 -132.5t-6.5 -145t-109.5 -128.5
q-25 -17 -93 -51.5t-114 -50.5q5 -62 12.5 -130t9.5 -92t-2 -49t-18 -45q-35 -47 -88 -47zM432 737q-12 13 -52.5 35.5t-51.5 22.5q-6 0 -6.5 -13.5t2 -47.5t2.5 -58q0 -25 8 -25q5 0 53 25q47 27 53 35t-8 26z" />
    <glyph glyph-name="q" unicode="q" horiz-adv-x="761" 
d="M332 979q8 2 26 2q99 0 211.5 -104t139.5 -209q9 -33 9.5 -68.5t-7.5 -71.5t-16 -64t-24 -62t-23 -48t-21 -39q2 -3 12.5 -16.5t12.5 -16.5t9.5 -14t9.5 -15.5t6.5 -14.5t6 -16.5t3 -16t1.5 -19.5q0 -47 -31 -74.5t-73 -27.5q-29 0 -49 10q-14 5 -28.5 16.5t-34 30.5
t-21.5 21l-39 -8q-45 -9 -62 -9q-100 0 -188.5 68.5t-128.5 177.5q-10 29 -12.5 48t-4.5 73q0 102 36.5 200.5t110.5 173t169 93.5zM297 424q-37 87 -37 108q0 48 31 80.5t78 32.5q33 0 57 -22.5t35.5 -45t13.5 -22.5q2 2 2 4q6 13 5.5 32t-5.5 32q-9 26 -61 71t-72 45
q-23 0 -55.5 -55.5t-42 -125.5t34.5 -136q14 -19 18 -19q3 1 2.5 5.5t-2 10t-2.5 5.5z" />
    <glyph glyph-name="r" unicode="r" horiz-adv-x="727" 
d="M530 518q118 -64 146.5 -83t44.5 -50q23 -43 10 -82.5t-59 -62.5q-26 -13 -49 -13q-55 0 -207 88q-74 45 -78 41q-3 -3 4 -118q1 -20 2.5 -39.5t2 -30t1.5 -20.5t0.5 -15t-0.5 -9.5t-1.5 -8.5t-2.5 -6.5t-4.5 -9t-5.5 -11.5q-13 -31 -38.5 -48t-55.5 -17q-45 0 -80 32
q-45 43 -52.5 156.5t-7.5 591.5l-22 -2q-2 0 -7.5 -1t-7.5 -1q-58 0 -85.5 53.5t6.5 105.5q27 44 109.5 64t156.5 20q62 0 110 -10q91 -21 159.5 -72.5t99.5 -117t19 -142t-73 -143.5zM315 809q-1 -1 0 -35.5t2.5 -75t1.5 -49.5q84 72 84 90q0 11 -21.5 33t-41.5 29z" />
    <glyph glyph-name="s" unicode="s" horiz-adv-x="522" 
d="M514 885q0 -47 -35 -74t-82 -27q-32 0 -53 -14q-13 -9 -19.5 -16t-6.5 -17.5t4 -20.5t15 -29.5t23.5 -40.5t32.5 -57.5t39 -76.5q64 -137 40 -245t-128 -158q-100 -46 -203 -46q-135 0 -176 91q-23 53 -1.5 99.5t75.5 61.5q8 2 22 2q15 0 43 -9t50 -9q18 0 28 2
q47 11 55 16.5t5 26.5q-4 29 -22.5 68.5t-40.5 75.5t-43.5 81t-35 85.5t-12 88t22.5 91.5q32 67 112.5 116t153.5 49q53 0 95 -31.5t42 -82.5z" />
    <glyph glyph-name="t" unicode="t" horiz-adv-x="692" 
d="M170 983q226 53 365 53q174 0 174 -118q0 -24 -6.5 -42.5t-15.5 -30.5t-27 -20.5t-32.5 -12.5t-40.5 -6.5t-42.5 -3t-48 -0.5t-47.5 -1q8 -104 10 -133q5 -99 12 -194.5t11.5 -147t7.5 -101.5t3.5 -72.5t-3.5 -45t-11.5 -33.5t-21.5 -23q-33 -26 -74 -26q-16 0 -37.5 9.5
t-36.5 24.5q-46 43 -57 160t-15 463v30.5t-0.5 29t-0.5 32.5q-46 -5 -84 -24q-30 -15 -58 -15q-57 0 -86 47q-33 51 2 107q42 65 160 94z" />
    <glyph glyph-name="u" unicode="u" horiz-adv-x="647" 
d="M20 645q-4 109 6 151t46 66q28 19 57 19q32 0 58.5 -20t35.5 -52q5 -20 9 -101t19.5 -160t51.5 -124q7 -10 12 -10q6 0 23 43q21 56 35.5 212t40.5 187q34 43 86 43q66 0 104 -65q10 -20 10 -88.5t-9.5 -152.5t-35 -174.5t-61.5 -144.5q-75 -110 -186 -110
q-117 0 -206 125t-96 356z" />
    <glyph glyph-name="v" unicode="v" horiz-adv-x="774" 
d="M162 266q-61 125 -123 398q-25 114 -26.5 150t18.5 71q13 23 40 37t54 14q41 0 65 -30t31 -75q12 -72 65.5 -230.5t65.5 -180.5q4 -7 28 33q62 107 133 283q28 69 36 102q11 54 43 81t72 27q37 0 67.5 -23.5t42.5 -66.5q9 -30 3.5 -66t-29.5 -98q-32 -86 -105 -237.5
t-117 -221.5q-73 -116 -176 -116q-54 0 -104 38t-84 111z" />
    <glyph glyph-name="w" unicode="w" horiz-adv-x="870" 
d="M252 510q5 0 16 22q52 91 133 91q80 0 138 -88q27 -39 31 -40l3 3q10 26 31 174t21 149q13 34 41.5 53t62.5 19q49 0 84 -37t35 -106q0 -57 -23 -191t-45 -201q-28 -87 -72 -132.5t-126 -45.5q-37 3 -71 23t-53 42.5t-33.5 41t-16.5 18.5q-3 0 -23.5 -33.5t-61.5 -66.5
t-94 -35q-37 0 -67.5 13.5t-50.5 33.5t-36 53t-24.5 61t-14.5 69t-8.5 67t-4.5 63q-3 44 -4 70.5t-1 67.5t3.5 67t11.5 57t21 49t33.5 31t47.5 15h10q50 0 79.5 -38t17.5 -89q-5 -29 -4 -84.5t6 -110.5t8 -55z" />
    <glyph glyph-name="x" unicode="x" horiz-adv-x="778" 
d="M326 772q1 0 65 86q66 93 96.5 120.5t69.5 27.5q75 0 102 -64q8 -19 8.5 -33.5t-3.5 -27.5t-18.5 -35t-32 -46.5t-48.5 -72.5t-63 -102q228 -196 246 -224q39 -60 9 -119t-98 -59q-34 0 -68 21t-110 90q-95 84 -98 84q-6 0 -70 -118t-77 -155q-13 -35 -43.5 -60.5
t-67.5 -25.5q-15 0 -33 7q-4 1 -10 3t-21 12t-25.5 23t-18.5 37t-5 54q6 70 183 371q7 12 10 18q-9 8 -65 62t-70 65q-33 27 -42 61t3 61.5t38.5 46.5t59.5 19q24 0 51 -12q12 -5 47.5 -34t66.5 -55t32 -26z" />
    <glyph glyph-name="y" unicode="y" horiz-adv-x="731" 
d="M639 412q-19 -39 -66.5 -99.5t-106 -121.5t-123.5 -104.5t-110 -43.5q-59 0 -95 46t-29 89q7 36 31.5 60.5t45.5 31.5l21 6q11 0 67.5 57.5t106.5 115t43 57.5q-3 0 -25 -19q-78 -69 -166 -69q-91 0 -153.5 83t-69.5 247q-6 195 64 251q27 21 61 21q44 0 75.5 -30
t25.5 -77q-9 -60 -3.5 -150.5t17.5 -90.5q8 0 45.5 55.5t77.5 119.5t45 71q42 55 112 55q44 0 81.5 -33t56.5 -78q34 -81 27.5 -215.5t-56.5 -234.5z" />
    <glyph glyph-name="z" unicode="z" horiz-adv-x="720" 
d="M59 874q32 27 117 37.5t164 10.5q78 0 123 -29q57 -37 74.5 -98.5t-7.5 -139.5q-14 -45 -53.5 -107t-71.5 -105t-32 -48q0 -7 70.5 -11.5t153.5 -8t103 -8.5q37 -9 62.5 -47.5t19.5 -73.5q-22 -105 -166 -105q-107 0 -233.5 10.5t-177.5 36.5q-25 12 -50 40t-34 53
q-23 62 1.5 134t110.5 193q60 82 60 88q0 2 -53 2h-43h-47q-49 0 -72 13q-47 25 -53 76.5t34 86.5z" />
    <glyph glyph-name="braceleft" unicode="{" horiz-adv-x="626" 
d="M322 444q23 -60 31.5 -124t10 -108t7.5 -56q8 -27 42 -38.5t70 -11.5q33 0 64 -16q43 -26 51.5 -69t-16.5 -82t-70 -56q-37 -12 -72 -12q-69 0 -135.5 38t-107.5 87q-38 44 -52.5 90t-17.5 135q-3 73 -9 93.5t-32 41.5q-55 46 -55 105q0 34 18.5 62.5t44.5 48t51.5 36
t43 34.5t16.5 36t-9 57t-15 74t-7 83.5t10 91.5t41.5 92t83.5 91q102 84 189 84q49 0 81.5 -27.5t38.5 -63t-19.5 -70.5t-80.5 -48q-68 -19 -98 -75q-14 -24 -14 -63.5t8.5 -76t17 -83.5t8.5 -78q-1 -55 -28 -111.5t-68 -91.5z" />
    <glyph glyph-name="bar" unicode="|" horiz-adv-x="528" 
d="M174 -10q-9 19 -15 60t-8.5 99t-4.5 119.5t-1 140.5t2 142t3.5 143t4.5 125t4.5 107t2.5 71q3 87 5.5 105t12.5 37q28 47 84 47q37 0 67.5 -25.5t37.5 -66.5q3 -19 6.5 -235t7 -457t6.5 -298q2 -64 1 -84.5t-7 -37.5q-13 -33 -40 -51.5t-60 -18.5t-63 20t-46 58z" />
    <glyph glyph-name="braceright" unicode="}" horiz-adv-x="579" 
d="M207 1010q0 7 -33 14q-52 12 -72 61t9 93q40 63 125 63q56 0 106 -35t72 -100q14 -42 14 -99.5t-8.5 -103t-16 -91t-6.5 -62.5q1 -13 20.5 -24.5t43 -21.5t48 -31.5t34.5 -51.5q6 -19 7 -35.5t-3.5 -30.5t-10 -24.5t-16.5 -21.5t-20 -19t-22 -18q-6 -5 -9 -7
q-8 -64 -8 -145t-10.5 -134.5t-47.5 -130.5q-19 -38 -34.5 -62.5t-40 -54t-55 -44.5t-66.5 -15q-14 0 -23 2t-14.5 5t-7.5 3q-22 9 -42.5 35.5t-23.5 50.5q-5 29 3 50t22 34t36.5 42t39.5 65q20 43 24 75.5t4 137.5q0 24 0.5 40.5t3.5 33.5t4.5 25t7.5 32.5t9 38.5
q-1 1 -11 12.5t-12 14t-11 14t-12 16.5l-10.5 17.5t-10 20.5t-8 21.5t-7.5 25.5t-4 27.5t-2 31.5q0 33 12.5 95t23.5 110t9 55z" />
    <glyph glyph-name="asciitilde" unicode="~" horiz-adv-x="778" 
d="M133 371q-53 14 -71.5 65.5t2.5 115.5t75 114q56 53 119 53q36 0 74 -18.5t62 -41t44.5 -41t26.5 -18.5q13 0 59 59q34 46 90 46q61 0 91 -46q31 -46 19 -98.5t-65 -105.5q-95 -95 -188 -95q-34 0 -68 12t-57.5 28.5t-42.5 33t-29.5 26.5t-11.5 9q0 -1 -8 -29
q-10 -32 -37 -51.5t-61 -19.5q-15 0 -23 2z" />
    <glyph glyph-name="exclamdown" unicode="&#xa1;" horiz-adv-x="512" 
d="M319 4q-13 -32 -40 -49.5t-58 -17.5q-58 0 -84 47q-12 21 -13 45q-1 5 3 344q1 46 2 120q2 163 8.5 199.5t38.5 63.5q27 20 72 20q26 0 39 -8q21 -9 40.5 -35t28.5 -57q17 -63 2.5 -339t-39.5 -333zM145 950q0 56 35.5 106t89.5 50q40 0 69.5 -30.5t29.5 -78.5
q0 -53 -36 -100t-87 -47q-40 0 -70.5 28.5t-30.5 71.5z" />
    <glyph glyph-name="cent" unicode="&#xa2;" horiz-adv-x="854" 
d="M727 735q0 -41 -31.5 -72.5t-72.5 -31.5q-20 0 -45.5 14.5t-40.5 34.5q-12 20 -15 20q-4 0 2 -87q6 -104 11 -193q92 0 135 8q31 8 57 8q22 0 49 -10q41 -20 56.5 -58t-5.5 -89q-21 -40 -69.5 -62t-83 -25.5t-105.5 -6.5q-12 -1 -18 -1l-4 -34q-3 -33 -15 -57.5
t-29 -37.5t-34.5 -18.5t-36.5 -5.5q-109 0 -123 180q-94 23 -138 47q-36 20 -65 49q-93 92 -79 227.5t129 258.5q34 39 137 104q7 4 10.5 9t4.5 9.5t3 17t6 25.5q12 38 41.5 60t63.5 22q35 0 62 -22t36 -62q3 -16 24.5 -23.5t58.5 -24.5t67 -52q19 -22 38 -62t19 -59z
M293 582q-3 2 -11 -10q-23 -40 -20 -76q2 -17 12 -25q13 -10 19 -10q5 0 5 59.5t-5 61.5z" />
    <glyph glyph-name="sterling" unicode="&#xa3;" horiz-adv-x="747" 
d="M612 694q9 -18 9.5 -46.5t-7.5 -43.5q-25 -45 -77 -61q-25 -7 -29.5 -18t-7.5 -66q-4 -62 -20 -121t-26.5 -86.5t-7.5 -28.5q1 -2 62 -12.5t131.5 -23t87.5 -17.5q57 -17 83.5 -60t14.5 -87.5t-55 -65.5q-27 -12 -68 -12q-50 0 -206 30.5t-240 30.5h-29q-23 -2 -51 -2
q-30 0 -49 12q-61 27 -64 97q-2 33 8 55.5t28 37t40.5 28.5t45 36t41 52.5t30.5 85t12 127.5h-41q-72 0 -98 4t-45 22q-35 34 -35.5 77t33.5 75q5 5 11.5 9.5t12.5 7.5t15 6l15 5t18 3.5t18.5 2.5t21.5 2t22 1.5t25.5 1.5t26.5 2q0 75 2.5 126.5t16.5 124.5t41 128
q54 110 135 110q41 0 71.5 -28t33.5 -66.5t-29 -79.5q-20 -26 -29 -64.5t-12 -115.5q-3 -108 4 -121q4 -9 27 -13q2 -1 3 -1q55 -13 80 -60z" />
    <glyph glyph-name="currency" unicode="&#xa4;" horiz-adv-x="987" 
d="M655 883q73 55 96 72t53 31.5t56 14.5q82 0 103 -69q9 -25 5 -47t-15.5 -40.5t-31.5 -35.5t-41 -31.5t-45 -29.5q-4 -2 -6 -3.5t-5.5 -3.5t-6.5 -4q44 -83 39 -159q-12 -110 -90 -211q28 -21 46 -36t39.5 -38.5t30 -44t8 -46.5t-15.5 -52q-31 -46 -92 -46q-24 0 -26 5
q-19 5 -45 24t-44 35t-66 62q-11 11 -17 16q-85 -23 -131 -23q-17 0 -113 17q-18 -26 -26.5 -37.5t-25 -28t-33.5 -23t-38 -6.5q-42 0 -73 32t-31 75q0 10 2 20t6.5 21t8.5 19t11 19t10 15.5t10 14t7 10.5q-33 71 -43.5 122t2 119t55.5 160q-6 9 -18.5 28t-16.5 25
t-11.5 19.5t-9.5 21t-4.5 18.5t-2.5 23q0 42 30.5 73.5t71.5 31.5q57 0 111 -84q60 24 119 24q16 0 30.5 -1.5t31.5 -6.5t27 -7.5t30 -12t26.5 -12t30.5 -15t28 -14.5zM375 659q-19 -39 -22 -83t12 -72q21 -43 81 -43q32 0 70 12q44 13 78.5 58.5t23.5 76.5q-11 25 -82 69
t-102 44q-18 0 -28 -10.5t-31 -51.5z" />
    <glyph glyph-name="yen" unicode="&#xa5;" horiz-adv-x="835" 
d="M711 354q-25 -7 -30 -11.5t-5 -16.5q2 -11 6 -15.5t16 -7.5q20 -6 44 -30t30 -46q13 -41 -12.5 -81t-71.5 -52q-27 -8 -131 -8q-41 0 -47 2q0 5 -76 12q-107 8 -137 54q-19 31 -16 63.5t26 58.5q23 25 55.5 32t54 6.5t23.5 9.5q0 7 -3 8.5t-21 1.5q-60 0 -90 39.5t-20 86
t52 66.5q39 13 62 17q38 6 43.5 12t5.5 35l-35 -15q-46 -18 -92 -18q-69 0 -129 43t-98 121q-31 61 -52 159t-12 134q22 80 96 80q56 0 78.5 -28t34.5 -89q15 -74 40 -130.5t42 -53.5q18 3 104 168q38 74 54.5 96t44.5 35q27 12 55 12q43 0 77 -28t44 -79q9 -40 4 -188
t-18 -221q-2 -13 0 -17.5t12 -7.5q54 -20 73 -64t-3.5 -86.5t-77.5 -58.5z" />
    <glyph glyph-name="brokenbar" unicode="&#xa6;" horiz-adv-x="425" 
d="M307 610q-27 -18 -71 -18q-30 0 -56 22t-39 52q-3 5 -7 13q-7 13 -8.5 27.5t-1.5 111.5q-1 62 -1 104q-1 182 3 222.5t28 67.5q30 37 75 37q38 0 68.5 -29t34.5 -75q22 -311 22 -408q0 -55 -9.5 -80t-37.5 -47zM143 520q34 43 84 43q61 0 88 -55q12 -21 27 -168
q5 -52 14.5 -122t14 -110t2.5 -59q-4 -45 -35.5 -71.5t-71.5 -26.5q-41 0 -74.5 27t-44.5 81q-22 94 -22 439z" />
    <glyph glyph-name="section" unicode="&#xa7;" horiz-adv-x="782" 
d="M655 332q64 -100 12 -205.5t-184 -146.5q-134 -43 -254 -43q-34 0 -55 6l-6 2q-6 2 -15.5 6.5t-21 10.5t-24 17t-21.5 25q-15 22 -17 51.5t8 56.5t36.5 45.5t64.5 18.5q90 0 147 7t121 34q-24 19 -140 87.5t-161 117.5q-54 60 -52.5 134t57.5 146l18 27q-16 47 -18 58
t2 44q13 75 78.5 139.5t148.5 99t158 34.5q46 0 86 -19q46 -23 58 -72.5t-19 -84.5q-16 -17 -32 -25.5t-26.5 -10t-30.5 -1.5q-40 0 -84.5 -13.5t-68.5 -37.5q-9 -8 11.5 -17.5t59 -26t79 -40t75.5 -66.5t45 -98q13 -66 -46 -222l-2 -4t-1.5 -4t-1.5 -4zM356 602
q-12 3 -26 -14t-6 -25q7 -8 60 -36.5t56 -26.5q3 3 9.5 26t3.5 27q-1 4 -39 22.5t-58 26.5z" />
    <glyph glyph-name="dieresis" unicode="&#xa8;" horiz-adv-x="643" 
d="M92 1161q14 35 46.5 59.5t68.5 24.5q47 0 78 -35t24 -84q-9 -49 -45 -81.5t-86 -32.5q-37 0 -37 6q-40 19 -54 60.5t5 82.5zM563 1174q36 -73 -8 -123q-36 -39 -82 -39q-10 0 -20 2t-14.5 3.5t-4.5 0.5q-64 23 -71 86.5t49 101.5q28 19 61 19q30 0 55 -13.5t35 -37.5z
" />
    <glyph glyph-name="copyright" unicode="&#xa9;" horiz-adv-x="1269" 
d="M561 -12q-117 18 -213 71.5t-158.5 128t-99 167t-42 188.5t20.5 192t80 178t145 146t208 96q42 12 131 12q145 0 268.5 -62.5t201 -162t110.5 -229t6 -258.5q-29 -143 -119.5 -252.5t-210 -165t-248.5 -55.5q-39 0 -80 6zM889 322q66 65 90.5 151.5t9 167.5t-69.5 153
t-137 109q-70 33 -145 33q-81 0 -155 -36t-122 -97.5t-69.5 -142t2.5 -168.5q32 -123 131 -199t219 -76q138 0 246 105zM698 524q76 33 109 33q9 0 29 -4q51 -13 72.5 -63t-3.5 -97q-27 -51 -135 -96t-174 -45q-73 0 -132 51t-77 125q-6 28 -4.5 86.5t8.5 89.5q18 86 78 167
t137 112q28 8 56 8q136 0 198 -131q26 -54 20.5 -90.5t-42.5 -67.5q-21 -16 -56 -16q-36 0 -61 19t-36 38t-13 19q-6 0 -19 -21.5t-25 -57t-12 -65.5q0 -24 9 -24q5 0 73 30z" />
    <glyph glyph-name="ordfeminine" unicode="&#xaa;" horiz-adv-x="800" 
d="M233 1427q43 78 113 78q40 0 79 -20.5t62 -52.5q12 -15 109 -183t117 -209q67 -128 4 -196q-30 -37 -96 -37q-34 8 -59.5 33t-36.5 50.5t-21 48t-17 24.5q-4 4 -73 -15q-20 -4 -38 -8t-29 -6t-21 -3.5t-14.5 -2.5t-9 -2.5t-6 -3t-3 -3.5t-2.5 -6q-6 -24 -11 -39.5
t-16 -37.5t-23.5 -35t-33 -22.5t-45.5 -8.5q-25 0 -45 8q-56 31 -63 86.5t32 171.5q30 88 81 224.5t66 166.5zM383 1182l-6 10q-3 0 -6 -18q-3 -15 2 -15q1 0 2 0.5t3.5 1.5t4.5 2q8 5 0 19z" />
    <glyph glyph-name="guillemotleft" unicode="&#xab;" horiz-adv-x="1079" 
d="M526 793q-20 -13 -102 -90.5t-150 -149.5q42 -63 92 -116t85 -83t65 -58t42 -56t5 -62q-9 -38 -41.5 -62t-72.5 -24q-51 0 -139 73.5t-159 159t-94 134.5q-15 33 -19 65t-1 57.5t20 56t31 50t45 49.5t49 46t55 47q22 19 33 28q92 79 131 104t70 25h10q44 -3 72.5 -35.5
t23.5 -78.5t-51 -80zM475 459q-12 25 -17 49.5t-6 45t8 44.5l15 40t25 40t29 36.5t36.5 37.5t38 35t42 36t40.5 35q93 79 132.5 104t70.5 25h10q44 -3 72.5 -35.5t23 -78.5t-52.5 -80q-21 -15 -103.5 -93t-146.5 -147q42 -63 91.5 -116t84.5 -83t65 -58t41.5 -56t4.5 -62
q-7 -37 -40.5 -61.5t-72.5 -24.5q-51 0 -139 74t-158.5 159t-93.5 134z" />
    <glyph glyph-name="logicalnot" unicode="&#xac;" horiz-adv-x="731" 
d="M326 272q-3 10 -4.5 19t0 19.5t2 17.5t5.5 19t7 17.5t10 19.5t11 19t13 21.5t13 21.5q-207 6 -238 12t-49 23q-37 35 -35 81t43 77q43 33 330 33q69 0 102 -6.5t58 -24.5q27 -17 43 -47t16 -62q0 -82 -60.5 -192t-119.5 -135q-24 -8 -51 -8q-35 0 -61 20t-35 55z" />
    <glyph glyph-name="registered" unicode="&#xae;" horiz-adv-x="1449" 
d="M850 1460q195 -41 331.5 -161.5t190.5 -297.5q21 -66 21 -148.5t-23 -147.5q-43 -140 -141.5 -241t-223 -149.5t-262.5 -48.5q-122 0 -234.5 37.5t-210.5 117.5t-159 195q-52 98 -65 202.5t10.5 197.5t79 176.5t135 144t184.5 96.5t222 37q101 0 145 -10zM748 500
q134 0 249.5 74t149.5 198q31 120 -30.5 237t-186.5 177q-99 51 -221 51q-185 0 -306 -121q-60 -60 -84 -132t-13.5 -139t48.5 -130.5t96 -110.5t136 -75.5t162 -28.5zM934 874q-16 -32 -16 -40l32 -17q50 -23 71 -62.5t12.5 -75t-39.5 -61.5t-74 -26q-31 0 -185 61
q-30 12 -47 19q-55 -41 -94 -41q-40 0 -70 29t-43 71q-9 32 -22 98t-13 86q0 8 -9.5 32t-15 45t8.5 55t53 67q47 42 110 66t124 24q41 0 76 -12q60 -21 98.5 -62t51 -87.5t10 -90.5t-18.5 -78zM657 950q0 -18 5 -18t34 20q25 17 25 23q0 8 -16 8q-23 0 -35 -6.5t-13 -26.5z
" />
    <glyph glyph-name="macron" unicode="&#xaf;" horiz-adv-x="630" 
d="M104 1061q-10 10 -16.5 38.5t-3.5 47.5q6 28 31 51t55 27q36 4 170 4q82 0 94 -2q69 -6 98.5 -57.5t-4.5 -102.5q-22 -31 -54 -43t-97 -12q-232 0 -256 32q-1 0 -3 1.5t-14 15.5z" />
    <glyph glyph-name="degree" unicode="&#xb0;" horiz-adv-x="620" 
d="M111 1106q9 36 6 55q-7 42 26.5 78.5t94.5 36.5q87 0 182.5 -78t128.5 -162q26 -63 17 -136.5t-37 -136.5t-82 -105t-117 -42q-25 0 -62 11q-71 23 -119 86t-62.5 162.5t24.5 230.5zM332 821q12 0 20 38t8 56q3 46 -5 62t-56 62l-14 14q-9 -55 -7.5 -105.5t7.5 -66.5
q4 -20 21 -41.5t26 -18.5z" />
    <glyph glyph-name="plusminus" unicode="&#xb1;" horiz-adv-x="823" 
d="M653 813q47 -51 26.5 -108t-95.5 -72q-26 -4 -30.5 -7.5t-2.5 -17.5q15 -85 4 -127q-9 -36 -41 -60t-68 -24t-61 17t-37 47.5t-17 58.5t-7 64q-4 67 -9 67q-22 2 -63.5 9.5t-50.5 11.5q-34 17 -47 59t4 76q35 61 141 61l23 -2v26v25.5t0.5 20.5t2.5 21l5 17.5t8 18
t12 15.5q34 37 80 37q19 0 45 -11q32 -17 45 -48.5t12 -59.5t3 -49t20 -21q22 0 52.5 -14t45.5 -31zM588 406q56 0 89 -29.5t35 -67.5t-27 -75.5t-85 -51.5q-21 -5 -189 -20t-200 -15q-41 0 -68.5 26.5t-32.5 61t17 68.5t70 47q31 10 193 33t198 23z" />
    <glyph glyph-name="twosuperior" unicode="&#xb2;" horiz-adv-x="759" 
d="M299 1495q71 0 129.5 -32.5t95.5 -92.5q14 -26 27.5 -71.5t13.5 -69.5q0 -50 -21.5 -107t-43.5 -94l-21 -37q0 -3 28 -7t62 -10t64.5 -33t34.5 -71q3 -59 -33 -90q-15 -14 -46 -27t-44 -12q-98 14 -154 27q-99 17 -136 31.5t-60 44.5q-54 69 -11 147q11 22 43 63.5
t58.5 75t42 71.5t2.5 61q-3 10 -15 10q-2 0 -7.5 -1t-8.5 -1q-42 0 -78 21.5t-43 60.5q-15 85 68 129q23 14 53 14z" />
    <glyph glyph-name="threesuperior" unicode="&#xb3;" horiz-adv-x="602" 
d="M154 1147q6 18 17.5 33.5t45.5 50.5q54 51 51 51q-5 0 -28 -18q-36 -25 -66 -25q-33 0 -59 20t-37.5 49.5t1.5 67t52 68.5q66 55 164 55q93 0 159.5 -56t65.5 -151q0 -37 -12 -68.5t-22 -45t-42 -54.5q20 -18 31.5 -29.5t31.5 -46.5t25 -71q7 -64 -32 -125
q-33 -51 -107 -108.5t-127 -57.5q-57 0 -94.5 42t-28.5 93q4 35 27.5 63t54.5 36q13 3 47 30l-28 15q-60 31 -83.5 78.5t-6.5 103.5z" />
    <glyph glyph-name="acute" unicode="&#xb4;" horiz-adv-x="655" 
d="M322 1012q-44 -27 -84 -27q-54 0 -85 38t-20 91q6 23 22 41.5t35 32t64.5 44.5t85.5 62t58 40t40 9q40 0 70 -27.5t31 -66.5q3 -40 -24.5 -76t-111.5 -102q-41 -31 -81 -59z" />
    <glyph glyph-name="mu" unicode="&#xb5;" horiz-adv-x="866" 
d="M272 844q0 -24 38.5 -94t51.5 -70q21 0 87 129q40 76 68.5 109.5t60.5 42.5q20 4 32 4q62 0 101 -45q29 -33 41.5 -93.5t21.5 -203.5q19 -302 17 -314q-10 -42 -42 -68t-71 -26q-36 0 -68.5 25t-44.5 61q-4 14 -8.5 64t-7.5 98t-4 51q-2 6 -16.5 -6.5t-52.5 -34
t-85 -29.5q-12 -2 -31 -2q-16 0 -71 15q2 -180 1.5 -230t-7.5 -69q-15 -33 -43.5 -52.5t-61.5 -19.5q-71 0 -110 82q-7 19 -8 124t1 597l17 22q27 43 82 43q41 0 76.5 -35t35.5 -75z" />
    <glyph glyph-name="paragraph" unicode="&#xb6;" horiz-adv-x="1101" 
d="M1124 1061q-12 -49 -44 -65.5t-81 -16.5q-8 0 -26 1t-27 1q17 -329 18.5 -470t-7 -180.5t-35.5 -66.5q-35 -35 -78 -35q-63 0 -99 64q-18 36 -19 247t5 439l-78 -4q1 -83 9 -234.5t8 -351.5v-99q0 -101 -1 -119.5t-8 -30.5q-4 -6 -6 -11q-15 -30 -43 -48t-59 -18
q-63 0 -100 66q-8 16 -11 48.5t-4 150.5l-4 178h-59q-89 0 -162 34.5t-114 91.5t-57.5 124t3 138t70.5 128q47 52 116.5 89t137.5 56.5t159 30.5t157 13.5t155 2.5q102 0 132.5 -1.5t49.5 -8.5q57 -17 85.5 -57t16.5 -86zM301 879q-37 -35 -29 -80q2 -13 6 -23t12 -17.5
t13.5 -13t18.5 -9t19 -5.5t23 -3t22.5 -1.5t26 -1t25.5 -0.5v219q-40 -10 -80.5 -30t-56.5 -35z" />
    <glyph glyph-name="periodcentered" unicode="&#xb7;" horiz-adv-x="423" 
d="M84 492q-19 35 -5 91.5t48 82.5q21 18 63 18q39 0 58 -16q26 -19 41 -67t6 -85q-10 -40 -41.5 -64t-69.5 -24q-64 0 -100 64z" />
    <glyph glyph-name="cedilla" unicode="&#xb8;" horiz-adv-x="608" 
d="M115 109q27 53 90 53q38 0 67 -27t33 -78l2 -37l33 -8q118 -32 172 -129.5t4 -189.5q-25 -45 -97 -94.5t-124 -49.5q-45 0 -79 26.5t-40 68.5q-4 27 2 50t19 37.5t28 26.5t28.5 18.5t21.5 11t6 7.5q-2 4 -28.5 8t-60 12t-49.5 21q-45 31 -51 94q-3 37 5 98.5t18 80.5z
" />
    <glyph glyph-name="onesuperior" unicode="&#xb9;" horiz-adv-x="382" 
d="M156 772q-54 31 -64 95t-11 337q0 123 -1 199l16 24q31 48 86 48q27 0 52 -15.5t38 -42.5q13 -24 22 -125.5t16 -227t12 -165.5q7 -61 -28.5 -101t-84.5 -40q-31 0 -53 14z" />
    <glyph glyph-name="ordmasculine" unicode="&#xba;" 
d="M104 1075q-27 94 10.5 199t108.5 162q5 4 28 24t34.5 27.5t34 16.5t45.5 9q70 0 168 -75.5t133 -143.5q45 -82 35 -161t-52.5 -140.5t-113.5 -99t-148 -37.5q-98 0 -175.5 61t-107.5 158zM338 1241q-28 -60 -12 -103.5t61 -43.5q16 0 39 10q33 15 39.5 37.5t-8.5 44
t-36 41t-38.5 31.5t-20.5 12q-10 0 -24 -29z" />
    <glyph glyph-name="guillemotright" unicode="&#xbb;" horiz-adv-x="1079" 
d="M584 1001h10q32 0 71 -25.5t132 -105.5q10 -8 41 -34.5t42 -36t38 -34t37 -37t29 -36.5t25 -40l15 -40t7.5 -44t-6.5 -45t-17 -50q-40 -85 -178 -227t-214 -142q-40 0 -72.5 25.5t-39.5 63.5q-7 34 4.5 61.5t41.5 55.5t65.5 57.5t85.5 83t92 116.5q-68 72 -150 149.5
t-102 90.5q-47 33 -52 78.5t23.5 78.5t71.5 37zM381 870q8 -7 41 -34.5t42 -36t37 -34.5t37 -37t29 -36t25.5 -40t14.5 -39.5t7.5 -44.5t-6 -45t-16.5 -50q-17 -36 -64 -97t-104.5 -122t-120 -105.5t-102.5 -44.5t-73 25.5t-40 63.5q-7 34 4.5 61.5t41.5 55.5t65 57.5
t84.5 83t91.5 116.5q-64 69 -146.5 147t-103.5 93q-47 33 -52.5 78.5t23 78.5t72.5 37h10q30 0 69 -25t134 -106z" />
    <glyph glyph-name="onequarter" unicode="&#xbc;" horiz-adv-x="1316" 
d="M631 631q-133 -291 -206 -434t-94.5 -169t-41.5 -26q-44 0 -77 34t-32 91q0 66 109.5 314t167.5 362q135 252 209 378t92 146.5t33 20.5q49 0 80 -41t18 -95q-2 -6 -45 -102t-108 -241t-105 -238zM1061 47q-32 17 -50.5 61t-15.5 97l2 26q-19 4 -45.5 9.5t-38 7.5
t-29.5 6t-25.5 6t-19.5 5t-17.5 5.5t-14.5 5.5t-16 6.5t-15 8.5q-64 31 -90.5 90.5t-7.5 128.5q7 33 38 102t46 90q35 41 84 41q48 0 76 -32q26 -28 26.5 -59t-24.5 -95q-26 -67 -21 -72q6 -3 60.5 -10.5t56.5 -5.5q1 2 6.5 41t14 85t16.5 62q15 30 40 46t54 16q64 0 90 -57
q12 -27 12 -36t-8 -118q-7 -80 -9.5 -178.5t-4.5 -155.5t-8 -72q-15 -31 -43 -49t-62 -18q-36 0 -57 12zM152 662q-52 30 -62 94t-11 335q0 126 -1 203l14 23q28 47 86 47q63 0 92 -57q13 -24 21.5 -124.5t15 -229t10.5 -165.5q7 -61 -28 -101t-84 -40q-29 0 -53 15z" />
    <glyph glyph-name="onehalf" unicode="&#xbd;" horiz-adv-x="1179" 
d="M575 631q-131 -291 -203.5 -434t-94 -169t-41.5 -26q-44 0 -77.5 34t-33.5 91q1 66 111.5 316t166.5 360q84 157 142.5 262.5t91.5 161.5t54.5 83.5t29 32.5t16.5 5q47 0 78.5 -41t18.5 -95q-2 -7 -44.5 -102t-109 -242t-105.5 -237zM786 766q69 0 128 -32.5t96 -92.5
q14 -26 27.5 -71.5t13.5 -69.5q0 -32 -8.5 -68t-21 -64.5t-25 -52t-21 -38t-8.5 -15.5q0 -4 27.5 -7.5t61.5 -10t64 -33.5t33 -70q5 -56 -33 -92q-15 -13 -45.5 -26t-42.5 -11q-15 2 -78 12.5t-77 12.5q-99 19 -135.5 33t-59.5 43q-52 70 -12 149q11 22 43 63t58.5 74.5
t42 71.5t3.5 61q-6 9 -20 9h-13q-2 0 -6 -1t-6 -1q-35 0 -67.5 25t-40.5 57q-15 88 67 131q27 14 55 14zM150 662q-24 14 -36.5 28.5t-21.5 40t-11.5 73.5t-3.5 115t-1 177v198l14 23q28 47 86 47q61 0 90 -57q13 -24 22 -125t15.5 -227t11.5 -167q7 -61 -28 -101t-84 -40
q-29 0 -53 15z" />
    <glyph glyph-name="threequarters" unicode="&#xbe;" horiz-adv-x="1339" 
d="M707 631q-81 -179 -138.5 -300t-91 -186t-56.5 -97.5t-32.5 -39t-21.5 -6.5q-44 0 -77.5 34t-33.5 91q1 66 111.5 315t167.5 361q136 255 208.5 379t91 145t33.5 21q47 0 78.5 -41t18.5 -95q-2 -7 -44 -101.5t-108.5 -243t-105.5 -236.5zM195 1176q-36 -25 -68 -25
q-43 0 -73.5 32.5t-25 82.5t57.5 90q66 55 164 55q92 0 158.5 -56t66.5 -151q-1 -36 -12 -66.5t-23 -47.5t-41 -54q20 -18 31.5 -29.5t31.5 -46.5t25 -71q7 -65 -32 -123q-31 -50 -106.5 -108t-129.5 -58q-55 0 -93 41t-30 92q6 36 29.5 63t54.5 35q14 5 47 31l-28 15
q-60 31 -84.5 79t-5.5 103q6 18 17.5 33.5t45.5 50.5q54 51 51 51q-5 0 -28 -18zM827 702q35 41 84 41q46 0 74 -32q27 -28 27.5 -58.5t-25.5 -95.5q-26 -67 -18 -72q4 -3 58 -10.5t56 -5.5t7.5 41t14 85t17.5 62q15 30 40.5 46t54.5 16q62 0 88 -57q2 -4 5 -9.5t4 -8
t2.5 -6t1 -8t0 -10t-1 -16t-2 -22t-2.5 -32t-3 -42.5q-6 -77 -9 -178t-5.5 -157t-8.5 -71q-13 -32 -41.5 -49.5t-62.5 -17.5q-35 0 -56 12q-33 17 -51.5 61t-15.5 97l2 26q-19 4 -45.5 9.5t-38 7.5t-29.5 6t-25.5 6t-19.5 5t-17.5 5.5t-14.5 5.5t-16 6.5t-15 8.5
q-63 31 -90.5 90.5t-8.5 128.5q9 35 40 104t46 88z" />
    <glyph glyph-name="questiondown" unicode="&#xbf;" horiz-adv-x="780" 
d="M305 113q78 0 151.5 45t73.5 118q0 46 30 77.5t71 31.5q26 0 55 -16q55 -32 56 -109t-48.5 -162.5t-130.5 -140.5q-121 -80 -254 -80q-111 0 -193 57t-102 160q-12 72 26 154t134 192q227 265 240 275q32 28 75 28q46 0 80.5 -32t34.5 -80q0 -31 -25.5 -70.5
t-109.5 -136.5q-168 -191 -199 -240q-36 -55 -1 -67q13 -4 36 -4zM582 891q-15 -20 -40.5 -33.5t-47.5 -13.5q-34 0 -64.5 25t-36.5 59q-9 48 28 88.5t85 40.5q21 0 37 -8q43 -20 55.5 -70.5t-16.5 -87.5z" />
    <glyph glyph-name="Agrave" unicode="&#xc0;" horiz-adv-x="704" 
d="M569 -39q-34 17 -52 53t-56 162q-8 26 -16.5 50t-14.5 38t-8 15q-5 2 -83.5 -23.5t-88.5 -32.5q-6 -3 -17 -61q-6 -45 -16.5 -67.5t-34.5 -43.5q-21 -14 -65 -14q-30 0 -40.5 2.5t-25.5 13.5q-52 43 -49 113q1 99 81.5 461t113.5 458q32 86 104 86q41 0 71.5 -26.5
t30.5 -65.5q0 -12 21.5 -68.5t65.5 -175.5t83 -237q10 -33 17 -43t22 -18q40 -23 53.5 -64t-6.5 -78l-14 -26q84 -248 84 -301q0 -50 -31 -85.5t-75 -35.5q-29 0 -54 14zM-2 1505q-12 51 19 88t77 37q34 0 58 -16q15 -9 106 -111q104 -118 120.5 -139.5t22.5 -44.5
q12 -54 -21.5 -91.5t-84.5 -37.5q-53 0 -92 39q-24 24 -110.5 134t-94.5 142zM336 489l20 11q0 5 -16.5 63t-17.5 58q-1 2 -7.5 -28.5t-14.5 -67.5t-9 -42q-4 -8 4 -8q6 0 41 14z" />
    <glyph glyph-name="Aacute" unicode="&#xc1;" horiz-adv-x="704" 
d="M569 -39q-34 17 -52 53t-56 162q-8 26 -16.5 50t-14.5 38t-8 15q-5 2 -83.5 -23.5t-88.5 -32.5q-6 -3 -17 -61q-6 -45 -16.5 -67.5t-34.5 -43.5q-21 -14 -65 -14q-30 0 -40.5 2.5t-25.5 13.5q-52 43 -49 113q1 99 81.5 461t113.5 458q32 86 104 86q41 0 71.5 -26.5
t30.5 -65.5q0 -12 21.5 -68.5t65.5 -175.5t83 -237q10 -33 17 -43t22 -18q40 -23 53.5 -64t-6.5 -78l-14 -26q84 -248 84 -301q0 -50 -31 -85.5t-75 -35.5q-29 0 -54 14zM623 1456q3 -40 -24.5 -76t-111.5 -102q-41 -31 -81 -59q-44 -27 -84 -27q-54 0 -85 38t-20 91
q6 23 22 41.5t35 32t64.5 44.5t85.5 62t58 40t40 9q40 0 70 -27.5t31 -66.5zM291 483q-4 -8 4 -8q6 0 41 14l20 11q0 5 -16.5 63t-17.5 58q-1 2 -7.5 -28.5t-14.5 -67.5t-9 -42z" />
    <glyph glyph-name="Acircumflex" unicode="&#xc2;" horiz-adv-x="704" 
d="M461 176q-8 26 -16.5 50t-14.5 38t-8 15q-5 2 -83.5 -23.5t-88.5 -32.5q-6 -3 -17 -61q-6 -45 -16.5 -67.5t-34.5 -43.5q-21 -14 -65 -14q-30 0 -40.5 2.5t-25.5 13.5q-52 43 -49 113q1 99 81.5 461t113.5 458q32 86 104 86q41 0 71.5 -26.5t30.5 -65.5q0 -12 21.5 -68.5
t65.5 -175.5t83 -237q10 -33 17 -43t22 -18q40 -23 53.5 -64t-6.5 -78l-14 -26q84 -248 84 -301q0 -50 -31 -85.5t-75 -35.5q-29 0 -54 14q-34 17 -52 53t-56 162zM590 1249q3 -51 -25.5 -78.5t-70.5 -27.5q-39 0 -66 24q-10 9 -19 21t-17.5 27t-31.5 52.5t-53 82.5
q-87 -141 -111 -169q-22 -25 -46 -38q-17 -10 -48 -10q-41 0 -75 27.5t-41 70.5q-2 11 -2 20.5t1.5 19t7.5 22t12 24t18 30.5t23.5 37.5t30 49t36.5 59.5q22 37 34.5 55t37 46.5t51.5 41.5t59 13l33 -4q38 -12 67.5 -45t89.5 -132q61 -100 74 -129q20 -35 25.5 -51.5
t5.5 -38.5zM336 489l20 11q0 5 -16.5 63t-17.5 58q-1 2 -7.5 -28.5t-14.5 -67.5t-9 -42q-4 -8 4 -8q6 0 41 14z" />
    <glyph glyph-name="Atilde" unicode="&#xc3;" horiz-adv-x="704" 
d="M461 176q-8 26 -16.5 50t-14.5 38t-8 15q-5 2 -83.5 -23.5t-88.5 -32.5q-6 -3 -17 -61q-6 -45 -16.5 -67.5t-34.5 -43.5q-21 -14 -65 -14q-30 0 -40.5 2.5t-25.5 13.5q-52 43 -49 113q1 99 81.5 461t113.5 458q32 86 104 86q41 0 71.5 -26.5t30.5 -65.5q0 -12 21.5 -68.5
t65.5 -175.5t83 -237q10 -33 17 -43t22 -18q40 -23 53.5 -64t-6.5 -78l-14 -26q84 -248 84 -301q0 -50 -31 -85.5t-75 -35.5q-29 0 -54 14q-34 17 -52 53t-56 162zM432 1409q10 21 18 43t13.5 33t17.5 26q35 41 82 41q36 0 67.5 -25.5t43.5 -68.5q15 -54 -18.5 -126
t-95.5 -123.5t-120 -51.5q-60 0 -108 33.5t-139 123.5l-17 17l-10 -22q-7 -17 -7 -51.5t-9 -62.5t-39 -46q-27 -16 -60 -16q-40 0 -69 28.5t-35 55.5q-17 63 16 163q35 105 81 153t112 48q16 0 32.5 -3t30 -7t31 -13.5t28 -15t28.5 -19.5t26 -20t27 -23.5t24.5 -23t25.5 -25
t23 -22.5zM336 489l20 11q0 5 -16.5 63t-17.5 58q-1 2 -7.5 -28.5t-14.5 -67.5t-9 -42q-4 -8 4 -8q6 0 41 14z" />
    <glyph glyph-name="Adieresis" unicode="&#xc4;" horiz-adv-x="704" 
d="M461 176q-8 26 -16.5 50t-14.5 38t-8 15q-5 2 -83.5 -23.5t-88.5 -32.5q-6 -3 -17 -61q-6 -45 -16.5 -67.5t-34.5 -43.5q-21 -14 -65 -14q-30 0 -40.5 2.5t-25.5 13.5q-52 43 -49 113q1 99 81.5 461t113.5 458q32 86 104 86q41 0 71.5 -26.5t30.5 -65.5q0 -12 21.5 -68.5
t65.5 -175.5t83 -237q10 -33 17 -43t22 -18q40 -23 53.5 -64t-6.5 -78l-14 -26q84 -248 84 -301q0 -50 -31 -85.5t-75 -35.5q-29 0 -54 14q-34 17 -52 53t-56 162zM113 1174q-40 19 -54.5 60.5t4.5 82.5q14 35 46.5 59.5t68.5 24.5q47 0 78.5 -35.5t24.5 -83.5
q-9 -49 -45 -82t-86 -33q-9 0 -18 1.5t-14 3t-5 2.5zM383 1362q27 18 61 18q30 0 55.5 -13.5t35.5 -37.5q35 -72 -9 -123q-36 -39 -82 -39q-10 0 -19.5 2t-14 4t-4.5 1q-64 23 -71.5 86.5t48.5 101.5zM356 500q0 5 -16.5 63t-17.5 58q-1 2 -7.5 -28.5t-14.5 -67.5t-9 -42
q-4 -8 4 -8q6 0 41 14z" />
    <glyph glyph-name="Aring" unicode="&#xc5;" horiz-adv-x="704" 
d="M461 176q-8 26 -16.5 50t-14.5 38t-8 15q-5 2 -83.5 -23.5t-88.5 -32.5q-6 -3 -17 -61q-6 -45 -16.5 -67.5t-34.5 -43.5q-21 -14 -65 -14q-30 0 -40.5 2.5t-25.5 13.5q-52 43 -49 113q1 99 81.5 461t113.5 458q32 86 104 86q41 0 71.5 -26.5t30.5 -65.5q0 -12 21.5 -68.5
t65.5 -175.5t83 -237q10 -33 17 -43t22 -18q40 -23 53.5 -64t-6.5 -78l-14 -26q84 -248 84 -301q0 -50 -31 -85.5t-75 -35.5q-29 0 -54 14q-34 17 -52 53t-56 162zM571 1509q28 -136 -84 -239q-91 -78 -194 -78q-87 0 -161 52.5t-107 135.5q-12 29 -16 83.5t3 88.5
q15 63 53 116t87 79q55 29 188 29q58 0 109.5 -46.5t80 -104.5t41.5 -116zM330 1442q26 26 -23 100q-16 23 -35 23q-18 0 -30.5 -19.5t-12.5 -50.5q0 -27 21 -46t45 -19q20 0 35 12zM336 489l20 11q0 5 -16.5 63t-17.5 58q-1 2 -7.5 -28.5t-14.5 -67.5t-9 -42q-4 -8 4 -8
q6 0 41 14z" />
    <glyph glyph-name="AE" unicode="&#xc6;" horiz-adv-x="1101" 
d="M702 690q11 0 172 39q24 8 50 8q47 0 80.5 -30.5t33.5 -75.5q0 -22 -6 -40t-20.5 -32t-26.5 -24t-38.5 -18.5t-40 -13.5t-47 -10.5t-44.5 -7t-47 -6.5q-63 -9 -69 -14q-7 -15 -7 -45q0 -54 2 -58q6 -13 85 -25t177 -15q76 -1 105.5 -9.5t48.5 -33.5q40 -53 16.5 -109
t-92.5 -76q-31 -8 -84 -8q-80 0 -227 23q14 -69 -17 -113.5t-83 -44.5q-27 0 -54 12q-33 15 -51 51t-57 164q-30 98 -39 103q-5 2 -82.5 -23.5t-89.5 -32.5q-7 -3 -14 -61q-10 -64 -35.5 -94.5t-83.5 -30.5q-33 0 -43 2.5t-23 13.5q-52 43 -49 111q1 100 81.5 462.5
t113.5 458.5q33 87 104 87q41 0 71.5 -27t30.5 -66q0 -7 1 -12.5t5.5 -16.5t9.5 -24t16.5 -42t23.5 -62q13 26 56.5 60t88.5 34q19 0 111.5 10t148.5 10q45 0 79 -5.5t64.5 -19.5t47 -41.5t16.5 -66.5q0 -46 -31 -77t-77 -31q-12 0 -59.5 8t-94.5 8q-52 0 -109 -8
q0 -2 -1.5 -35.5t-1 -56.5t4.5 -23zM291 485q-4 -8 4 -8q13 0 41 12l20 13q0 3 -16.5 61.5t-17.5 59.5q-2 2 -8.5 -28.5t-14 -67.5t-8.5 -42z" />
    <glyph glyph-name="Ccedilla" unicode="&#xc7;" horiz-adv-x="653" 
d="M274 -109q-44 31 -51 95q-3 36 4 93.5t17 80.5q-82 42 -127 92q-94 107 -76.5 278.5t137.5 309.5q61 70 151.5 130t164.5 60t119 -48.5t22 -107.5q-14 -38 -41.5 -50.5t-73.5 -12.5q-10 2 -22 2q-17 0 -45 -22q-73 -54 -122.5 -131t-56.5 -160q-4 -47 13 -78.5t46 -46
t67 -27t73 -20t66 -25t45 -43.5q28 -54 -3.5 -107.5t-95.5 -60.5h-12q-23 0 -37 2l2 -18l33 -8q118 -32 172 -130t4 -190q-25 -45 -97 -94t-124 -49q-45 0 -79 26t-40 68q-4 27 2 50t19 37.5t28 26.5t28.5 18.5t21.5 11t6 7.5q-2 4 -28.5 8t-60 12t-49.5 21z" />
    <glyph glyph-name="Egrave" unicode="&#xc8;" horiz-adv-x="684" 
d="M457 727q24 8 49 8q47 0 81 -30.5t34 -75.5q0 -33 -16.5 -58.5t-41.5 -40.5t-61 -25.5t-69.5 -16t-72.5 -10.5q-7 -1 -10 -1q-63 -7 -70.5 -13t-7.5 -46q0 -46 4 -58q6 -13 85.5 -25.5t177.5 -15.5q76 -1 105 -9.5t48 -33.5q40 -51 16.5 -107.5t-92.5 -76.5
q-24 -8 -100 -8q-41 0 -57 2q-14 2 -41 5q-40 5 -59.5 7.5t-53.5 8t-52.5 11t-46.5 14.5t-44 19t-36.5 25.5t-33 33.5t-24.5 42t-19 53q-11 67 -8 178t8 138q6 22 10 96q3 52 2 63.5t-12 26.5q-28 45 -16 94q6 19 17 34.5t21 26.5t29.5 20t30 14t36.5 10.5t34.5 7t38.5 5.5
t36 5q102 12 166 12q211 0 211 -133q0 -46 -31 -77t-77 -31q-12 0 -59.5 8t-94.5 8q-51 0 -108 -8q0 -1 -1.5 -34t-1 -56t4.5 -23q19 0 172 37zM498 1186q12 -54 -22 -91.5t-85 -37.5q-53 0 -92 39q-24 24 -110.5 134t-94.5 142q-12 51 19 88t77 37q34 0 58 -16
q15 -9 106 -111q106 -121 122 -141t22 -43z" />
    <glyph glyph-name="Eacute" unicode="&#xc9;" horiz-adv-x="684" 
d="M457 727q24 8 49 8q47 0 81 -30.5t34 -75.5q0 -33 -16.5 -58.5t-41.5 -40.5t-61 -25.5t-69.5 -16t-72.5 -10.5q-7 -1 -10 -1q-63 -7 -70.5 -13t-7.5 -46q0 -46 4 -58q6 -13 85.5 -25.5t177.5 -15.5q76 -1 105 -9.5t48 -33.5q40 -51 16.5 -107.5t-92.5 -76.5
q-24 -8 -100 -8q-41 0 -57 2q-14 2 -41 5q-40 5 -59.5 7.5t-53.5 8t-52.5 11t-46.5 14.5t-44 19t-36.5 25.5t-33 33.5t-24.5 42t-19 53q-11 67 -8 178t8 138q6 22 10 96q3 52 2 63.5t-12 26.5q-28 45 -16 94q6 19 17 34.5t21 26.5t29.5 20t30 14t36.5 10.5t34.5 7t38.5 5.5
t36 5q102 12 166 12q211 0 211 -133q0 -46 -31 -77t-77 -31q-12 0 -59.5 8t-94.5 8q-51 0 -108 -8q0 -1 -1.5 -34t-1 -56t4.5 -23q19 0 172 37zM545 1421q40 0 69.5 -27t30.5 -67q3 -40 -24.5 -76t-110.5 -102q-16 -11 -82 -59q-43 -27 -84 -27q-54 0 -84.5 38t-19.5 91
q6 23 22 41.5t34.5 32t64 44.5t85.5 62q40 30 58 39.5t41 9.5z" />
    <glyph glyph-name="Ecircumflex" unicode="&#xca;" horiz-adv-x="684" 
d="M457 727q24 8 49 8q47 0 81 -30.5t34 -75.5q0 -33 -16.5 -58.5t-41.5 -40.5t-61 -25.5t-69.5 -16t-72.5 -10.5q-7 -1 -10 -1q-63 -7 -70.5 -13t-7.5 -46q0 -46 4 -58q6 -13 85.5 -25.5t177.5 -15.5q76 -1 105 -9.5t48 -33.5q40 -51 16.5 -107.5t-92.5 -76.5
q-24 -8 -100 -8q-41 0 -57 2q-14 2 -41 5q-40 5 -59.5 7.5t-53.5 8t-52.5 11t-46.5 14.5t-44 19t-36.5 25.5t-33 33.5t-24.5 42t-19 53q-11 67 -8 178t8 138q6 22 10 96q3 52 2 63.5t-12 26.5q-28 45 -16 94q6 19 17 34.5t21 26.5t29.5 20t30 14t36.5 10.5t34.5 7t38.5 5.5
t36 5q102 12 166 12q211 0 211 -133q0 -46 -31 -77t-77 -31q-12 0 -59.5 8t-94.5 8q-51 0 -108 -8q0 -1 -1.5 -34t-1 -56t4.5 -23q19 0 172 37zM379 1567q39 -12 68.5 -45t89.5 -131q57 -93 73 -129q20 -34 25.5 -51.5t5.5 -39.5q3 -51 -25.5 -78.5t-70.5 -27.5
q-38 0 -66 25q-10 9 -19 20.5t-17.5 26.5t-32 53t-52.5 82q-87 -141 -111 -169q-22 -25 -46 -38q-17 -10 -47 -10q-41 0 -75.5 27.5t-41.5 70.5q-2 11 -2 20.5t1.5 19t7.5 22t12 24t18 30.5t23.5 37.5t30 49t36.5 59.5q22 37 34.5 55t37 46.5t51.5 41.5t59 13z" />
    <glyph glyph-name="Edieresis" unicode="&#xcb;" horiz-adv-x="684" 
d="M539 319q76 -1 105 -9.5t48 -33.5q40 -51 16.5 -107.5t-92.5 -76.5q-24 -8 -100 -8q-41 0 -57 2q-14 2 -41 5q-40 5 -59.5 7.5t-53.5 8t-52.5 11t-46.5 14.5t-44 19t-36.5 25.5t-33 33.5t-24.5 42t-19 53q-11 67 -8 178t8 138q6 22 10 96q3 52 2 63.5t-12 26.5
q-28 45 -16 94q6 19 17 34.5t21 26.5t29.5 20t30 14t36.5 10.5t34.5 7t38.5 5.5t36 5q102 12 166 12q211 0 211 -133q0 -46 -31 -77t-77 -31q-12 0 -59.5 8t-94.5 8q-51 0 -108 -8q0 -1 -1.5 -34t-1 -56t4.5 -23q19 0 172 37q24 8 49 8q47 0 81 -30.5t34 -75.5
q0 -33 -16.5 -58.5t-41.5 -40.5t-61 -25.5t-69.5 -16t-72.5 -10.5q-7 -1 -10 -1q-63 -7 -70.5 -13t-7.5 -46q0 -46 4 -58q6 -13 85.5 -25.5t177.5 -15.5zM154 1079q-40 19 -54.5 61t4.5 83q14 35 46.5 59.5t68.5 24.5q47 0 78.5 -35.5t24.5 -83.5q-9 -49 -45.5 -82
t-86.5 -33q-36 0 -36 6zM567 1112q-36 -39 -82 -39q-10 0 -20 2t-14.5 3.5t-4.5 0.5q-64 23 -71 87t49 102q27 18 61 18q30 0 55 -13.5t35 -37.5q36 -73 -8 -123z" />
    <glyph glyph-name="Igrave" unicode="&#xcc;" horiz-adv-x="344" 
d="M88 2q-25 25 -33 49q-13 43 -5.5 511t22.5 519q11 37 37.5 55.5t58.5 18.5q57 0 88 -45q10 -17 12.5 -32t5.5 -79q3 -73 4.5 -484.5t-8.5 -483.5q-8 -15 -29 -37.5t-28 -22.5q-5 0 -25 -4q-6 -2 -18 -2l-31 4q-26 5 -51 33zM254 1309q12 -54 -22 -91.5t-85 -37.5
q-53 0 -92 39q-24 24 -110.5 134t-94.5 142q-12 51 19.5 88t77.5 37q33 0 57 -16q17 -10 107 -111q104 -118 120.5 -139.5t22.5 -44.5z" />
    <glyph glyph-name="Iacute" unicode="&#xcd;" horiz-adv-x="344" 
d="M213 -29q-5 0 -25 -4q-6 -2 -18 -2l-31 4q-26 5 -51 33q-25 25 -33 49q-13 43 -5.5 511t22.5 519q11 37 37.5 55.5t58.5 18.5q57 0 88 -45q10 -17 12.5 -32t5.5 -79q3 -73 4.5 -484.5t-8.5 -483.5q-8 -15 -29 -37.5t-28 -22.5zM86 1307q6 23 22 41.5t35 32t64.5 44.5
t85.5 62t58 40t40 9q40 0 70 -27.5t31 -66.5q3 -40 -24.5 -76t-111.5 -102q-52 -38 -82 -60q-42 -26 -84 -26q-54 0 -84.5 38t-19.5 91z" />
    <glyph glyph-name="Icircumflex" unicode="&#xce;" horiz-adv-x="344" 
d="M55 51q-13 43 -5.5 511t22.5 519q11 37 37.5 55.5t58.5 18.5q57 0 88 -45q10 -17 12.5 -32t5.5 -79q3 -73 4.5 -484.5t-8.5 -483.5q-8 -15 -29 -37.5t-28 -22.5q-5 0 -25 -4q-6 -2 -18 -2l-31 4q-26 5 -51 33q-25 25 -33 49zM350 1460q61 -100 74 -129q20 -35 25.5 -51.5
t5.5 -38.5q3 -51 -26 -78.5t-71 -27.5q-38 0 -65 24q-10 9 -19 20.5t-17.5 26.5t-32 53t-52.5 82q-70 -113 -97.5 -151t-60.5 -55q-19 -11 -47 -11q-41 0 -75.5 28t-41.5 71q-2 11 -2 20.5t1.5 19t7.5 22t12 24t18 30.5t23.5 37.5t30 49t36.5 59.5q21 36 34.5 55t37.5 46.5
t51.5 40.5t59.5 13l33 -4q38 -12 67.5 -45t89.5 -131z" />
    <glyph glyph-name="Idieresis" unicode="&#xcf;" horiz-adv-x="344" 
d="M274 999q3 -73 4.5 -484.5t-8.5 -483.5q-8 -15 -29 -37.5t-28 -22.5q-5 0 -25 -4q-6 -2 -18 -2l-31 4q-26 5 -51 33q-25 25 -33 49q-13 43 -5.5 511t22.5 519q11 37 37.5 55.5t58.5 18.5q57 0 88 -45q10 -17 12.5 -32t5.5 -79zM-25 1176q-40 19 -54 60.5t5 82.5
q14 35 46.5 59.5t68.5 24.5q47 0 78 -35t24 -84q-9 -49 -45 -82t-86 -33q-9 0 -18 1.5t-14 3t-5 2.5zM397 1331q36 -73 -8 -123q-36 -39 -82 -39q-10 0 -20 2t-14.5 4t-4.5 1q-64 23 -71 86.5t49 101.5q27 18 61 18q30 0 55 -13.5t35 -37.5z" />
    <glyph glyph-name="Eth" unicode="&#xd0;" horiz-adv-x="808" 
d="M-27 117q-14 51 15.5 90t89.5 49l41 6q-2 86 -5.5 158.5t-4.5 93.5q-23 0 -27 2q-39 9 -59 44t-12.5 76t42.5 66q35 19 51 19v178l-14 8q-26 19 -33.5 60t9.5 73q34 60 127 60q5 0 16.5 -1t17.5 -1q129 -7 236.5 -54.5t177 -120t103 -165.5t25 -187t-67 -187t-164.5 -163
q-300 -194 -441 -194q-41 0 -77 25.5t-46 64.5zM403 518q-24 -8 -32 -8q-2 0 -11 1t-16 1q7 -118 11 -124q2 -2 5 -1q7 2 35.5 20.5t68 55.5t56.5 74q20 37 13 86t-30.5 94t-71.5 84.5t-109 58.5q1 -25 4 -66.5t4 -56.5h18q38 0 54 -6t36 -26q41 -43 28.5 -105t-63.5 -82z
" />
    <glyph glyph-name="Ntilde" unicode="&#xd1;" horiz-adv-x="765" 
d="M473 627q39 223 47 389q3 53 6.5 68.5t14.5 33.5q37 49 94 49q41 0 72 -28q32 -28 41.5 -68t3.5 -118t-31 -257q-17 -119 -29.5 -186.5t-29 -116t-34.5 -70.5t-48 -40q-31 -17 -70 -17q-34 0 -68 15q-33 18 -63.5 52.5t-51 67.5t-48.5 84q-6 11 -9 17q0 -99 2 -189
t4 -134t3 -82.5t-2.5 -55.5t-10 -30.5t-20.5 -28.5q-37 -37 -78 -37q-11 0 -39 8q-12 0 -40.5 28.5t-35.5 55.5q-17 61 -20 651q-2 360 4 403q5 30 22 48q32 35 78 35q22 0 62 -19q37 -17 52 -39.5t46 -103.5q22 -56 63.5 -150.5t75.5 -166t37 -68.5zM514 1464
q10 22 18 43.5t13.5 33t17.5 26.5q35 41 82 41q36 0 67.5 -26t43.5 -69q15 -54 -18.5 -126t-95.5 -123.5t-120 -51.5q-60 0 -108 33.5t-139 123.5l-17 17l-10 -22q-7 -17 -7 -51.5t-9 -62.5t-39 -46q-27 -16 -60 -16q-40 0 -69 28.5t-35 55.5q-17 63 16 164q35 105 81 152.5
t112 47.5q16 0 32.5 -3t30 -7t31 -13.5t28 -15t28.5 -19.5t26 -20t27 -23.5t24.5 -23t25.5 -25t23 -22.5z" />
    <glyph glyph-name="Ograve" unicode="&#xd2;" horiz-adv-x="901" 
d="M612 1094q113 -33 184.5 -136.5t71.5 -269.5q0 -78 -18.5 -167.5t-57 -179.5t-91 -163t-127.5 -118.5t-160 -45.5q-82 0 -157.5 43t-129.5 124t-80 185t-7.5 239t85.5 272q80 157 154 157q12 0 110 34t162 34q34 0 61 -8zM319 784l-18 -51q-40 -124 -35 -230.5t47 -178.5
t99 -72q43 0 86.5 46t81.5 142q33 84 46 157t8 121.5t-19.5 83.5t-33.5 50.5t-38 15.5q-51 0 -224 -84zM399 1161q-23 23 -109.5 134t-94.5 143q-12 51 19 88t77 37q31 0 57 -17q19 -12 107 -110q102 -116 119.5 -138.5t23.5 -46.5q12 -54 -21.5 -91.5t-84.5 -37.5
q-54 0 -93 39z" />
    <glyph glyph-name="Oacute" unicode="&#xd3;" horiz-adv-x="901" 
d="M612 1094q113 -33 184.5 -136.5t71.5 -269.5q0 -78 -18.5 -167.5t-57 -179.5t-91 -163t-127.5 -118.5t-160 -45.5q-82 0 -157.5 43t-129.5 124t-80 185t-7.5 239t85.5 272q80 157 154 157q12 0 110 34t162 34q34 0 61 -8zM319 784l-18 -51q-40 -124 -35 -230.5t47 -178.5
t99 -72q43 0 86.5 46t81.5 142q33 84 46 157t8 121.5t-19.5 83.5t-33.5 50.5t-38 15.5q-51 0 -224 -84zM565 1159q-42 -26 -84 -26q-54 0 -84.5 38t-19.5 91q6 23 22 41.5t35 32t64.5 44.5t85.5 62t58 40t40 9q40 0 69.5 -27t30.5 -67q3 -40 -24.5 -76t-110.5 -102
q-52 -38 -82 -60z" />
    <glyph glyph-name="Ocircumflex" unicode="&#xd4;" horiz-adv-x="901" 
d="M868 688q0 -78 -18.5 -167.5t-57 -179.5t-91 -163t-127.5 -118.5t-160 -45.5q-82 0 -157.5 43t-129.5 124t-80 185t-7.5 239t85.5 272q80 157 154 157q12 0 110 34t162 34q34 0 61 -8q113 -33 184.5 -136.5t71.5 -269.5zM301 733q-40 -124 -35 -230.5t47 -178.5t99 -72
q43 0 86.5 46t81.5 142q33 84 46 157t8 121.5t-19.5 83.5t-33.5 50.5t-38 15.5q-51 0 -224 -84zM778 1208q3 -51 -25.5 -78.5t-70.5 -27.5q-39 0 -66 24q-13 11 -21.5 24.5t-35 58t-63.5 100.5q-51 -83 -69.5 -111.5t-42 -56t-46.5 -39.5q-18 -10 -47 -10q-41 0 -75.5 27.5
t-41.5 70.5q-2 11 -2 20.5t1.5 19t7.5 22t12 24t18 30.5t23.5 37.5t30 49t36.5 59.5q22 37 34.5 55t37 46.5t51.5 41.5t59 13l33 -4q38 -12 68 -45.5t90 -131.5q61 -100 74 -129q19 -34 24.5 -50.5t5.5 -39.5z" />
    <glyph glyph-name="Otilde" unicode="&#xd5;" horiz-adv-x="901" 
d="M612 1094q113 -33 184.5 -136.5t71.5 -269.5q0 -78 -18.5 -167.5t-57 -179.5t-91 -163t-127.5 -118.5t-160 -45.5q-82 0 -157.5 43t-129.5 124t-80 185t-7.5 239t85.5 272q80 157 154 157q12 0 110 34t162 34q34 0 61 -8zM823 1421q15 -54 -18.5 -126t-95 -123.5
t-119.5 -51.5q-60 0 -108 33.5t-139 123.5l-17 17l-11 -22q-7 -17 -7 -51.5t-9 -62.5t-39 -46q-27 -16 -59 -16q-40 0 -69.5 28.5t-35.5 55.5q-16 61 17 163q35 105 80.5 153t111.5 48q47 0 100 -28.5t79 -51.5t82 -77q11 -10 16 -15q10 22 18 43.5t13.5 33t17.5 26.5
q35 41 82 41q36 0 67 -26t43 -69zM301 733q-40 -124 -35 -230.5t47 -178.5t99 -72q43 0 86.5 46t81.5 142q33 84 46 157t8 121.5t-19.5 83.5t-33.5 50.5t-38 15.5q-51 0 -224 -84z" />
    <glyph glyph-name="Odieresis" unicode="&#xd6;" horiz-adv-x="901" 
d="M868 688q0 -78 -18.5 -167.5t-57 -179.5t-91 -163t-127.5 -118.5t-160 -45.5q-82 0 -157.5 43t-129.5 124t-80 185t-7.5 239t85.5 272q80 157 154 157q12 0 110 34t162 34q34 0 61 -8q113 -33 184.5 -136.5t71.5 -269.5zM301 733q-40 -124 -35 -230.5t47 -178.5t99 -72
q43 0 86.5 46t81.5 142q33 84 46 157t8 121.5t-19.5 83.5t-33.5 50.5t-38 15.5q-51 0 -224 -84zM291 1122q-40 19 -54 61t5 83q14 35 46 59.5t68 24.5q47 0 78.5 -35.5t24.5 -83.5q-9 -49 -45 -82t-86 -33q-37 0 -37 6zM713 1278q36 -73 -8 -123q-36 -39 -82 -39
q-10 0 -20 2t-14.5 3.5t-4.5 0.5q-64 23 -71.5 87t48.5 102q27 18 62 18q30 0 55 -13.5t35 -37.5z" />
    <glyph glyph-name="multiply" unicode="&#xd7;" horiz-adv-x="808" 
d="M651 903q25 -8 48.5 -32t27.5 -48q5 -30 -6 -53.5t-49 -64.5q-103 -115 -103 -119t54 -58q56 -58 75 -96t9 -74q-10 -39 -39.5 -61.5t-67.5 -22.5q-36 0 -70 21q-17 11 -44.5 37.5t-48 46.5t-23.5 20q-1 0 -76 -86q-59 -68 -82 -89.5t-47 -28.5q-31 -9 -41 -9
q-51 0 -82 43.5t-20 92.5q6 29 26 58.5t84 102.5l72 86q0 10 -53 66q-47 52 -62.5 78t-15.5 55q0 44 28.5 74t69.5 30q11 0 27 -4q18 -4 33.5 -16t56.5 -53q62 -62 69 -62q4 0 16 12t41 41.5t60 57.5q65 59 109 59q8 0 24 -4z" />
    <glyph glyph-name="Oslash" unicode="&#xd8;" horiz-adv-x="901" 
d="M766 999q49 -56 75 -128t27 -150t-12 -154t-39 -155q-131 -394 -414 -394q-29 0 -61 7q-2 1 -10 -20.5t-21.5 -51t-27.5 -43.5q-33 -33 -78 -33q-44 0 -77 34t-32 91q0 14 2.5 29.5t8.5 35t10 31t13 35t11 29.5q-32 39 -52.5 83.5t-39.5 114.5q-60 234 76 519
q40 78 70 106q48 51 81 51q11 0 114 34t163 34q21 0 31 -2q34 67 42 80t25 22q29 19 58 19q47 0 77.5 -41t18.5 -95q-6 -17 -39 -88zM635 707q-33 -73 -197 -449q56 18 104 103t71.5 181t21.5 165zM319 786q-43 -116 -51 -192q-7 -66 2 -133q54 118 187 385
q-37 -14 -138 -60z" />
    <glyph glyph-name="Ugrave" unicode="&#xd9;" 
d="M141 1073q31 0 52.5 -16.5t44.5 -46.5q4 -75 11 -202q17 -307 29 -404.5t48 -155.5q12 -21 24 -21q7 0 29 11q49 25 85 87.5t54.5 140.5t27 166.5t7 165t-9.5 136.5q-7 63 -5.5 92t13.5 49q35 53 94 53q41 0 75.5 -27t47.5 -77q15 -49 19 -173t-16.5 -294.5t-70.5 -286.5
q-54 -125 -152 -202.5t-200 -77.5t-181 81.5t-114 247.5q-15 69 -19.5 153.5t-2.5 275.5q1 181 3 214.5t13 53.5q13 27 39 42t55 15zM283 1094q-24 24 -110.5 134t-94.5 142q-12 51 19 88t77 37q33 0 57 -16q17 -10 107 -111q104 -118 120.5 -139.5t22.5 -44.5
q12 -54 -21.5 -91.5t-84.5 -37.5q-53 0 -92 39z" />
    <glyph glyph-name="Uacute" unicode="&#xda;" 
d="M238 1010q4 -75 11 -202q17 -307 29 -404.5t48 -155.5q12 -21 24 -21q7 0 29 11q49 25 85 87.5t54.5 140.5t27 166.5t7 165t-9.5 136.5q-7 63 -5.5 92t13.5 49q35 53 94 53q41 0 75.5 -27t47.5 -77q15 -49 19 -173t-16.5 -294.5t-70.5 -286.5q-54 -125 -152 -202.5
t-200 -77.5t-181 81.5t-114 247.5q-15 69 -19.5 153.5t-2.5 275.5q1 181 3 214.5t13 53.5q13 27 39 42t55 15q31 0 52.5 -16.5t44.5 -46.5zM459 1073q-42 -26 -84 -26q-54 0 -85 38t-20 91q6 23 22 41.5t35 32t64.5 44.5t85.5 62t58 40t40 9q40 0 70 -27.5t31 -66.5
q3 -40 -24.5 -76t-110.5 -102q-52 -38 -82 -60z" />
    <glyph glyph-name="Ucircumflex" unicode="&#xdb;" 
d="M543 934q-7 63 -5.5 92t13.5 49q35 53 94 53q41 0 75.5 -27t47.5 -77q15 -49 19 -173t-16.5 -294.5t-70.5 -286.5q-54 -125 -152 -202.5t-200 -77.5t-181 81.5t-114 247.5q-15 69 -19.5 153.5t-2.5 275.5q1 181 3 214.5t13 53.5q13 27 39 42t55 15q31 0 52.5 -16.5
t44.5 -46.5q4 -75 11 -202q17 -307 29 -404.5t48 -155.5q12 -21 24 -21q7 0 29 11q49 25 85 87.5t54.5 140.5t27 166.5t7 165t-9.5 136.5zM578 1460q57 -93 73 -129q20 -35 25.5 -51.5t5.5 -38.5q3 -51 -25.5 -78.5t-70.5 -27.5q-39 0 -66 24q-10 9 -19 20.5t-17.5 26.5
t-32 53t-52.5 82q-52 -84 -69.5 -111.5t-41 -55t-46.5 -39.5q-19 -11 -47 -11q-41 0 -75.5 28t-41.5 71q-2 11 -2 20.5t1.5 19t7.5 22t12 24t18 30.5t23.5 37.5t30 49t36.5 59.5q22 36 34.5 54.5t36.5 46.5t51.5 41t59.5 13l33 -4q39 -12 68.5 -45t89.5 -131z" />
    <glyph glyph-name="Udieresis" unicode="&#xdc;" 
d="M543 934q-7 63 -5.5 92t13.5 49q35 53 94 53q41 0 75.5 -27t47.5 -77q15 -49 19 -173t-16.5 -294.5t-70.5 -286.5q-54 -125 -152 -202.5t-200 -77.5t-181 81.5t-114 247.5q-15 69 -19.5 153.5t-2.5 275.5q1 181 3 214.5t13 53.5q13 27 39 42t55 15q31 0 52.5 -16.5
t44.5 -46.5q4 -75 11 -202q17 -307 29 -404.5t48 -155.5q12 -21 24 -21q7 0 29 11q49 25 85 87.5t54.5 140.5t27 166.5t7 165t-9.5 136.5zM199 1122q-40 19 -54 61t5 83q14 35 46 59.5t68 24.5q47 0 78.5 -35.5t24.5 -83.5q-9 -49 -45 -82t-86 -33q-37 0 -37 6zM621 1278
q35 -72 -9 -123q-36 -39 -82 -39q-10 0 -19.5 2t-14 3.5t-4.5 0.5q-64 23 -71.5 87t48.5 102q27 18 61 18q30 0 55.5 -13.5t35.5 -37.5z" />
    <glyph glyph-name="Yacute" unicode="&#xdd;" horiz-adv-x="712" 
d="M401 399q28 53 42 139.5t1 168.5q-24 -32 -38.5 -49.5t-40.5 -43.5t-54.5 -38.5t-58.5 -12.5q-66 0 -114.5 34t-73.5 90.5t-36.5 115t-11.5 121.5q-1 87 5 118t28 58q28 35 76 35q35 0 57 -13.5t31 -40t11.5 -49t2.5 -57.5q5 -145 23 -137q7 7 57 94q60 102 84 130t62 42
q18 6 36 6q40 0 75 -25.5t54 -66.5q11 -27 29 -99t27 -124q12 -72 11 -165t-13 -159q-19 -87 -46.5 -148.5t-76.5 -123.5q-45 -56 -103 -105t-110 -76q-20 -10 -62 -22t-51 -10q-1 0 -21.5 4.5t-30.5 8.5t-28.5 13t-32.5 24t-26 36q-34 64 -3.5 123t91.5 59q20 0 43 -10
l27 -13q119 91 159 168zM410 1417q40 31 58 40t40 9q40 0 69.5 -27t30.5 -67q3 -40 -24.5 -76t-110.5 -102q-15 -11 -82 -59q-43 -27 -84 -27q-54 0 -84.5 38t-19.5 91q6 23 22 41.5t35 32t64.5 44.5t85.5 62z" />
    <glyph glyph-name="Thorn" unicode="&#xde;" horiz-adv-x="831" 
d="M586 147q-101 -94 -201 -94q-19 0 -51 4q-10 -52 -39 -86t-78 -34q-16 0 -35 8q0 -3 -15.5 6.5t-34.5 29.5t-26 42q-22 92 -18.5 538.5t10.5 478.5q10 44 40 68.5t67 24.5q41 0 70.5 -30.5t29.5 -84.5q0 -35 6 -35t31 18q68 46 150 46q79 0 135 -41q74 -50 113.5 -158.5
t38 -232t-51 -253t-141.5 -215.5zM383 705q-3 -7 -7 -15.5t-5.5 -10t-3.5 -8.5t-2 -9t-0.5 -13t0 -18.5t0.5 -28v-39.5q0 -81 8.5 -147t16.5 -92.5t11 -26.5q6 0 39 37q43 45 68.5 110.5t30.5 127.5t0 117t-20 88.5t-32 33.5q-25 0 -53 -28.5t-51 -77.5z" />
    <glyph glyph-name="germandbls" unicode="&#xdf;" horiz-adv-x="864" 
d="M739 905q8 -41 -3 -85t-30.5 -78.5t-40.5 -62.5t-34 -45.5t-10 -19.5q6 -5 33.5 -23.5t49.5 -35t50.5 -50t48.5 -73.5q24 -50 27 -104t-21 -105q-74 -160 -414 -160q-40 0 -68 8.5t-40 17.5t-13 9q-5 0 -8 -18q-5 -27 -32.5 -51.5t-63.5 -24.5q-88 0 -111 115
q-9 43 -12 236.5t4 250.5q9 70 29 138t55 135.5t80.5 117.5t110.5 81.5t141 31.5q100 0 177 -56.5t95 -148.5zM268 270q4 3 11 8t8 6.5t8 4.5t8.5 3.5t11 2.5t14.5 2t19.5 1.5t25.5 1.5t34 1q69 3 123.5 10t60.5 13q5 5 -9.5 23.5t-33.5 31.5q-24 18 -70.5 40t-83 46
t-55.5 59q-18 31 -19.5 60.5t14 58.5t31.5 49t44 49q98 107 90 121q-3 12 -33 12q-36 0 -65.5 -20t-49.5 -58t-35.5 -79.5t-24 -99t-14 -101t-7.5 -101t-2.5 -83.5t-0.5 -62z" />
    <glyph glyph-name="agrave" unicode="&#xe0;" horiz-adv-x="700" 
d="M723 80q-12 -27 -38 -42t-56 -15q-28 0 -49 12q-29 15 -46.5 44t-41.5 99q-20 64 -31 86q-3 3 -230 21q-2 -5 -9.5 -30t-9.5 -30.5t-9.5 -26t-12 -26.5t-13 -21t-16.5 -20t-19.5 -12.5t-24.5 -10t-29 -2.5q-50 0 -82.5 34.5t-32.5 88.5q0 24 81.5 254t158.5 426
q19 48 56.5 89.5t82.5 41.5q31 0 58.5 -19t42.5 -54q24 -57 100 -260.5t109 -300.5q64 -184 73.5 -235t-12.5 -91zM37 1386q-12 51 19 88t77 37q33 0 57 -16q17 -10 107 -111q104 -118 120.5 -139.5t22.5 -44.5q12 -54 -21.5 -91.5t-84.5 -37.5q-53 0 -92 39
q-24 24 -110.5 134t-94.5 142zM344 618q-39 -107 -39 -116q0 -4 43 -4q33 0 33 2q0 7 -37 118z" />
    <glyph glyph-name="aacute" unicode="&#xe1;" horiz-adv-x="700" 
d="M723 80q-12 -27 -38 -42t-56 -15q-28 0 -49 12q-29 15 -46.5 44t-41.5 99q-20 64 -31 86q-3 3 -230 21q-2 -5 -9.5 -30t-9.5 -30.5t-9.5 -26t-12 -26.5t-13 -21t-16.5 -20t-19.5 -12.5t-24.5 -10t-29 -2.5q-50 0 -82.5 34.5t-32.5 88.5q0 24 81.5 254t158.5 426
q19 48 56.5 89.5t82.5 41.5q31 0 58.5 -19t42.5 -54q24 -57 100 -260.5t109 -300.5q64 -184 73.5 -235t-12.5 -91zM670 1335q3 -40 -24.5 -76t-110.5 -102q-15 -12 -82 -59q-43 -27 -84 -27q-54 0 -85 38t-20 91q6 23 22 41.5t35 32t64.5 44.5t85.5 62q41 31 58.5 40.5
t39.5 9.5q40 0 70 -27.5t31 -67.5zM344 618q-39 -107 -39 -116q0 -4 43 -4q33 0 33 2q0 7 -37 118z" />
    <glyph glyph-name="acircumflex" unicode="&#xe2;" horiz-adv-x="700" 
d="M453 967q24 -57 100 -260.5t109 -300.5q64 -184 73.5 -235t-12.5 -91q-12 -27 -38 -42t-56 -15q-28 0 -49 12q-29 15 -46.5 44t-41.5 99q-20 64 -31 86q-3 3 -230 21q-2 -5 -9.5 -30t-9.5 -30.5t-9.5 -26t-12 -26.5t-13 -21t-16.5 -20t-19.5 -12.5t-24.5 -10t-29 -2.5
q-50 0 -82.5 34.5t-32.5 88.5q0 24 81.5 254t158.5 426q19 48 56.5 89.5t82.5 41.5q31 0 58.5 -19t42.5 -54zM631 1114q3 -51 -25.5 -78.5t-70.5 -27.5q-39 0 -66 24q-10 9 -19 20.5t-17.5 26.5t-32 53t-52.5 82q-70 -113 -97.5 -151t-60.5 -55q-19 -11 -47 -11
q-41 0 -75 28t-41 71q-2 11 -2 20.5t1.5 19t7.5 22t12 24t18 30.5t23.5 37.5t30 49t36.5 59.5q22 36 34.5 54.5t36.5 46.5t51.5 41t59.5 13l33 -4q38 -12 67.5 -45t89.5 -131q61 -100 74 -129q20 -35 25.5 -51.5t5.5 -38.5zM344 618q-39 -107 -39 -116q0 -4 43 -4q33 0 33 2
q0 7 -37 118z" />
    <glyph glyph-name="atilde" unicode="&#xe3;" horiz-adv-x="700" 
d="M453 967q24 -57 100 -260.5t109 -300.5q64 -184 73.5 -235t-12.5 -91q-12 -27 -38 -42t-56 -15q-28 0 -49 12q-29 15 -46.5 44t-41.5 99q-20 64 -31 86q-3 3 -230 21q-2 -5 -9.5 -30t-9.5 -30.5t-9.5 -26t-12 -26.5t-13 -21t-16.5 -20t-19.5 -12.5t-24.5 -10t-29 -2.5
q-50 0 -82.5 34.5t-32.5 88.5q0 24 81.5 254t158.5 426q19 48 56.5 89.5t82.5 41.5q31 0 58.5 -19t42.5 -54zM494 1303q10 21 18 43t13.5 33t17.5 26q35 41 82 41q36 0 67 -25.5t43 -68.5q15 -54 -18.5 -126t-95 -123.5t-119.5 -51.5q-60 0 -108 33.5t-139 123.5l-17 17
l-11 -23q-7 -17 -7 -51.5t-9 -62.5t-39 -46q-27 -16 -59 -16q-40 0 -69.5 28.5t-35.5 55.5q-17 61 17 164q35 105 80.5 153t111.5 48q47 0 100 -28.5t79 -51.5t82 -77q11 -10 16 -15zM344 618q-39 -107 -39 -116q0 -4 43 -4q33 0 33 2q0 7 -37 118z" />
    <glyph glyph-name="adieresis" unicode="&#xe4;" horiz-adv-x="700" 
d="M453 967q24 -57 100 -260.5t109 -300.5q64 -184 73.5 -235t-12.5 -91q-12 -27 -38 -42t-56 -15q-28 0 -49 12q-29 15 -46.5 44t-41.5 99q-20 64 -31 86q-3 3 -230 21q-2 -5 -9.5 -30t-9.5 -30.5t-9.5 -26t-12 -26.5t-13 -21t-16.5 -20t-19.5 -12.5t-24.5 -10t-29 -2.5
q-50 0 -82.5 34.5t-32.5 88.5q0 24 81.5 254t158.5 426q19 48 56.5 89.5t82.5 41.5q31 0 58.5 -19t42.5 -54zM164 1083q-40 19 -54 61t5 83q14 35 46 59.5t68 24.5q47 0 78.5 -35.5t24.5 -83.5q-9 -49 -45 -82t-86 -33q-37 0 -37 6zM578 1116q-36 -39 -82 -39q-10 0 -20 2
t-14.5 3.5t-4.5 0.5q-64 23 -71.5 87t48.5 102q27 18 62 18q30 0 55 -13.5t35 -37.5q36 -73 -8 -123zM344 618q-39 -107 -39 -116q0 -4 43 -4q33 0 33 2q0 7 -37 118z" />
    <glyph glyph-name="aring" unicode="&#xe5;" horiz-adv-x="700" 
d="M492 178q-20 64 -31 86q-3 3 -230 21q-2 -5 -9.5 -30t-9.5 -30.5t-9.5 -26t-12 -26.5t-13 -21t-16.5 -20t-19.5 -12.5t-24.5 -10t-29 -2.5q-50 0 -82.5 34.5t-32.5 88.5q0 24 81.5 254t158.5 426q19 48 56.5 89.5t82.5 41.5q31 0 58.5 -19t42.5 -54q24 -57 100 -260.5
t109 -300.5q64 -184 73.5 -235t-12.5 -91q-12 -27 -38 -42t-56 -15q-28 0 -49 12q-29 15 -46.5 44t-41.5 99zM397 1647q44 0 85 -26.5t69.5 -68.5t48.5 -86t29 -86q28 -136 -84 -239q-91 -78 -195 -78q-87 0 -161 52.5t-107 135.5q-12 29 -16 83.5t4 88.5q15 63 52.5 116
t86.5 79q55 29 188 29zM387 1313q26 26 -22 100q-16 23 -35 23q-18 0 -30.5 -19.5t-12.5 -50.5q0 -27 20.5 -46.5t44.5 -19.5q19 0 35 13zM381 500q0 7 -37 118q-39 -107 -39 -116q0 -4 43 -4q33 0 33 2z" />
    <glyph glyph-name="ae" unicode="&#xe6;" horiz-adv-x="1183" 
d="M674 424q11 -23 91.5 -34t176.5 -11q44 0 90 4q4 0 11 1t10 1q53 0 82.5 -33t26 -78t-37.5 -79q-31 -30 -67 -40.5t-113 -11.5q-137 0 -227 19q9 -61 -25 -100t-82 -39q-30 0 -53.5 13t-40 40.5t-25 47t-20.5 54.5q-25 80 -31 86q-2 3 -29.5 5.5t-90.5 8t-107 9.5
q-3 -8 -11 -34t-11 -34t-11.5 -29t-14 -28t-16 -20.5t-21 -18.5t-25.5 -9.5t-33 -4.5q-51 0 -83 33t-32 87q0 25 82 258t158 424q18 47 56 88t81 41q31 0 58 -19t42 -54q9 -19 37 -93q27 23 53 31q59 17 232 17q152 0 202 -15q38 -11 67.5 -46t29.5 -70q0 -45 -34 -76
t-79 -31q-16 0 -49 2.5t-95 7.5t-132 8q2 -22 7 -24q3 -2 9 -2q23 2 47.5 4t37.5 3t21 1q16 0 39 -10q39 -19 53.5 -56.5t0.5 -75.5t-52 -59q-18 -10 -37.5 -16t-35.5 -7.5l-32 -3t-26 -1.5t-18 -3.5t-8 -9.5t4 -18zM324 618q-4 -13 -13.5 -42t-16.5 -50t-7 -24q0 -4 37 -4
q36 0 36 4q0 3 -17 58t-19 58z" />
    <glyph glyph-name="ccedilla" unicode="&#xe7;" horiz-adv-x="696" 
d="M279 606q-15 -32 -17.5 -66.5t10.5 -60.5q18 -28 55.5 -44.5t78.5 -16.5q48 0 81 20q61 37 91 37q21 0 45 -12q67 -30 60 -99q-6 -68 -76 -123q-66 -52 -156 -61l2 -37l32 -8q77 -21 130.5 -74.5t65 -116.5t-18.5 -128q-25 -45 -97.5 -94.5t-124.5 -49.5
q-45 0 -78.5 26.5t-39.5 68.5q-4 27 2 50t18.5 37.5t27.5 26.5t28.5 18.5t21.5 11t6 7.5q-2 4 -28.5 8t-59.5 12t-49 21q-45 31 -51 94q-3 31 2 82t14 80q-223 93 -223 307q-1 82 31 152.5t81.5 115.5t106.5 70t110 25q47 0 82 -22.5t45 -63.5q12 -39 -14 -80
q-17 -26 -43 -36t-49.5 -9.5t-52 -15t-49.5 -52.5z" />
    <glyph glyph-name="egrave" unicode="&#xe8;" horiz-adv-x="813" 
d="M457 672q57 -28 57.5 -92.5t-57.5 -96.5q-18 -10 -38 -16t-35.5 -7.5t-32 -3t-26.5 -1.5t-18 -3.5t-8 -9.5t4 -18q10 -23 88.5 -35t171.5 -12q61 0 99 6q3 0 9 1t9 1q54 0 84.5 -33t27 -78t-37.5 -79q-29 -30 -65 -40t-116 -12h-28q-112 0 -197 16t-133 42t-79.5 57.5
t-43 65t-16.5 61.5t-8 49.5t-9 26.5q-21 18 -23.5 57t15.5 66q15 23 21 26q6 4 8.5 60t-8.5 82q-9 19 -9 46t9 44q23 44 80 61q70 19 243 19q145 0 191 -15q39 -12 67.5 -46.5t28.5 -69.5q0 -25 -13 -50.5t-32 -35.5q-36 -23 -70 -23q-16 0 -49.5 3t-94.5 8.5t-130 8.5
q0 -3 1 -7q1 -17 8 -18l7 -1q21 2 45.5 4t37.5 3t22 1q19 0 43 -12zM342 1257q104 -118 120.5 -139.5t22.5 -44.5q12 -54 -21.5 -91.5t-84.5 -37.5q-53 0 -92 39q-24 24 -110.5 134.5t-94.5 142.5q-12 51 19 87.5t77 36.5q34 0 58 -16q15 -9 106 -111z" />
    <glyph glyph-name="eacute" unicode="&#xe9;" horiz-adv-x="813" 
d="M754 195q-29 -30 -65 -40t-116 -12h-28q-112 0 -197 16t-133 42t-79.5 57.5t-43 65t-16.5 61.5t-8 49.5t-9 26.5q-21 18 -23.5 57t15.5 66q15 23 21 26q6 4 8.5 60t-8.5 82q-9 19 -9 46t9 44q23 44 80 61q70 19 243 19q145 0 191 -15q39 -12 67.5 -46.5t28.5 -69.5
q0 -25 -13 -50.5t-32 -35.5q-36 -23 -70 -23q-16 0 -49.5 3t-94.5 8.5t-130 8.5q0 -3 1 -7q1 -17 8 -18l7 -1q21 2 45.5 4t37.5 3t22 1q19 0 43 -12q57 -28 57.5 -92.5t-57.5 -96.5q-18 -10 -38 -16t-35.5 -7.5t-32 -3t-26.5 -1.5t-18 -3.5t-8 -9.5t4 -18q10 -23 88.5 -35
t171.5 -12q61 0 99 6q3 0 9 1t9 1q54 0 84.5 -33t27 -78t-37.5 -79zM492 1241q40 31 58 40t40 9q40 0 69.5 -27t30.5 -67q3 -40 -24.5 -76t-110.5 -102q-52 -38 -82 -60q-42 -26 -84 -26q-54 0 -84.5 38t-19.5 91q6 23 22 41.5t35 32t64.5 44.5t85.5 62z" />
    <glyph glyph-name="ecircumflex" unicode="&#xea;" horiz-adv-x="813" 
d="M662 383q3 0 9 1t9 1q54 0 84.5 -33t27 -78t-37.5 -79q-29 -30 -65 -40t-116 -12h-28q-112 0 -197 16t-133 42t-79.5 57.5t-43 65t-16.5 61.5t-8 49.5t-9 26.5q-21 18 -23.5 57t15.5 66q15 23 21 26q6 4 8.5 60t-8.5 82q-9 19 -9 46t9 44q23 44 80 61q70 19 243 19
q145 0 191 -15q39 -12 67.5 -46.5t28.5 -69.5q0 -25 -13 -50.5t-32 -35.5q-36 -23 -70 -23q-16 0 -49.5 3t-94.5 8.5t-130 8.5q0 -3 1 -7q1 -17 8 -18l7 -1q21 2 45.5 4t37.5 3t22 1q19 0 43 -12q57 -28 57.5 -92.5t-57.5 -96.5q-18 -10 -38 -16t-35.5 -7.5t-32 -3
t-26.5 -1.5t-18 -3.5t-8 -9.5t4 -18q10 -23 88.5 -35t171.5 -12q61 0 99 6zM643 1147q20 -35 25.5 -51.5t5.5 -38.5q3 -51 -25.5 -79t-70.5 -28q-38 0 -66 25q-10 9 -19 20.5t-17.5 26.5t-32 53t-52.5 82q-51 -83 -69.5 -111.5t-42 -56t-46.5 -39.5q-18 -10 -47 -10
q-41 0 -75 27.5t-41 70.5q-2 11 -2 20.5t1.5 19t7.5 22t12 24t18 30.5t23.5 37.5t30 49t36.5 59.5q22 37 34.5 55t37 46.5t51.5 41.5t59 13l33 -4q38 -12 67.5 -45t89.5 -131q61 -100 74 -129z" />
    <glyph glyph-name="edieresis" unicode="&#xeb;" horiz-adv-x="813" 
d="M457 672q57 -28 57.5 -92.5t-57.5 -96.5q-18 -10 -38 -16t-35.5 -7.5t-32 -3t-26.5 -1.5t-18 -3.5t-8 -9.5t4 -18q10 -23 88.5 -35t171.5 -12q61 0 99 6q3 0 9 1t9 1q54 0 84.5 -33t27 -78t-37.5 -79q-29 -30 -65 -40t-116 -12h-28q-112 0 -197 16t-133 42t-79.5 57.5
t-43 65t-16.5 61.5t-8 49.5t-9 26.5q-21 18 -23.5 57t15.5 66q15 23 21 26q6 4 8.5 60t-8.5 82q-9 19 -9 46t9 44q23 44 80 61q70 19 243 19q145 0 191 -15q39 -12 67.5 -46.5t28.5 -69.5q0 -25 -13 -50.5t-32 -35.5q-36 -23 -70 -23q-16 0 -49.5 3t-94.5 8.5t-130 8.5
q0 -3 1 -7q1 -17 8 -18l7 -1q21 2 45.5 4t37.5 3t22 1q19 0 43 -12zM188 952q-40 19 -54 61t5 83q14 35 46.5 59.5t68.5 24.5q47 0 78 -35t24 -84q-9 -49 -45 -82t-86 -33q-37 0 -37 6zM459 1141q27 18 61 18q30 0 55 -13.5t35 -37.5q36 -73 -8 -123q-36 -39 -82 -39
q-10 0 -20 2t-14.5 3.5t-4.5 0.5q-64 23 -71 87t49 102z" />
    <glyph glyph-name="igrave" unicode="&#xec;" horiz-adv-x="325" 
d="M256 911q7 -17 10.5 -64.5t9.5 -223.5q10 -339 9.5 -398t-11.5 -78l-2 -4q-13 -24 -41.5 -40.5t-56.5 -16.5q-39 0 -71.5 32t-43.5 72q-6 22 -5.5 336t7.5 351q9 47 38 72.5t65 25.5q65 0 92 -64zM-2 1434q15 -9 106 -111q106 -121 122 -141t22 -43q12 -54 -22 -91.5
t-85 -37.5q-53 0 -92 39q-24 24 -110.5 134t-94.5 142q-12 51 19.5 88t77.5 37q33 0 57 -16z" />
    <glyph glyph-name="iacute" unicode="&#xed;" horiz-adv-x="325" 
d="M276 623q10 -339 9.5 -398t-11.5 -78l-2 -4q-13 -24 -41.5 -40.5t-56.5 -16.5q-39 0 -71.5 32t-43.5 72q-6 22 -5.5 336t7.5 351q9 47 38 72.5t65 25.5q65 0 92 -64q7 -17 10.5 -64.5t9.5 -223.5zM274 1319q40 30 58 39.5t41 9.5q40 0 69.5 -27t30.5 -67q3 -40 -24.5 -76
t-110.5 -102q-52 -38 -82 -60q-42 -26 -84 -26q-54 0 -84.5 38t-19.5 91q6 23 22 41.5t34.5 32t64 44.5t85.5 62z" />
    <glyph glyph-name="icircumflex" unicode="&#xee;" horiz-adv-x="325" 
d="M289 1014q-10 9 -19 20.5t-17.5 26.5t-32 53t-52.5 82q-51 -83 -69.5 -111.5t-42 -56t-46.5 -39.5q-18 -10 -47 -10q-41 0 -75.5 27.5t-41.5 70.5q-2 11 -2 20.5t1.5 19t7.5 22t12 24t18 30.5t23.5 37.5t30 49t36.5 59.5q22 36 34.5 55t37 47t52 41t59.5 13l32 -4
q39 -12 68.5 -45t89.5 -131q61 -100 74 -129q20 -35 25.5 -51.5t5.5 -38.5q3 -51 -26 -79t-71 -28q-37 0 -65 25zM59 190q-6 22 -5.5 336t7.5 351q9 47 38 72.5t65 25.5q65 0 92 -64q7 -17 10.5 -64.5t9.5 -223.5q10 -339 9.5 -398t-11.5 -78l-2 -4q-13 -24 -41.5 -40.5
t-56.5 -16.5q-39 0 -71.5 32t-43.5 72z" />
    <glyph glyph-name="idieresis" unicode="&#xef;" horiz-adv-x="325" 
d="M59 190q-6 22 -5.5 336t7.5 351q9 47 38 72.5t65 25.5q65 0 92 -64q7 -17 10.5 -64.5t9.5 -223.5q10 -339 9.5 -398t-11.5 -78l-2 -4q-13 -24 -41.5 -40.5t-56.5 -16.5q-39 0 -71.5 32t-43.5 72zM145 1126q-9 -49 -45 -81.5t-86 -32.5q-37 0 -37 6q-40 19 -54 60.5
t5 82.5q14 35 46.5 59.5t68.5 24.5q47 0 78 -35t24 -84zM270 1018q-64 23 -71 86.5t49 101.5q28 19 61 19q30 0 55 -13.5t35 -37.5q36 -73 -8 -123q-36 -39 -82 -39q-10 0 -20 2t-14.5 3.5t-4.5 0.5z" />
    <glyph glyph-name="eth" unicode="&#xf0;" horiz-adv-x="675" 
d="M455 848q90 -122 131.5 -212.5t36.5 -207.5q-5 -92 -49 -176.5t-122.5 -139.5t-172.5 -55q-90 0 -152 60t-71 152.5t42 203.5q30 59 61 105.5t51.5 68.5t36.5 38t21 24t0 16q-8 12 -10 12t-48.5 -35t-64.5 -38q-6 -2 -18 -2q-34 0 -60 17t-38 46q-28 70 53 145
q27 26 31.5 33t3.5 27q-6 71 59 98q20 10 39 10q13 0 70 -22q80 45 123 45q44 0 79 -32t35 -75q0 -12 -3 -23t-8.5 -21t-10.5 -17t-13 -15.5t-12 -12l-12 -10.5zM287 309q0 -16 6 -16q22 0 51.5 35t36.5 59q7 23 8.5 59.5t-4.5 40.5q-4 2 -28 -33t-47 -79.5t-23 -65.5z" />
    <glyph glyph-name="ntilde" unicode="&#xf1;" horiz-adv-x="751" 
d="M692 459q-20 -80 -64.5 -124t-105.5 -44q-40 0 -83 26.5t-66 49t-82 88.5l-6 6t-5 5.5t-6 6.5q12 -194 13 -217.5t-2 -67.5q-9 -37 -40.5 -61.5t-68.5 -24.5q-112 0 -125 172q-7 85 -9.5 336.5t3.5 270.5q10 37 37.5 58.5t60.5 21.5q34 0 63 -22.5t40 -64.5
q9 -34 116 -156t117 -122q5 0 14.5 71t10.5 117q3 67 35 101.5t77 34.5q43 0 78.5 -31t44.5 -84q5 -32 -11 -152.5t-36 -193.5zM508 1264q10 21 18 43t13.5 33t17.5 26q35 41 82 41q36 0 67.5 -25.5t43.5 -68.5q15 -54 -18.5 -126t-95.5 -123.5t-120 -51.5q-60 0 -108 33.5
t-139 123.5l-17 17l-10 -23q-7 -17 -7.5 -51.5t-9.5 -62t-39 -45.5q-28 -17 -59 -17q-40 0 -69 28.5t-35 55.5q-17 63 16 164q35 105 80.5 153t111.5 48q47 0 100 -28.5t79 -51.5t82 -77q11 -10 16 -15z" />
    <glyph glyph-name="ograve" unicode="&#xf2;" 
d="M293 979q103 0 262 -76q39 -19 58.5 -33.5t52.5 -48.5q173 -170 90 -428q-51 -147 -141 -228t-203 -81q-17 0 -45 4q-86 12 -155.5 62t-112 123.5t-64 161t-15.5 180t37 173.5q32 83 98.5 137t137.5 54zM270 737q-17 -21 -21 -81t5 -127t41.5 -127t81.5 -76q17 -7 29 -7
q58 0 98.5 80.5t40.5 149.5q0 39 -9.5 62t-35.5 48q-31 30 -100 57t-107 27q-17 0 -23 -6zM506 1128q12 -54 -22 -91.5t-85 -37.5q-53 0 -92 39q-24 24 -110.5 134.5t-94.5 142.5q-12 51 19.5 88t77.5 37q31 0 57 -17q17 -10 106 -110q105 -119 121.5 -140.5t22.5 -44.5z
" />
    <glyph glyph-name="oacute" unicode="&#xf3;" 
d="M293 979q103 0 262 -76q39 -19 58.5 -33.5t52.5 -48.5q173 -170 90 -428q-51 -147 -141 -228t-203 -81q-17 0 -45 4q-86 12 -155.5 62t-112 123.5t-64 161t-15.5 180t37 173.5q32 83 98.5 137t137.5 54zM500 659q-31 30 -100 57t-107 27q-17 0 -23 -6q-17 -21 -21 -81
t5 -127t41.5 -127t81.5 -76q17 -7 29 -7q58 0 98.5 80.5t40.5 149.5q0 39 -9.5 62t-35.5 48zM514 1092q-52 -38 -82 -60q-42 -26 -84 -26q-54 0 -84.5 38t-19.5 91q6 23 22 41.5t35 32t64.5 44.5t85.5 62t58 40t40 9q40 0 69.5 -27t30.5 -67q3 -40 -24.5 -76t-110.5 -102z
" />
    <glyph glyph-name="ocircumflex" unicode="&#xf4;" 
d="M555 903q39 -19 58.5 -33.5t52.5 -48.5q173 -170 90 -428q-51 -147 -141 -228t-203 -81q-17 0 -45 4q-86 12 -155.5 62t-112 123.5t-64 161t-15.5 180t37 173.5q32 83 98.5 137t137.5 54q103 0 262 -76zM582 1331q57 -93 73 -129q20 -35 25.5 -51.5t5.5 -38.5
q3 -51 -25.5 -78.5t-70.5 -27.5q-39 0 -66 24q-10 9 -19 20.5t-17.5 26.5t-32 53t-52.5 82q-52 -84 -69.5 -111.5t-41 -55t-46.5 -39.5q-19 -11 -47 -11q-41 0 -75.5 28t-41.5 71q-2 11 -2 20.5t1.5 19t7.5 22t12 24t18 30.5t23.5 37.5t30 49t36.5 59.5q22 36 34.5 54.5
t36.5 46.5t51.5 41t59.5 13l33 -4q39 -12 68.5 -45t89.5 -131zM270 737q-17 -21 -21 -81t5 -127t41.5 -127t81.5 -76q17 -7 29 -7q58 0 98.5 80.5t40.5 149.5q0 39 -9.5 62t-35.5 48q-31 30 -100 57t-107 27q-17 0 -23 -6z" />
    <glyph glyph-name="otilde" unicode="&#xf5;" 
d="M555 903q39 -19 58.5 -33.5t52.5 -48.5q173 -170 90 -428q-51 -147 -141 -228t-203 -81q-17 0 -45 4q-86 12 -155.5 62t-112 123.5t-64 161t-15.5 180t37 173.5q32 83 98.5 137t137.5 54q103 0 262 -76zM772 1303q15 -54 -18.5 -126t-95 -124t-119.5 -52q-60 0 -108.5 34
t-139.5 124l-17 17l-10 -23q-7 -17 -7 -51.5t-9 -62.5t-39 -46q-27 -16 -59 -16q-40 0 -69.5 28.5t-35.5 55.5q-17 63 16 164q35 105 81 152.5t112 47.5q16 0 32.5 -3t30 -7t31 -13.5t28 -15t28.5 -19.5t26 -20t27 -23.5t24.5 -23t25.5 -25t23 -22.5q8 18 15 35.5t10 26
t9 19t16 22.5q35 41 82 41q36 0 67 -25.5t43 -68.5zM270 737q-17 -21 -21 -81t5 -127t41.5 -127t81.5 -76q17 -7 29 -7q58 0 98.5 80.5t40.5 149.5q0 39 -9.5 62t-35.5 48q-31 30 -100 57t-107 27q-17 0 -23 -6z" />
    <glyph glyph-name="odieresis" unicode="&#xf6;" 
d="M666 821q173 -170 90 -428q-51 -147 -141 -228t-203 -81q-17 0 -45 4q-86 12 -155.5 62t-112 123.5t-64 161t-15.5 180t37 173.5q32 83 98.5 137t137.5 54q103 0 262 -76q39 -19 58.5 -33.5t52.5 -48.5zM270 737q-17 -21 -21 -81t5 -127t41.5 -127t81.5 -76q17 -7 29 -7
q58 0 98.5 80.5t40.5 149.5q0 39 -9.5 62t-35.5 48q-31 30 -100 57t-107 27q-17 0 -23 -6zM217 1018q-40 19 -54 60.5t5 82.5q14 35 46.5 59.5t68.5 24.5q47 0 78 -35t24 -84q-9 -49 -45 -81.5t-86 -32.5q-37 0 -37 6zM639 1174q36 -73 -8 -123q-36 -39 -82 -39q-10 0 -20 2
t-14.5 3.5t-4.5 0.5q-64 23 -71.5 86.5t48.5 101.5q29 19 62 19q30 0 55 -13.5t35 -37.5z" />
    <glyph glyph-name="divide" unicode="&#xf7;" horiz-adv-x="638" 
d="M346 690q41 4 100 4q69 0 107 -28q34 -28 40.5 -68t-18 -75t-73.5 -48q-31 -8 -193 -8q-161 0 -188 8q-33 11 -56.5 41t-23.5 62q0 21 12.5 44.5t30.5 36.5q13 10 28.5 13.5t34.5 4.5l76 4t123 9zM401 285q-6 -29 -35.5 -52.5t-64.5 -23.5q-23 0 -39 8q-66 34 -65.5 98.5
t55.5 92.5q18 10 45 10q48 0 80.5 -39.5t23.5 -93.5zM258 758q-52 32 -46.5 94t62.5 90q27 12 48 12q41 0 71.5 -30.5t30.5 -71.5q0 -46 -34.5 -77.5t-78.5 -31.5q-29 0 -53 15z" />
    <glyph glyph-name="oslash" unicode="&#xf8;" 
d="M756 395q-53 -156 -145 -233.5t-199 -77.5q-42 0 -86 12q-20 -45 -45 -68.5t-68 -23.5q-40 0 -69 24t-38.5 74.5t21.5 128.5q-51 68 -78 152.5t-30 166t15.5 160t53.5 138t88.5 95.5t116.5 36q61 0 162 -33q15 30 26.5 46.5t33 30t50.5 13.5q47 0 77 -40.5t17 -94.5
q0 -3 -20 -51q76 -70 100 -123q77 -156 17 -332zM539 606q-61 -144 -119 -282q31 4 59 37t43.5 77t22 90.5t-5.5 77.5zM354 733q-42 10 -61 10q-17 0 -23 -6q-20 -24 -22.5 -98t8.5 -119q66 148 98 213z" />
    <glyph glyph-name="ugrave" unicode="&#xf9;" horiz-adv-x="647" 
d="M303 424q7 -10 12 -10q6 0 23 43q21 56 35.5 212t40.5 187q34 43 86 43q66 0 104 -65q10 -20 10 -88.5t-9.5 -152.5t-35 -174.5t-61.5 -144.5q-75 -110 -186 -110q-117 0 -206 125t-96 356q-4 109 6 151t46 66q28 19 57 19q32 0 58.5 -20t35.5 -52q5 -20 9 -101
t19.5 -160t51.5 -124zM158 1286q17 -10 106 -110q105 -119 121.5 -140.5t22.5 -44.5q12 -54 -22 -91.5t-85 -37.5q-53 0 -92 39q-24 24 -110.5 134.5t-94.5 142.5q-12 51 19 88t77 37q32 0 58 -17z" />
    <glyph glyph-name="uacute" unicode="&#xfa;" horiz-adv-x="647" 
d="M223 809q5 -20 9 -101t19.5 -160t51.5 -124q7 -10 12 -10q6 0 23 43q21 56 35.5 212t40.5 187q34 43 86 43q66 0 104 -65q10 -20 10 -88.5t-9.5 -152.5t-35 -174.5t-61.5 -144.5q-75 -110 -186 -110q-117 0 -206 125t-96 356q-4 109 6 151t46 66q28 19 57 19
q32 0 58.5 -20t35.5 -52zM211 995q6 23 22 41.5t35 32t64.5 45.5t85.5 62q40 31 58 40t40 9q40 0 69.5 -27.5t30.5 -67.5q3 -40 -24.5 -76t-110.5 -102q-15 -12 -82 -59q-43 -27 -84 -27q-54 0 -84.5 38t-19.5 91z" />
    <glyph glyph-name="ucircumflex" unicode="&#xfb;" horiz-adv-x="647" 
d="M20 645q-4 109 6 151t46 66q28 19 57 19q32 0 58.5 -20t35.5 -52q5 -20 9 -101t19.5 -160t51.5 -124q7 -10 12 -10q6 0 23 43q21 56 35.5 212t40.5 187q34 43 86 43q66 0 104 -65q10 -20 10 -88.5t-9.5 -152.5t-35 -174.5t-61.5 -144.5q-75 -110 -186 -110
q-117 0 -206 125t-96 356zM522 1257q61 -100 74 -129q20 -35 25.5 -51.5t5.5 -38.5q3 -51 -26 -78.5t-71 -27.5q-38 0 -65 24q-10 9 -19 21t-17.5 27t-31.5 52.5t-53 82.5q-51 -83 -69.5 -111.5t-42 -56t-46.5 -39.5q-18 -10 -47 -10q-41 0 -75 27.5t-41 70.5q-2 11 -2 20.5
t1.5 19t7.5 22t12 24t18 30.5t23.5 37.5t30 49t36.5 59.5q22 37 34.5 55t37 46.5t51.5 41.5t59 13l33 -4q38 -12 67.5 -45t89.5 -132z" />
    <glyph glyph-name="udieresis" unicode="&#xfc;" horiz-adv-x="647" 
d="M223 809q5 -20 9 -101t19.5 -160t51.5 -124q7 -10 12 -10q6 0 23 43q21 56 35.5 212t40.5 187q34 43 86 43q66 0 104 -65q10 -20 10 -88.5t-9.5 -152.5t-35 -174.5t-61.5 -144.5q-75 -110 -186 -110q-117 0 -206 125t-96 356q-4 109 6 151t46 66q28 19 57 19
q32 0 58.5 -20t35.5 -52zM291 1032q-9 -49 -45 -81.5t-86 -32.5q-37 0 -37 6q-40 19 -54 60.5t5 82.5q14 35 46 59.5t68 24.5q47 0 78.5 -35.5t24.5 -83.5zM545 1079q36 -73 -8 -123q-36 -38 -82 -38q-10 0 -20 2t-14.5 3.5t-4.5 0.5q-64 23 -71.5 86.5t48.5 101.5
q27 18 62 18q30 0 55 -13.5t35 -37.5z" />
    <glyph glyph-name="yacute" unicode="&#xfd;" horiz-adv-x="731" 
d="M668 862q34 -81 27.5 -215.5t-56.5 -234.5q-19 -39 -66.5 -99.5t-106 -121.5t-123.5 -104.5t-110 -43.5q-59 0 -95 46t-29 89q7 36 31.5 60.5t45.5 31.5l21 6q11 0 67.5 57.5t106.5 115t43 57.5q-3 0 -25 -19q-78 -69 -166 -69q-91 0 -153.5 83t-69.5 247q-6 195 64 251
q27 21 61 21q44 0 75.5 -30t25.5 -77q-9 -60 -3.5 -150.5t17.5 -90.5q8 0 45.5 55.5t77.5 119.5t45 71q42 55 112 55q44 0 81.5 -33t56.5 -78zM557 1329q40 0 69.5 -27t30.5 -67q3 -40 -24.5 -76t-110.5 -102q-52 -38 -82 -60q-42 -26 -84 -26q-54 0 -84.5 38t-19.5 91
q6 23 22 41.5t35 32t64.5 44.5t85.5 62t58 40t40 9z" />
    <glyph glyph-name="thorn" unicode="&#xfe;" horiz-adv-x="679" 
d="M240 905v-31l34 21q59 33 121 33q86 0 149.5 -66.5t84.5 -193.5q7 -48 3 -123t-16 -117q-31 -107 -101.5 -169t-160.5 -62q-23 0 -35 2q-38 6 -51 6q-4 0 -4 -41q1 -64 -31 -97.5t-79 -33.5q-38 0 -70.5 22.5t-44.5 61.5q-34 115 -8 854q1 1 6 9t6.5 9.5t7 9t8 9.5t8.5 8
t10 8t10.5 6t12.5 5.5t13.5 3t15.5 1.5q51 0 81 -36.5t30 -98.5zM324 647q-41 -41 -57.5 -73t-16.5 -70q0 -24 3 -31t15 -16q33 -23 74 -23q12 0 20 4q33 16 33 135t-20 119q-6 0 -51 -45z" />
    <glyph glyph-name="ydieresis" unicode="&#xff;" horiz-adv-x="731" 
d="M530 973q44 0 81.5 -33t56.5 -78q34 -81 27.5 -215.5t-56.5 -234.5q-19 -39 -66.5 -99.5t-106 -121.5t-123.5 -104.5t-110 -43.5q-59 0 -95 46t-29 89q7 36 31.5 60.5t45.5 31.5l21 6q11 0 67.5 57.5t106.5 115t43 57.5q-3 0 -25 -19q-78 -69 -166 -69q-91 0 -153.5 83
t-69.5 247q-6 195 64 251q27 21 61 21q44 0 75.5 -30t25.5 -77q-9 -60 -3.5 -150.5t17.5 -90.5q8 0 45.5 55.5t77.5 119.5t45 71q42 55 112 55zM184 1034q-40 19 -54 61t5 83q14 35 46.5 59.5t68.5 24.5q47 0 78 -35t24 -84q-9 -49 -45 -82t-86 -33q-37 0 -37 6zM455 1223
q27 18 61 18q30 0 55 -13.5t35 -37.5q36 -73 -8 -123q-36 -39 -82 -39q-10 0 -20 2t-14.5 3.5t-4.5 0.5q-64 23 -71 87t49 102z" />
    <glyph glyph-name="Amacron" unicode="&#x100;" horiz-adv-x="704" 
d="M645 369q84 -248 84 -301q0 -50 -31 -85.5t-75 -35.5q-29 0 -54 14q-34 17 -52 53t-56 162q-8 26 -16.5 50t-14.5 38t-8 15q-5 2 -83.5 -23.5t-88.5 -32.5q-6 -3 -17 -61q-6 -45 -16.5 -67.5t-34.5 -43.5q-21 -14 -65 -14q-30 0 -40.5 2.5t-25.5 13.5q-52 43 -49 113
q1 99 81.5 461t113.5 458q32 86 104 86q41 0 71.5 -26.5t30.5 -65.5q0 -12 21.5 -68.5t65.5 -175.5t83 -237q10 -33 17 -43t22 -18q40 -23 53.5 -64t-6.5 -78zM420 1415q69 -6 98.5 -57.5t-4.5 -102.5q-22 -31 -54.5 -43t-97.5 -12q-232 0 -256 33q-2 0 -13 13l-3 3
q-10 10 -16.5 38.5t-3.5 47.5q6 28 31 51t55 27q36 4 170 4q82 0 94 -2zM336 489l20 11q0 5 -16.5 63t-17.5 58q-1 2 -7.5 -28.5t-14.5 -67.5t-9 -42q-4 -8 4 -8q6 0 41 14z" />
    <glyph glyph-name="amacron" unicode="&#x101;" horiz-adv-x="700" 
d="M492 178q-20 64 -31 86q-3 3 -230 21q-2 -5 -9.5 -30t-9.5 -30.5t-9.5 -26t-12 -26.5t-13 -21t-16.5 -20t-19.5 -12.5t-24.5 -10t-29 -2.5q-50 0 -82.5 34.5t-32.5 88.5q0 24 81.5 254t158.5 426q19 48 56.5 89.5t82.5 41.5q31 0 58.5 -19t42.5 -54q24 -57 100 -260.5
t109 -300.5q64 -184 73.5 -235t-12.5 -91q-12 -27 -38 -42t-56 -15q-28 0 -49 12q-29 15 -46.5 44t-41.5 99zM483 1282q69 -6 99 -57.5t-4 -102.5q-22 -31 -54.5 -43t-97.5 -12q-232 0 -256 33q-2 0 -3 1t-13 15q-10 10 -17 38.5t-4 47.5q6 28 31 51t55 27q36 4 170 4
q82 0 94 -2zM305 502q0 -4 43 -4q33 0 33 2q0 7 -37 118q-39 -107 -39 -116z" />
    <glyph glyph-name="Abreve" unicode="&#x102;" horiz-adv-x="704" 
d="M659 395l-14 -26q84 -248 84 -301q0 -50 -31 -85.5t-75 -35.5q-29 0 -54 14q-34 17 -52 53t-56 162q-8 26 -16.5 50t-14.5 38t-8 15q-5 2 -83.5 -23.5t-88.5 -32.5q-6 -3 -17 -61q-6 -45 -16.5 -67.5t-34.5 -43.5q-21 -14 -65 -14q-30 0 -40.5 2.5t-25.5 13.5
q-52 43 -49 113q1 99 81.5 461t113.5 458q32 86 104 86q41 0 71.5 -26.5t30.5 -65.5q0 -12 21.5 -68.5t65.5 -175.5t83 -237q10 -33 17 -43t22 -18q40 -23 53.5 -64t-6.5 -78zM422 1231q-10 -7 -48.5 -21t-45.5 -14h-6q-6 1 -14.5 1.5t-16.5 0.5q-53 3 -105.5 32.5
t-83.5 72.5q-32 47 -53 137t-12 141q7 41 38 67.5t68 26.5q50 0 72 -32.5t31 -90.5q1 -9 4.5 -25t10 -40t14 -40.5t14.5 -16.5q10 0 33 52.5t32 78.5q26 68 44 94.5t46 38.5q20 10 45 10q43 0 76 -33q35 -32 37 -76t-29 -122q-34 -87 -75 -153t-76 -89zM291 483q-4 -8 4 -8
q6 0 41 14l20 11q0 5 -16.5 63t-17.5 58q-1 2 -7.5 -28.5t-14.5 -67.5t-9 -42z" />
    <glyph glyph-name="Aogonek" unicode="&#x104;" horiz-adv-x="704" 
d="M641 -211l29 23q24 16 57 49q55 59 104 59q31 0 60.5 -17t44.5 -46q48 -91 -98 -213q-121 -93 -199 -93q-18 0 -33 3q-96 17 -147 99t-31 189q21 117 72 215q-18 54 -39 119q-8 26 -16.5 50t-14.5 38t-8 15q-5 2 -83.5 -23.5t-88.5 -32.5q-6 -3 -17 -61
q-6 -45 -16.5 -67.5t-34.5 -43.5q-21 -14 -65 -14q-30 0 -40.5 2.5t-25.5 13.5q-52 43 -49 113q1 99 81.5 461t113.5 458q32 86 104 86q41 0 71.5 -26.5t30.5 -65.5q0 -12 21.5 -68.5t65.5 -175.5t83 -237q10 -33 17 -43t22 -18q40 -23 53.5 -64t-6.5 -78l-14 -26
q84 -248 84 -301q0 -41 -27 -80q-58 -142 -61 -178v-21zM291 483q-4 -8 4 -8q6 0 41 14l20 11q0 5 -16.5 63t-17.5 58q-1 2 -7.5 -28.5t-14.5 -67.5t-9 -42z" />
    <glyph glyph-name="aogonek" unicode="&#x105;" horiz-adv-x="700" 
d="M662 406q64 -184 73.5 -235t-12.5 -91q-9 -18 -14 -23q-18 -40 -39.5 -99.5t-22.5 -76.5v-20l29 22q24 16 57 49q56 60 105 60q31 0 60 -17.5t44 -46.5q48 -91 -98 -213q-120 -92 -199 -92q-23 0 -33 2q-96 17 -147 99.5t-31 189.5q20 116 74 219q-3 8 -8.5 23.5
t-7.5 21.5q-20 64 -31 86q-3 3 -230 21q-2 -5 -9.5 -30t-9.5 -30.5t-9.5 -26t-12 -26.5t-13 -21t-16.5 -20t-19.5 -12.5t-24.5 -10t-29 -2.5q-50 0 -82.5 34.5t-32.5 88.5q0 24 81.5 254t158.5 426q19 48 56.5 89.5t82.5 41.5q31 0 58.5 -19t42.5 -54q24 -57 100 -260.5
t109 -300.5zM305 502q0 -4 43 -4q33 0 33 2q0 7 -37 118q-39 -107 -39 -116z" />
    <glyph glyph-name="Cacute" unicode="&#x106;" horiz-adv-x="653" 
d="M520 811q-10 2 -22 2q-17 0 -45 -22q-73 -54 -122.5 -131t-56.5 -160q-4 -47 13 -78.5t46 -46t67 -27t73 -20t66 -25t45 -43.5q28 -54 -3.5 -107.5t-95.5 -60.5q-87 0 -199.5 48t-168.5 112q-94 107 -76.5 278.5t137.5 309.5q61 70 151.5 130t164.5 60t119 -48.5
t22 -107.5q-14 -38 -41.5 -50.5t-73.5 -12.5zM637 1139q-52 -38 -82 -60q-42 -26 -84 -26q-54 0 -84.5 38t-19.5 91q6 23 22 41.5t34.5 32t64 44.5t85.5 62q40 30 58 39.5t41 9.5q40 0 69.5 -27t30.5 -67q3 -40 -24.5 -76t-110.5 -102z" />
    <glyph glyph-name="cacute" unicode="&#x107;" horiz-adv-x="696" 
d="M279 606q-15 -32 -17.5 -66.5t10.5 -60.5q18 -28 55.5 -44.5t78.5 -16.5q48 0 81 20q61 37 91 37q21 0 45 -12q67 -30 60 -101q-8 -68 -78 -123q-78 -61 -187 -61q-92 0 -197 51q-190 97 -190 293q-1 82 31 152.5t81.5 115.5t106.5 70t110 25q47 0 82 -22.5t45 -63.5
q12 -39 -14 -80q-17 -26 -43 -36t-49.5 -9.5t-52 -15t-49.5 -52.5zM254 1044q6 23 22 41.5t35 32t64.5 45.5t85.5 62q40 31 58 40t40 9q40 0 69.5 -27t30.5 -67q3 -40 -24.5 -76.5t-110.5 -102.5q-16 -11 -82 -59q-43 -27 -84 -27q-54 0 -84.5 38t-19.5 91z" />
    <glyph glyph-name="Ccaron" unicode="&#x10c;" horiz-adv-x="653" 
d="M584 260q28 -54 -3.5 -107.5t-95.5 -60.5q-87 0 -199.5 48t-168.5 112q-94 107 -76.5 278.5t137.5 309.5q61 70 151.5 130t164.5 60t119 -48.5t22 -107.5q-14 -38 -41.5 -50.5t-73.5 -12.5q-10 2 -22 2q-17 0 -45 -22q-73 -54 -122.5 -131t-56.5 -160q-4 -47 13 -78.5
t46 -46t67 -27t73 -20t66 -25t45 -43.5zM596 1206q-50 -76 -76 -102q-53 -53 -112 -53q-23 0 -33 4q-38 12 -66.5 45.5t-83.5 132.5q-31 53 -67 127q-41 88 -19 143q27 53 92 53q39 0 66 -24q12 -12 24 -29.5t20 -31.5t20 -37.5t20 -36.5l29 -47l51 77q43 64 66 90.5
t48 38.5q22 11 48 11q42 0 75 -28t39 -71q3 -27 -7.5 -54t-45.5 -77q-15 -21 -88 -131z" />
    <glyph glyph-name="ccaron" unicode="&#x10d;" horiz-adv-x="696" 
d="M487 799q12 -39 -14 -80q-17 -26 -43 -36t-49.5 -9.5t-52 -15t-49.5 -52.5q-15 -32 -17.5 -66.5t10.5 -60.5q18 -28 55.5 -44.5t78.5 -16.5q48 0 81 20q61 37 91 37q21 0 45 -12q67 -30 60 -101q-8 -68 -78 -123q-78 -61 -187 -61q-92 0 -197 51q-190 97 -190 293
q-1 82 31 152.5t81.5 115.5t106.5 70t110 25q47 0 82 -22.5t45 -63.5zM496 1409q20 10 47 10q42 0 75 -27.5t39 -70.5q3 -27 -7.5 -54t-45.5 -77q-15 -21 -88 -131q-52 -79 -76 -103q-53 -53 -112 -53q-23 0 -33 4q-38 12 -66.5 45.5t-83.5 132.5q-31 53 -67 127
q-41 88 -19 144q13 25 38.5 39t54.5 14q37 0 65 -25q12 -12 24 -29.5t20 -31.5t20 -37.5t20 -36.5l29 -47l51 78q42 64 66 90.5t49 38.5z" />
    <glyph glyph-name="Dcaron" unicode="&#x10e;" horiz-adv-x="808" 
d="M-27 115q-14 51 15.5 90t89.5 49l41 6q-3 101 -7 172.5t-6 158t-2 306.5l-14 8q-26 19 -33.5 60t9.5 73q21 33 51 46.5t86 13.5h24q129 -7 236.5 -55.5t177 -121t103 -165.5t25 -187t-67 -187t-164.5 -163q-60 -40 -124.5 -77.5t-160 -77t-156.5 -39.5q-41 0 -77 25.5
t-46 64.5zM442 1427l29 -47l51 78q42 64 66 90.5t49 38.5q20 10 47 10q42 0 75.5 -27.5t39.5 -70.5q3 -26 -8 -53t-46 -78q-15 -21 -88 -131q-52 -79 -75 -102q-54 -54 -113 -54q-23 0 -33 4q-38 12 -65.5 45t-83.5 134q-37 63 -68 127q-40 86 -18 143q27 53 92 53
q38 0 65 -24q16 -16 28.5 -35.5t30.5 -54t25 -46.5zM520 535q23 65 5.5 125.5t-66.5 113.5q-60 60 -137 86q13 -180 23 -365q5 -105 11 -110q2 -1 4 0q7 2 35.5 20.5t68 55.5t56.5 74z" />
    <glyph glyph-name="dcaron" unicode="&#x10f;" horiz-adv-x="604" 
d="M240 104q-32 -14 -72 -14q-33 0 -37 4q-17 5 -49 33q-26 27 -32 49q-11 38 -11 242v80v96v73t-0.5 50t0 36.5t0.5 22t1.5 17.5t2.5 12.5t4.5 17t5.5 21.5q19 68 51 99.5t97 31.5q50 0 107 -22t109 -64t91.5 -95.5t56 -124.5t0.5 -143q-23 -100 -132.5 -242t-192.5 -180z
M422 1139q-12 49 9 87.5t65 49.5q8 2 24 2q45 0 76 -36.5t41 -104.5q28 -168 -23 -240q-36 -53 -90 -53q-14 0 -22 2q-99 21 -78 149q11 72 -2 144zM254 733q-2 -2 0.5 -51t6 -120t3.5 -109q24 31 38.5 54.5t25.5 52t8.5 56t-17.5 54.5q-10 18 -35 42t-30 21z" />
    <glyph glyph-name="Dcroat" unicode="&#x110;" horiz-adv-x="808" 
d="M96 27q-41 0 -77 25.5t-46 64.5q-14 51 15.5 90t89.5 49l41 6q-2 86 -5.5 158.5t-4.5 93.5q-23 0 -27 2q-39 9 -59 44t-12.5 76t42.5 66q35 19 51 19v178l-14 8q-26 19 -33.5 60t9.5 73q34 60 127 60q5 0 16.5 -1t17.5 -1q129 -7 236.5 -54.5t177 -120t103 -165.5
t25 -187t-67 -187t-164.5 -163q-300 -194 -441 -194zM344 512q7 -118 11 -124q2 -2 5 -1q7 2 35.5 20.5t68 55.5t56.5 74q20 37 13 86t-30.5 94t-71.5 84.5t-109 58.5l8 -123h18q38 0 54 -6t36 -26q41 -43 28.5 -105t-63.5 -82q-24 -8 -32 -8q-2 0 -11 1t-16 1z" />
    <glyph glyph-name="dcroat" unicode="&#x111;" horiz-adv-x="604" 
d="M-4 481q-51 14 -60 81.5t35 105.5l21 18q19 0 47 4v40.5t0.5 28t0.5 19.5t2 14t3 13t4.5 14.5t5.5 20.5q19 68 50 99.5t96 31.5q50 0 107 -22t109 -64t91.5 -95.5t56 -123.5t0.5 -142q-22 -101 -131 -243t-194 -179q-29 -14 -72 -14q-31 0 -37 4q-22 6 -49 33
q-32 31 -37.5 75t-5.5 277q-31 0 -43 4zM266 449q23 31 37.5 55t25 52t8.5 55.5t-18 54.5q-7 12 -21.5 28.5t-27 27t-14.5 7.5q-4 0 0 -29q20 -4 43 -30q36 -43 25.5 -104.5t-54.5 -82.5q-4 0 -6 -2q0 -22 2 -32z" />
    <glyph glyph-name="Emacron" unicode="&#x112;" horiz-adv-x="684" 
d="M653 903q0 -46 -31 -77t-77 -31q-12 0 -59.5 8t-94.5 8q-51 0 -108 -8q0 -1 -1.5 -34t-1 -56t4.5 -23q19 0 172 37q24 8 49 8q47 0 81 -30.5t34 -75.5q0 -33 -16.5 -58.5t-41.5 -40.5t-61 -25.5t-69.5 -16t-72.5 -10.5q-7 -1 -10 -1q-63 -7 -70.5 -13t-7.5 -46
q0 -46 4 -58q6 -13 85.5 -25.5t177.5 -15.5q76 -1 105 -9.5t48 -33.5q40 -51 16.5 -107.5t-92.5 -76.5q-24 -8 -100 -8q-41 0 -57 2q-14 2 -41 5q-40 5 -59.5 7.5t-53.5 8t-52.5 11t-46.5 14.5t-44 19t-36.5 25.5t-33 33.5t-24.5 42t-19 53q-11 67 -8 178t8 138q6 22 10 96
q3 52 2 63.5t-12 26.5q-28 45 -16 94q6 19 17 34.5t21 26.5t29.5 20t30 14t36.5 10.5t34.5 7t38.5 5.5t36 5q102 12 166 12q211 0 211 -133zM500 1276q69 -6 98.5 -57.5t-4.5 -102.5q-22 -31 -54.5 -43t-97.5 -12q-232 0 -256 33q-2 0 -13 13l-3 3q-10 10 -16.5 38.5
t-3.5 47.5q6 28 31 51t55 27q36 4 170 4q82 0 94 -2z" />
    <glyph glyph-name="emacron" unicode="&#x113;" horiz-adv-x="747" 
d="M309 676q21 2 45.5 4t37.5 3t22 1q19 0 43 -12q57 -28 57.5 -92.5t-57.5 -96.5q-18 -10 -38 -16t-35.5 -7.5t-32 -3t-26.5 -1.5t-18 -3.5t-8 -9.5t4 -18q10 -23 88.5 -35t171.5 -12q61 0 99 6q3 0 9 1t9 1q54 0 84.5 -33t27 -78t-37.5 -79q-29 -30 -65 -40t-116 -12h-28
q-112 0 -197 16t-133 42t-79.5 57.5t-43 65t-16.5 61.5t-8 49.5t-9 26.5q-21 18 -23.5 57t15.5 66q15 23 21 26q6 4 8.5 60t-8.5 82q-9 19 -9 46t9 44q23 44 80 61q70 19 243 19q145 0 191 -15q39 -12 67.5 -46.5t28.5 -69.5q0 -25 -13 -50.5t-32 -35.5q-36 -23 -70 -23
q-16 0 -49.5 3t-94.5 8.5t-130 8.5q0 -3 1 -7q1 -17 8 -18zM612 1010q-22 -31 -54 -43.5t-97 -12.5q-232 0 -256 33q-1 0 -3 2t-14 15q-10 10 -16.5 38.5t-3.5 47.5q6 28 30.5 50.5t55.5 26.5q36 4 170 4q82 0 94 -2q69 -6 98.5 -57t-4.5 -102z" />
    <glyph glyph-name="Edotaccent" unicode="&#x116;" horiz-adv-x="684" 
d="M457 727q24 8 49 8q47 0 81 -30.5t34 -75.5q0 -33 -16.5 -58.5t-41.5 -40.5t-61 -25.5t-69.5 -16t-72.5 -10.5q-7 -1 -10 -1q-63 -7 -70.5 -13t-7.5 -46q0 -46 4 -58q6 -13 85.5 -25.5t177.5 -15.5q76 -1 105 -9.5t48 -33.5q40 -51 16.5 -107.5t-92.5 -76.5
q-24 -8 -100 -8q-41 0 -57 2q-14 2 -41 5q-40 5 -59.5 7.5t-53.5 8t-52.5 11t-46.5 14.5t-44 19t-36.5 25.5t-33 33.5t-24.5 42t-19 53q-11 67 -8 178t8 138q6 22 10 96q3 52 2 63.5t-12 26.5q-28 45 -16 94q6 19 17 34.5t21 26.5t29.5 20t30 14t36.5 10.5t34.5 7t38.5 5.5
t36 5q102 12 166 12q211 0 211 -133q0 -46 -31 -77t-77 -31q-12 0 -59.5 8t-94.5 8q-51 0 -108 -8q0 -1 -1.5 -34t-1 -56t4.5 -23q19 0 172 37zM512 1174q-19 -47 -63 -79t-93 -32q-51 0 -101.5 42t-64.5 91q-12 51 7 99t63 79q40 27 86 27q85 0 141 -71.5t25 -155.5z" />
    <glyph glyph-name="Eogonek" unicode="&#x118;" horiz-adv-x="684" 
d="M506 -80v-20l29 22q24 16 57 49q56 60 104 60q31 0 60.5 -17.5t44.5 -46.5q47 -90 -99 -213q-120 -92 -198 -92q-23 0 -33 2q-96 17 -147 99.5t-31 189.5q14 77 43 149q-120 17 -190 59.5t-97 143.5q-11 67 -8 178t8 138q6 22 10 96q3 52 2 63.5t-12 26.5q-28 45 -16 94
q6 19 17 34.5t21 26.5t29.5 20t30 14t36.5 10.5t34.5 7t38.5 5.5t36 5q102 12 166 12q211 0 211 -133q0 -46 -31 -77t-77 -31q-12 0 -59.5 8t-94.5 8q-51 0 -108 -8q0 -1 -1.5 -34t-1 -56t4.5 -23q19 0 172 37q24 8 49 8q47 0 81 -30.5t34 -75.5q0 -33 -16.5 -58.5
t-41.5 -40.5t-61 -25.5t-69.5 -16t-72.5 -10.5q-7 -1 -10 -1q-63 -7 -70.5 -13t-7.5 -46q0 -46 4 -58q6 -13 85.5 -25.5t177.5 -15.5q76 -1 105 -9.5t48 -33.5q40 -51 16.5 -107.5t-92.5 -76.5q-14 -5 -55 -8q-53 -139 -55 -164z" />
    <glyph glyph-name="eogonek" unicode="&#x119;" horiz-adv-x="813" 
d="M586 907q39 -12 67.5 -46.5t28.5 -69.5q0 -25 -13 -50.5t-32 -35.5q-36 -23 -70 -23q-16 0 -49.5 3t-94.5 8.5t-130 8.5q0 -3 1 -7q1 -17 8 -18l7 -1q21 2 45.5 4t37.5 3t22 1q19 0 43 -12q57 -28 57.5 -92.5t-57.5 -96.5q-18 -10 -38 -16t-35.5 -7.5t-32 -3t-26.5 -1.5
t-18 -3.5t-8 -9.5t4 -18q10 -23 88.5 -35t171.5 -12q61 0 99 6q3 0 9 1t9 1q54 0 84.5 -33t27 -78t-37.5 -79q-28 -28 -60 -38.5t-98 -13.5q-56 -144 -59 -174v-20l28 22q27 18 58 49q56 60 104 60q31 0 60 -17.5t44 -46.5q48 -91 -98 -213q-120 -92 -198 -92q-23 0 -33 2
q-96 17 -147 99.5t-31 189.5q11 62 43 154q-82 13 -141 40t-87 58t-44.5 66t-19.5 63t-6.5 50.5t-9.5 27.5q-21 18 -23.5 57t15.5 66q15 23 21 26q6 4 8.5 60t-8.5 82q-9 19 -9 46t9 44q23 44 80 61q70 19 243 19q145 0 191 -15z" />
    <glyph glyph-name="Ecaron" unicode="&#x11a;" horiz-adv-x="684" 
d="M621 629q0 -33 -16.5 -58.5t-41.5 -40.5t-61 -25.5t-69.5 -16t-72.5 -10.5q-7 -1 -10 -1q-63 -7 -70.5 -13t-7.5 -46q0 -46 4 -58q6 -13 85.5 -25.5t177.5 -15.5q76 -1 105 -9.5t48 -33.5q40 -51 16.5 -107.5t-92.5 -76.5q-24 -8 -100 -8q-41 0 -57 2q-14 2 -41 5
q-40 5 -59.5 7.5t-53.5 8t-52.5 11t-46.5 14.5t-44 19t-36.5 25.5t-33 33.5t-24.5 42t-19 53q-11 67 -8 178t8 138q6 22 10 96q3 52 2 63.5t-12 26.5q-28 45 -16 94q6 19 17 34.5t21 26.5t29.5 20t30 14t36.5 10.5t34.5 7t38.5 5.5t36 5q102 12 166 12q211 0 211 -133
q0 -46 -31 -77t-77 -31q-12 0 -59.5 8t-94.5 8q-51 0 -108 -8q0 -1 -1.5 -34t-1 -56t4.5 -23q19 0 172 37q24 8 49 8q47 0 81 -30.5t34 -75.5zM399 1430q42 64 66 90.5t49 38.5q20 10 47 10q42 0 75.5 -28t39.5 -71q3 -27 -7.5 -54t-45.5 -77q-15 -21 -88 -131
q-50 -76 -76 -102q-53 -53 -113 -53q-23 0 -33 4q-38 12 -65.5 45t-83.5 133q-37 63 -68 127q-40 86 -18 143q28 54 92 54q38 0 66 -25q16 -16 28.5 -35.5t30 -53t24.5 -46.5l29 -47z" />
    <glyph glyph-name="ecaron" unicode="&#x11b;" horiz-adv-x="813" 
d="M457 672q57 -28 57.5 -92.5t-57.5 -96.5q-18 -10 -38 -16t-35.5 -7.5t-32 -3t-26.5 -1.5t-18 -3.5t-8 -9.5t4 -18q10 -23 88.5 -35t171.5 -12q61 0 99 6q3 0 9 1t9 1q54 0 84.5 -33t27 -78t-37.5 -79q-29 -30 -65 -40t-116 -12h-28q-112 0 -197 16t-133 42t-79.5 57.5
t-43 65t-16.5 61.5t-8 49.5t-9 26.5q-21 18 -23.5 57t15.5 66q15 23 21 26q6 4 8.5 60t-8.5 82q-9 19 -9 46t9 44q23 44 80 61q70 19 243 19q145 0 191 -15q39 -12 67.5 -46.5t28.5 -69.5q0 -25 -13 -50.5t-32 -35.5q-36 -23 -70 -23q-16 0 -49.5 3t-94.5 8.5t-130 8.5
q0 -3 1 -7q1 -17 8 -18l7 -1q21 2 45.5 4t37.5 3t22 1q19 0 43 -12zM434 1327q42 64 66 90.5t49 38.5q20 10 47 10q42 0 75.5 -27.5t39.5 -70.5q3 -26 -8 -53t-46 -78q-15 -21 -88 -131q-52 -79 -75 -102q-54 -54 -113 -54q-23 0 -33 4q-38 12 -65.5 45t-83.5 134
q-37 63 -68 127q-40 86 -18 143q27 53 92 53q38 0 65 -24q16 -16 28.5 -35.5t30.5 -54t25 -46.5l29 -47z" />
    <glyph glyph-name="Gbreve" unicode="&#x11e;" horiz-adv-x="821" 
d="M717 635q84 -57 84 -182q0 -101 -62.5 -201.5t-162.5 -164.5t-203 -64q-34 0 -76 10q-118 34 -189 140t-79.5 253.5t43.5 323.5q57 179 155 261.5t205 82.5q104 0 164.5 -65t15.5 -136q-27 -43 -82 -43q-26 0 -53 12q-30 17 -41 17q-17 0 -40.5 -20.5t-43.5 -49.5
q-14 -22 -35.5 -71t-21.5 -58q72 -2 162 -4q132 -1 175.5 -8.5t84.5 -32.5zM688 1391q-34 -87 -75 -153t-76 -89q-10 -7 -49 -21t-46 -14h-6q-5 1 -13.5 1.5t-16.5 0.5q-53 3 -105.5 32.5t-83.5 72.5q-32 47 -53 137t-12 141q7 41 38 67.5t68 26.5q50 0 71.5 -32.5
t30.5 -90.5q1 -9 4.5 -25t10 -40t14 -40.5t14.5 -16.5q10 0 34 53t32 78q26 68 44 94.5t46 38.5q20 10 45 10q43 0 76 -33q35 -32 37 -76t-29 -122zM260 457q-4 -4 6 -52t21 -71q35 -74 92 -74q59 0 121.5 66t62.5 106q0 10 -82 10h-82q-73 0 -108 9q-29 8 -31 6z" />
    <glyph glyph-name="gbreve" unicode="&#x11f;" horiz-adv-x="704" 
d="M512 592q95 -48 139 -123t32 -149t-71 -130q-86 -77 -202 -77q-82 0 -159 37.5t-137.5 113.5t-84.5 178q-30 134 21 261.5t171 199.5q74 45 152 45q103 0 143 -76q28 -54 -1 -106.5t-87 -52.5q-28 1 -46 8.5t-20 7.5q-31 0 -70.5 -60t-39.5 -94v-22q1 0 2.5 2t5 7t6.5 9
q17 27 47.5 42.5t65.5 15.5q19 0 61 -12t72 -25zM631 1255q-33 -87 -74.5 -152t-77.5 -89q-10 -7 -48.5 -21t-45.5 -14l-6 1q-6 0 -14.5 0.5t-16.5 0.5q-53 3 -105 32t-83 72q-32 47 -53.5 137.5t-12.5 141.5q7 41 38.5 67.5t68.5 26.5q50 0 71.5 -32.5t30.5 -90.5
q1 -9 4.5 -25t10 -40t14 -41t14.5 -17q10 0 34 53t32 78q26 68 44 95t46 39q20 10 45 10q43 0 76 -33q35 -32 37 -76.5t-29 -122.5zM438 356q-2 8 -28.5 20.5t-55.5 18.5q-45 13 -47 15h-4q-10 0 24 -30q19 -15 31 -22q16 -8 54 -8q26 0 26 6z" />
    <glyph glyph-name="Imacron" unicode="&#x12a;" horiz-adv-x="344" 
d="M55 51q-13 43 -5.5 511t22.5 519q11 37 37.5 55.5t58.5 18.5q57 0 88 -45q10 -17 12.5 -32t5.5 -79q3 -73 4.5 -484.5t-8.5 -483.5q-8 -15 -29 -37.5t-28 -22.5q-5 0 -25 -4q-6 -2 -18 -2l-31 4q-26 5 -51 33q-25 25 -33 49zM391 1237q-22 -31 -54 -43t-97 -12
q-232 0 -256 32q-2 0 -3.5 2t-13.5 15q-10 10 -16.5 38.5t-3.5 47.5q6 28 31 51t55 27q36 4 170 4q82 0 94 -2q69 -6 98.5 -57.5t-4.5 -102.5z" />
    <glyph glyph-name="imacron" unicode="&#x12b;" horiz-adv-x="325" 
d="M59 190q-6 22 -5.5 336t7.5 351q9 47 38 72.5t65 25.5q65 0 92 -64q7 -17 10.5 -64.5t9.5 -223.5q10 -339 9.5 -398t-11.5 -78l-2 -4q-13 -24 -41.5 -40.5t-56.5 -16.5q-39 0 -71.5 32t-43.5 72zM381 1065q-22 -31 -54.5 -43t-97.5 -12q-232 0 -256 32q-1 0 -5 4
q-5 6 -11 13q-10 10 -16.5 38.5t-3.5 47.5q6 28 31 51t55 27q36 4 170 4q82 0 94 -2q69 -6 98.5 -57.5t-4.5 -102.5z" />
    <glyph glyph-name="Iogonek" unicode="&#x12e;" horiz-adv-x="344" 
d="M72 1081q11 37 37.5 55.5t58.5 18.5q57 0 88 -45q10 -17 12.5 -32t5.5 -79q3 -73 4.5 -484.5t-8.5 -483.5q0 -1 -1 -2t-1 -2q-3 -16 -12 -31q-16 -37 -41.5 -106.5t-26.5 -86.5v-20l29 22q21 14 57 50q55 59 105 59q31 0 60 -17.5t44 -46.5q24 -48 0 -99t-98 -113
q-121 -93 -199 -93q-22 0 -32 2q-96 17 -147.5 99.5t-31.5 189.5q21 124 78 227q-11 93 -3.5 531.5t22.5 486.5z" />
    <glyph glyph-name="iogonek" unicode="&#x12f;" horiz-adv-x="325" 
d="M281 -18q55 59 104 59q31 0 60 -17.5t44 -46.5q48 -91 -98 -213q-120 -92 -198 -92q-23 0 -33 2q-96 17 -147 99.5t-31 189.5q21 126 77 227q-6 27 -5.5 338.5t7.5 348.5q9 47 38 72.5t65 25.5q65 0 92 -64q7 -17 10.5 -64.5t9.5 -223.5q10 -339 9.5 -398t-11.5 -78
l-2 -4q-1 -1 -2 -3t-2 -3q-15 -29 -43.5 -108t-29.5 -99v-20l28 22q24 16 58 50z" />
    <glyph glyph-name="Idotaccent" unicode="&#x130;" horiz-adv-x="344" 
d="M72 1081q11 37 37.5 55.5t58.5 18.5q57 0 88 -45q10 -17 12.5 -32t5.5 -79q3 -73 4.5 -484.5t-8.5 -483.5q-8 -15 -29 -37.5t-28 -22.5q-5 0 -25 -4q-6 -2 -18 -2l-31 4q-26 5 -51 33q-25 25 -33 49q-13 43 -5.5 511t22.5 519zM80 1491q40 27 86 27q85 0 141 -72t25 -156
q-19 -47 -63 -78.5t-93 -31.5q-51 0 -101.5 42t-64.5 91q-12 51 7 99t63 79z" />
    <glyph glyph-name="dotlessi" unicode="&#x131;" horiz-adv-x="325" 
d="M59 190q-6 22 -5.5 336t7.5 351q9 47 38 72.5t65 25.5q65 0 92 -64q7 -17 10.5 -64.5t9.5 -223.5q10 -339 9.5 -398t-11.5 -78l-2 -4q-13 -24 -41.5 -40.5t-56.5 -16.5q-39 0 -71.5 32t-43.5 72z" />
    <glyph glyph-name="Lacute" unicode="&#x139;" horiz-adv-x="747" 
d="M63 1081q26 56 95 56q20 0 35.5 -6t25.5 -13t18.5 -24t12.5 -26.5t7.5 -34t4.5 -33.5t4 -37l25.5 -212.5t25.5 -220.5q30 -283 54 -307q6 -6 24 -6q6 0 15 0.5t25.5 1.5t29.5 2q59 4 104 10t66.5 9.5t32.5 3.5q14 0 32 -6q63 -22 76.5 -85.5t-33.5 -109.5
q-33 -31 -139 -45t-190 -14q-113 0 -183 44.5t-100 161.5q-32 128 -62.5 485.5t-5.5 405.5zM332 1253q-16 -11 -82 -59q-43 -27 -84 -27q-54 0 -85 38t-20 91q6 23 22 41.5t35 32t64.5 45.5t85.5 62t58 39.5t41 9.5q40 0 69.5 -27t30.5 -67q3 -40 -24.5 -76.5t-110.5 -102.5
z" />
    <glyph glyph-name="lacute" unicode="&#x13a;" horiz-adv-x="638" 
d="M297 385q12 -30 90 -48.5t133 -21.5q55 -4 71 -8.5t38 -19.5q49 -35 39 -97.5t-70 -93.5q-29 -16 -86 -16q-47 0 -115 14q-59 12 -99.5 24t-82 31.5t-68 45t-48.5 64t-33 89.5q-13 55 -10.5 260t-0.5 246q-9 55 25 91t82 36q66 0 94 -66q21 -48 25.5 -273.5t15.5 -256.5z
M395 1071q-16 -11 -82 -59q-43 -27 -84 -27q-54 0 -84.5 38t-19.5 91q6 23 22 41.5t35 32t64.5 44.5t85.5 62t58 40t40 9q40 0 69.5 -27t30.5 -67q3 -40 -24.5 -76t-110.5 -102z" />
    <glyph glyph-name="Lcaron" unicode="&#x13d;" horiz-adv-x="747" 
d="M317 530q30 -283 54 -307q6 -6 24 -6q6 0 15 0.5t25.5 1.5t29.5 2q59 4 104 10t66.5 9.5t32.5 3.5q14 0 32 -6q63 -22 76.5 -85.5t-33.5 -109.5q-33 -31 -139 -45t-190 -14q-113 0 -183 44.5t-100 161.5q-32 128 -62.5 485.5t-5.5 405.5q26 56 95 56q20 0 35.5 -6
t25.5 -13t18.5 -24t12.5 -26.5t7.5 -34t4.5 -33.5t4 -37l25.5 -212.5t25.5 -220.5zM350 1032q-12 49 9 87.5t65 49.5q8 2 25 2q45 0 75.5 -36.5t40.5 -104.5q28 -168 -22 -239q-36 -54 -90 -54q-15 0 -23 2q-99 21 -78 150q11 72 -2 143z" />
    <glyph glyph-name="lcaron" unicode="&#x13e;" horiz-adv-x="655" 
d="M297 385q12 -30 90 -48.5t133 -21.5q55 -4 71 -8.5t38 -19.5q49 -35 39 -97.5t-70 -93.5q-29 -16 -86 -16q-47 0 -115 14q-59 12 -99.5 24t-82 31.5t-68 45t-48.5 64t-33 89.5q-13 55 -10.5 260t-0.5 246q-9 55 25 91t82 36q66 0 94 -66q21 -48 25.5 -273.5t15.5 -256.5z
M422 578q-99 21 -78 149q11 72 -2 143q-12 50 9 89t65 49q8 2 24 2q45 0 76 -37t41 -105q28 -168 -22 -239q-36 -54 -91 -54q-10 0 -22 3z" />
    <glyph glyph-name="Lslash" unicode="&#x141;" horiz-adv-x="747" 
d="M743 43q-33 -31 -139 -45t-190 -14q-113 0 -183 44.5t-100 161.5q-17 68 -35 209q-8 -7 -28 -20q-24 -12 -52 -12q-53 0 -82 42t-8 97l13 33q58 49 131 114q-30 382 -7 428q26 56 95 56q20 0 35.5 -6t25.5 -13t18.5 -24t12.5 -26.5t7.5 -34t4.5 -33.5t4 -37
q2 -19 17 -138q42 25 77 25q67 -3 93 -61.5t-13 -110.5q-15 -21 -35.5 -39t-73.5 -60q-12 -9 -18 -14q4 -28 4 -35q30 -283 54 -307q6 -6 24 -6q6 0 15 0.5t25.5 1.5t29.5 2q57 4 102 9.5t66.5 8.5t32.5 3q13 0 34 -6q41 -13 62.5 -47.5t16.5 -75t-36 -70.5z" />
    <glyph glyph-name="lslash" unicode="&#x142;" horiz-adv-x="638" 
d="M535 313q55 -3 70.5 -7t35.5 -21q49 -35 39 -97.5t-70 -93.5q-25 -14 -88 -14q-54 0 -110 12q-60 13 -100 25t-82 31.5t-69 45t-49 63.5t-34 89q-6 42 -6 55q-6 -3 -6 -4q-27 -12 -54 -12q-53 0 -82 42t-8 97l12 31q63 54 136 119q3 136 -2 178q-9 57 24.5 93t81.5 36
q67 0 96 -66q9 -24 15 -67q36 20 71 20q67 -3 93 -61.5t-13 -110.5q-6 -9 -13 -17t-13.5 -14.5t-19.5 -17.5t-22.5 -18.5t-32 -25t-38.5 -30.5q4 -158 14 -190q12 -32 89.5 -49.5t134.5 -20.5z" />
    <glyph glyph-name="Nacute" unicode="&#x143;" horiz-adv-x="765" 
d="M541 1118q37 49 94 49q41 0 72 -28q32 -28 41.5 -68t3.5 -118t-31 -257q-17 -119 -29.5 -186.5t-29 -116t-34.5 -70.5t-48 -40q-31 -17 -70 -17q-34 0 -68 15q-33 18 -63.5 52.5t-51 67.5t-48.5 84q-6 11 -9 17q0 -99 2 -189t4 -134t3 -82.5t-2.5 -55.5t-10 -30.5
t-20.5 -28.5q-37 -37 -78 -37q-11 0 -39 8q-12 0 -40.5 28.5t-35.5 55.5q-17 61 -20 651q-2 360 4 403q5 30 22 48q32 35 78 35q22 0 62 -19q37 -17 52 -39.5t46 -103.5q22 -56 63.5 -150.5t75.5 -166t37 -68.5q39 223 47 389q3 53 6.5 68.5t14.5 33.5zM532 1434
q40 30 58 39.5t41 9.5q40 0 69.5 -27t30.5 -67q3 -40 -24.5 -76.5t-110.5 -102.5q-15 -11 -82 -59q-44 -27 -84 -27q-54 0 -84.5 38t-19.5 91q6 23 22 41.5t34.5 32t64.5 45.5t85 62z" />
    <glyph glyph-name="nacute" unicode="&#x144;" horiz-adv-x="751" 
d="M522 291q-40 0 -83 26.5t-66 49t-82 88.5l-6 6t-5 5.5t-6 6.5q12 -194 13 -217.5t-2 -67.5q-9 -37 -40.5 -61.5t-68.5 -24.5q-112 0 -125 172q-7 85 -9.5 336.5t3.5 270.5q10 37 37.5 58.5t60.5 21.5q34 0 63 -22.5t40 -64.5q9 -34 116 -156t117 -122q5 0 14.5 71
t10.5 117q3 67 35 101.5t77 34.5q43 0 78.5 -31t44.5 -84q5 -32 -11 -152.5t-36 -193.5q-20 -80 -64.5 -124t-105.5 -44zM483 922q-44 -27 -84 -27q-54 0 -84.5 38t-19.5 91q6 23 22 41.5t35 32t64.5 44.5t85.5 62t58 40t40 9q40 0 69.5 -27t30.5 -67q3 -40 -24.5 -76
t-110.5 -102q-15 -11 -82 -59z" />
    <glyph glyph-name="Ncaron" unicode="&#x147;" horiz-adv-x="765" 
d="M721 696q-17 -119 -29.5 -186.5t-29 -116t-34.5 -70.5t-48 -40q-31 -17 -70 -17q-34 0 -68 15q-33 18 -63.5 52.5t-51 67.5t-48.5 84q-6 11 -9 17q0 -99 2 -189t4 -134t3 -82.5t-2.5 -55.5t-10 -30.5t-20.5 -28.5q-37 -37 -78 -37q-11 0 -39 8q-12 0 -40.5 28.5
t-35.5 55.5q-17 61 -20 651q-2 360 4 403q5 30 22 48q32 35 78 35q22 0 62 -19q37 -17 52 -39.5t46 -103.5q22 -56 63.5 -150.5t75.5 -166t37 -68.5q39 223 47 389q3 53 6.5 68.5t14.5 33.5q37 49 94 49q41 0 72 -28q32 -28 41.5 -68t3.5 -118t-31 -257zM580 1268
q-52 -79 -76 -103q-53 -53 -113 -53q-23 0 -33 4q-38 12 -65.5 45t-83.5 133q-37 63 -68 127q-40 87 -18 144q27 53 92 53q38 0 66 -25q12 -12 24 -29.5t20 -31.5t20 -37.5t20 -36.5l28 -47l51 78q42 64 66 90.5t49 38.5q20 10 47 10q42 0 75.5 -27.5t39.5 -70.5
q3 -27 -7.5 -54t-45.5 -77q-15 -21 -88 -131z" />
    <glyph glyph-name="ncaron" unicode="&#x148;" horiz-adv-x="751" 
d="M479 596q5 0 14.5 71t10.5 117q3 67 35 101.5t77 34.5q43 0 78.5 -31t44.5 -84q5 -32 -11 -152.5t-36 -193.5q-20 -80 -64.5 -124t-105.5 -44q-40 0 -83 26.5t-66 49t-82 88.5l-6 6t-5 5.5t-6 6.5q12 -194 13 -217.5t-2 -67.5q-9 -37 -40.5 -61.5t-68.5 -24.5
q-112 0 -125 172q-7 85 -9.5 336.5t3.5 270.5q10 37 37.5 58.5t60.5 21.5q34 0 63 -22.5t40 -64.5q9 -34 116 -156t117 -122zM543 1044q-50 -76 -76 -102q-53 -53 -113 -53q-22 0 -32 4q-38 12 -66.5 45.5t-83.5 132.5q-37 63 -68 127q-40 86 -18 143q28 54 92 54
q38 0 66 -25q12 -12 24 -29.5t20 -31.5t20 -37.5t20 -36.5l28 -47l52 78q43 64 66 90.5t48 38.5q20 10 47 10q42 0 75.5 -27.5t39.5 -70.5q3 -27 -7.5 -54t-45.5 -77q-10 -13 -88 -132z" />
    <glyph glyph-name="Omacron" unicode="&#x14c;" horiz-adv-x="901" 
d="M868 688q0 -78 -18.5 -167.5t-57 -179.5t-91 -163t-127.5 -118.5t-160 -45.5q-82 0 -157.5 43t-129.5 124t-80 185t-7.5 239t85.5 272q80 157 154 157q12 0 110 34t162 34q34 0 61 -8q113 -33 184.5 -136.5t71.5 -269.5zM319 784l-18 -51q-40 -124 -35 -230.5t47 -178.5
t99 -72q43 0 86.5 46t81.5 142q33 84 46 157t8 121.5t-19.5 83.5t-33.5 50.5t-38 15.5q-51 0 -224 -84zM311 1194q-10 10 -16.5 38.5t-3.5 47.5q6 28 31 51t55 27q36 4 170 4q82 0 94 -2q69 -6 98.5 -57.5t-4.5 -102.5q-22 -31 -54 -43t-97 -12q-232 0 -256 33q-3 0 -17 16z
" />
    <glyph glyph-name="omacron" unicode="&#x14d;" 
d="M293 979q103 0 262 -76q39 -19 58.5 -33.5t52.5 -48.5q173 -170 90 -428q-51 -147 -141 -228t-203 -81q-17 0 -45 4q-86 12 -155.5 62t-112 123.5t-64 161t-15.5 180t37 173.5q32 83 98.5 137t137.5 54zM270 737q-17 -21 -21 -81t5 -127t41.5 -127t81.5 -76q17 -7 29 -7
q58 0 98.5 80.5t40.5 149.5q0 39 -9.5 62t-35.5 48q-31 30 -100 57t-107 27q-17 0 -23 -6zM453 1012q-232 0 -256 32q-1 0 -3 1.5t-14 15.5q-10 10 -16.5 38.5t-3.5 47.5q6 28 31 51t55 27q36 4 170 4q82 0 94 -2q69 -6 98.5 -57.5t-4.5 -102.5q-22 -31 -54 -43t-97 -12z
" />
    <glyph glyph-name="Ohungarumlaut" unicode="&#x150;" horiz-adv-x="901" 
d="M868 688q0 -78 -18.5 -167.5t-57 -179.5t-91 -163t-127.5 -118.5t-160 -45.5q-82 0 -157.5 43t-129.5 124t-80 185t-7.5 239t85.5 272q80 157 154 157q12 0 110 34t162 34q34 0 61 -8q113 -33 184.5 -136.5t71.5 -269.5zM580 440q33 84 46 157t8 121.5t-19.5 83.5
t-33.5 50.5t-38 15.5q-51 0 -224 -84l-18 -51q-40 -124 -35 -230.5t47 -178.5t99 -72q43 0 86.5 46t81.5 142zM891 1440q16 -38 0.5 -73t-76.5 -99q-57 -57 -92 -97q-30 -30 -53 -43.5t-58 -13.5t-57 16q-37 29 -44 72.5t19 83.5q19 29 110 111.5t116 93.5q16 8 39 8
q32 0 59 -16t37 -43zM621 1458q1 -29 -14.5 -53t-69.5 -78q-64 -64 -88 -96q-27 -35 -54 -49.5t-67 -14.5q-90 24 -90 109q0 21 3 31t15 32q31 52 120.5 132.5t137.5 80.5q40 0 72 -27.5t35 -66.5z" />
    <glyph glyph-name="ohungarumlaut" unicode="&#x151;" 
d="M666 821q173 -170 90 -428q-51 -147 -141 -228t-203 -81q-17 0 -45 4q-86 12 -155.5 62t-112 123.5t-64 161t-15.5 180t37 173.5q32 83 98.5 137t137.5 54q103 0 262 -76q39 -19 58.5 -33.5t52.5 -48.5zM377 326q17 -7 29 -7q58 0 98.5 80.5t40.5 149.5q0 39 -9.5 62
t-35.5 48q-31 30 -100 57t-107 27q-17 0 -23 -6q-17 -21 -21 -81t5 -127t41.5 -127t81.5 -76zM719 1305q16 -38 0.5 -73t-76.5 -99q-57 -57 -92 -97q-30 -30 -53 -43.5t-58 -13.5t-57 16q-37 29 -44 72.5t19 83.5q19 29 110 111.5t116 93.5q16 8 39 8q32 0 59 -16t37 -43z
M342 1417q40 0 72 -27.5t35 -66.5q1 -29 -14.5 -53t-69.5 -78q-68 -68 -89 -96q-27 -35 -53.5 -49.5t-66.5 -14.5q-90 24 -90 109q0 21 3 31t15 32q31 52 120.5 132.5t137.5 80.5z" />
    <glyph glyph-name="OE" unicode="&#x152;" horiz-adv-x="1314" 
d="M1085 727q24 8 50 8q62 0 98 -51q10 -12 13 -22t3 -33q0 -28 -11 -50.5t-30.5 -37t-43.5 -25.5t-55 -18t-59 -11.5t-60 -8.5q-3 0 -5 -0.5t-4 -0.5q-64 -9 -71 -14q-7 -15 -7 -45q0 -50 4 -58q5 -14 85 -27t177 -14q76 -1 105.5 -9.5t48.5 -33.5q38 -53 15 -108.5
t-91 -75.5q-24 -8 -100 -8q-41 0 -57 2q-68 8 -96 12t-74 11.5t-66.5 15t-49 20t-47 29t-36.5 39.5q-63 -98 -144 -147.5t-169 -49.5q-73 0 -140.5 34.5t-120.5 96t-85 155.5t-33 206q0 104 19 182.5t71 186.5q80 157 153 157q18 0 61 16.5t100.5 33t109.5 16.5
q124 0 215 -101q31 17 57 17q19 0 111.5 10t148.5 10q96 0 152.5 -29t56.5 -104q0 -46 -32 -77t-78 -31q-12 0 -60 8t-94 8q-52 0 -109 -8l-1 -35q-1 -34 -0.5 -57t3.5 -23q8 0 79 16t93 23zM295 733q-40 -124 -34.5 -231t48 -179.5t99.5 -72.5q90 0 165 190q33 84 46 157
t8.5 121.5t-19 83.5t-33.5 50.5t-38 15.5q-12 0 -35 -7t-52.5 -18.5t-52.5 -21.5t-51.5 -22.5t-32.5 -14.5z" />
    <glyph glyph-name="oe" unicode="&#x153;" horiz-adv-x="1339" 
d="M983 674q38 -19 52 -56.5t0 -75.5t-52 -59q-18 -10 -38 -16t-35.5 -7.5t-32 -3t-26.5 -1.5t-18 -3.5t-8 -9.5t4 -18q11 -23 92 -34t177 -11q46 0 92 4q4 0 10.5 1t9.5 1q52 0 81.5 -33t26 -78t-37.5 -79q-30 -30 -65.5 -40.5t-114.5 -11.5q-302 0 -418 95
q-110 -154 -266 -154q-13 0 -45 4q-86 12 -156 62t-113 124t-64.5 161.5t-15.5 179.5t37 173q32 83 99.5 137t136.5 54q71 0 174.5 -38t148.5 -73q22 22 60 37q59 17 231 17q157 0 203 -15q39 -10 67.5 -45t28.5 -71q0 -45 -33 -76t-77 -31q-17 0 -50.5 2.5t-96 7.5
t-132.5 8q1 -11 2 -15.5t5 -7.5t12 -3q23 2 46.5 4t36.5 3t21 1q18 0 41 -10zM272 737q-17 -21 -21 -81t6 -127t42.5 -127t81.5 -76q17 -7 29 -7q57 0 98 81t41 151q0 36 -10.5 59.5t-36.5 48.5q-31 30 -100 57t-107 27q-17 0 -23 -6z" />
    <glyph glyph-name="Racute" unicode="&#x154;" horiz-adv-x="839" 
d="M520 631q-41 -29 -41 -35q0 -4 80.5 -42.5t126.5 -55.5q64 -25 86 -38t35 -34q34 -59 5.5 -111t-91.5 -63q-2 0 -6 -1t-6 -1q-82 0 -402 170q4 -97 8 -181t7 -124t4.5 -72t1 -46.5t-3.5 -25.5q-13 -41 -44.5 -64.5t-68.5 -23.5q-32 0 -61.5 19t-43.5 53q-25 56 -36 446
t-11 598h-41q-37 0 -50 3t-27 14q-43 32 -39 87.5t51 84.5q33 19 106 35t156 16q229 0 350 -121q67 -67 89.5 -153t-11 -176t-123.5 -158zM485 1616q40 0 70 -27.5t31 -66.5q3 -40 -24.5 -76.5t-110.5 -102.5q-15 -12 -82 -59q-43 -27 -84 -27q-54 0 -85 38t-20 91
q6 23 22 41.5t35 32t64.5 45.5t85.5 62q40 31 58 40t40 9zM276 1008q-2 -1 2 -51t8.5 -113t4.5 -86q71 43 104 73t33 64q0 32 -36 64.5t-85 44.5q-28 7 -31 4z" />
    <glyph glyph-name="racute" unicode="&#x155;" horiz-adv-x="727" 
d="M672 240q-26 -13 -49 -13q-55 0 -207 88q-74 45 -78 41q-3 -3 4 -118q1 -20 2.5 -39.5t2 -30t1.5 -20.5t0.5 -15t-0.5 -9.5t-1.5 -8.5t-2.5 -6.5t-4.5 -9t-5.5 -11.5q-13 -31 -38.5 -48t-55.5 -17q-45 0 -80 32q-45 43 -52.5 156.5t-7.5 591.5l-22 -2q-2 0 -7.5 -1
t-7.5 -1q-58 0 -85.5 53.5t6.5 105.5q27 44 109.5 64t156.5 20q62 0 110 -10q91 -21 159.5 -72.5t99.5 -117t19 -142t-73 -143.5l-35 -39q118 -64 146.5 -83t44.5 -50q23 -43 10 -82.5t-59 -62.5zM469 1165q-15 -11 -82 -59q-43 -27 -84 -27q-54 0 -84.5 38t-19.5 91
q6 23 22 41.5t35 32t64.5 45.5t85.5 62q40 31 58 40t40 9q40 0 69.5 -27.5t30.5 -67.5q3 -40 -24.5 -76t-110.5 -102zM315 809q-1 -1 0 -35.5t2.5 -75t1.5 -49.5q84 72 84 90q0 11 -21.5 33t-41.5 29z" />
    <glyph glyph-name="Rcaron" unicode="&#x158;" horiz-adv-x="839" 
d="M479 596q0 -4 80.5 -42.5t126.5 -55.5q64 -25 86 -38t35 -34q34 -59 5.5 -111t-91.5 -63q-2 0 -6 -1t-6 -1q-82 0 -402 170q4 -97 8 -181t7 -124t4.5 -72t1 -46.5t-3.5 -25.5q-13 -41 -44.5 -64.5t-68.5 -23.5q-32 0 -61.5 19t-43.5 53q-25 56 -36 446t-11 598h-41
q-37 0 -50 3t-27 14q-43 32 -39 87.5t51 84.5q33 19 106 35t156 16q229 0 350 -121q67 -67 89.5 -153t-11 -176t-123.5 -158q-41 -29 -41 -35zM424 1767q22 11 47 11q42 0 75.5 -28t39.5 -71q3 -26 -8 -53t-46 -78q-15 -21 -88 -131q-52 -79 -75 -102q-53 -53 -113 -53
q-23 0 -33 4q-38 12 -65.5 45t-83.5 133q-37 63 -68 127q-40 86 -18 143q27 53 92 53q38 0 65 -24q12 -12 24 -29.5t20 -31.5t20 -37.5t20 -36.5l29 -47l51 77q42 64 66 90.5t49 38.5zM428 895q0 32 -36 64.5t-85 44.5q-28 7 -31 4q-2 -1 2 -51t8.5 -113t4.5 -86
q71 43 104 73t33 64z" />
    <glyph glyph-name="rcaron" unicode="&#x159;" horiz-adv-x="727" 
d="M672 240q-26 -13 -49 -13q-55 0 -207 88q-74 45 -78 41q-3 -3 4 -118q1 -20 2.5 -39.5t2 -30t1.5 -20.5t0.5 -15t-0.5 -9.5t-1.5 -8.5t-2.5 -6.5t-4.5 -9t-5.5 -11.5q-13 -31 -38.5 -48t-55.5 -17q-45 0 -80 32q-45 43 -52.5 156.5t-7.5 591.5l-22 -2q-2 0 -7.5 -1
t-7.5 -1q-58 0 -85.5 53.5t6.5 105.5q27 44 109.5 64t156.5 20q62 0 110 -10q91 -21 159.5 -72.5t99.5 -117t19 -142t-73 -143.5l-35 -39q118 -64 146.5 -83t44.5 -50q23 -43 10 -82.5t-59 -62.5zM489 1219q-54 -82 -75 -103q-53 -53 -113 -53q-23 0 -33 4q-38 12 -65.5 45
t-83.5 133q-37 63 -68 127q-40 87 -18 144q27 53 92 53q37 0 65 -25q12 -12 24 -29.5t20 -31.5t20 -37.5t20 -36.5l29 -47l51 78q42 64 66 90.5t49 38.5q20 10 47 10q42 0 75.5 -27.5t39.5 -70.5q3 -27 -7.5 -54t-45.5 -77q-24 -33 -89 -131zM403 739q0 11 -21.5 33
t-41.5 29l-25 8q-1 -1 0 -35.5t2.5 -75t1.5 -49.5q84 72 84 90z" />
    <glyph glyph-name="Sacute" unicode="&#x15a;" horiz-adv-x="604" 
d="M260 903q0 -18 27.5 -54t68 -77.5t85 -99t79.5 -116t51 -132t0 -143.5q-17 -74 -100 -200t-141 -167q-44 -33 -92 -33q-33 0 -60 17.5t-41 46.5q-13 26 -14.5 46.5t7.5 38.5t23.5 34.5t36 39.5t43.5 47.5t48 64.5t47 85q18 41 16 64q-5 46 -40.5 99t-81 102.5t-90.5 101
t-76 112.5t-31 119q0 112 81 193q64 64 155.5 107.5t180.5 43.5q50 0 93 -14q45 -16 63.5 -59.5t-10.5 -94.5q-19 -29 -53 -37t-83 -12t-83 -20q-39 -21 -74 -53.5t-35 -49.5zM512 1303q-44 -27 -84 -27q-54 0 -84.5 38t-19.5 91q6 23 22 41.5t34.5 32t64 44.5t85.5 62
q40 30 58 39.5t41 9.5q40 0 69.5 -27t30.5 -67q3 -40 -24.5 -76t-110.5 -102q-15 -11 -82 -59z" />
    <glyph glyph-name="sacute" unicode="&#x15b;" horiz-adv-x="522" 
d="M182 301q47 11 55 16.5t5 26.5q-4 29 -22.5 68.5t-40.5 75.5t-43.5 81t-35 85.5t-12 88t22.5 91.5q32 67 112.5 116t153.5 49q53 0 95 -31.5t42 -82.5q0 -47 -35 -74t-82 -27q-32 0 -53 -14q-13 -9 -19.5 -16t-6.5 -17.5t4 -20.5t15 -29.5t23.5 -40.5t32.5 -57.5
t39 -76.5q64 -137 40 -245t-128 -158q-100 -46 -203 -46q-135 0 -176 91q-23 53 -1.5 99.5t75.5 61.5q8 2 22 2q15 0 43 -9t50 -9q18 0 28 2zM432 1057q-43 -27 -84 -27q-54 0 -84.5 38t-19.5 91q6 23 22 41.5t35 32t64.5 44.5t85.5 62q41 31 58.5 40.5t39.5 9.5
q40 0 69.5 -27.5t30.5 -67.5q3 -40 -24.5 -76t-110.5 -102q-15 -11 -82 -59z" />
    <glyph glyph-name="Scedilla" unicode="&#x15e;" horiz-adv-x="604" 
d="M125 -190q-4 65 10 139q-12 25 -13 45t8 37.5t23.5 34t36 39.5t43.5 47.5t48 64t47 84.5q18 41 16 64q-5 46 -40.5 99t-81 102.5t-90.5 101t-76 112.5t-31 119q0 112 81 193q64 64 155.5 107.5t180.5 43.5q50 0 93 -14q45 -16 63.5 -59.5t-10.5 -94.5q-19 -29 -53 -37
t-83 -12t-83 -20q-39 -21 -74 -53.5t-35 -49.5q0 -18 27.5 -54t68 -77.5t85 -99t79.5 -116t51 -132t0 -143.5q-17 -70 -95 -190.5t-138 -170.5l2 -20l33 -9q118 -32 172 -129.5t4 -189.5q-25 -45 -97 -94t-124 -49q-45 0 -79 26t-40 68q-4 27 2 50t18.5 37.5t27.5 26.5
t28.5 18.5t21.5 11t6 7.5q-2 4 -28.5 8t-59.5 12t-49 21q-44 31 -51 95z" />
    <glyph glyph-name="scedilla" unicode="&#x15f;" horiz-adv-x="522" 
d="M72 -137q-46 31 -52 94q-3 48 9 129q-43 23 -64 68q-23 53 -1.5 99.5t75.5 61.5q8 2 22 2q15 0 43 -9t50 -9q18 0 28 2q47 11 55 16.5t5 26.5q-4 29 -22.5 68.5t-40.5 75.5t-43.5 81t-35 85.5t-12 88t22.5 91.5q32 67 112.5 116t153.5 49q53 0 95 -31.5t42 -82.5
q0 -47 -35 -74t-82 -27q-32 0 -53 -14q-13 -9 -19.5 -16t-6.5 -17.5t4 -20.5t15 -29.5t23.5 -40.5t32.5 -57.5t39 -76.5q64 -137 40 -245t-128 -158q-46 -24 -111 -35l3 -27l32 -8q118 -32 172 -130t4 -190q-25 -45 -97 -94t-124 -49q-45 0 -79 26t-40 68q-4 27 2 50t19 38
t28 26.5t28.5 18t21.5 11.5t6 8q-2 4 -28.5 8t-59.5 12t-49 21z" />
    <glyph glyph-name="Scaron" unicode="&#x160;" horiz-adv-x="604" 
d="M571 281q-17 -74 -100 -200t-141 -167q-44 -33 -92 -33q-33 0 -60 17.5t-41 46.5q-13 26 -14.5 46.5t7.5 38.5t23.5 34.5t36 39.5t43.5 47.5t48 64.5t47 85q18 41 16 64q-5 46 -40.5 99t-81 102.5t-90.5 101t-76 112.5t-31 119q0 112 81 193q64 64 155.5 107.5
t180.5 43.5q50 0 93 -14q45 -16 63.5 -59.5t-10.5 -94.5q-19 -29 -53 -37t-83 -12t-83 -20q-39 -21 -74 -53.5t-35 -49.5q0 -18 27.5 -54t68 -77.5t85 -99t79.5 -116t51 -132t0 -143.5zM375 1638q43 64 66 90.5t48 38.5q22 11 48 11q42 0 75 -28t39 -71q3 -27 -7.5 -54
t-45.5 -77q-15 -21 -88 -131q-50 -76 -76 -102q-53 -53 -112 -53q-23 0 -33 4q-38 12 -66.5 45.5t-83.5 132.5q-31 53 -67 127q-41 88 -19 143q27 53 92 53q39 0 66 -24q12 -12 24 -29.5t20 -31.5t20 -37.5t20 -36.5l29 -47z" />
    <glyph glyph-name="scaron" unicode="&#x161;" horiz-adv-x="522" 
d="M432 512q64 -137 40 -245t-128 -158q-100 -46 -203 -46q-135 0 -176 91q-23 53 -1.5 99.5t75.5 61.5q8 2 22 2q15 0 43 -9t50 -9q18 0 28 2q47 11 55 16.5t5 26.5q-4 29 -22.5 68.5t-40.5 75.5t-43.5 81t-35 85.5t-12 88t22.5 91.5q32 67 112.5 116t153.5 49
q53 0 95 -31.5t42 -82.5q0 -47 -35 -74t-82 -27q-32 0 -53 -14q-13 -9 -19.5 -16t-6.5 -17.5t4 -20.5t15 -29.5t23.5 -40.5t32.5 -57.5t39 -76.5zM475 1180q-52 -79 -76 -103q-53 -53 -112 -53q-23 0 -33 4q-38 12 -66.5 45.5t-83.5 132.5q-31 53 -67 127q-41 88 -19 144
q13 25 38.5 39t54.5 14q37 0 65 -25q12 -12 24 -29.5t20 -31.5t20 -37.5t20 -36.5l29 -47l51 78q42 64 66 90.5t49 38.5q20 10 47 10q42 0 75 -27.5t39 -70.5q3 -27 -7.5 -54t-45.5 -77q-15 -21 -88 -131z" />
    <glyph glyph-name="Tcaron" unicode="&#x164;" horiz-adv-x="751" 
d="M596 918q-31 2 -64 2q-10 0 -14 -1t-4.5 -3t0.5 -5q10 -35 18.5 -85.5t15 -122.5t11 -126t9 -147.5t6 -132.5t5 -135.5t3.5 -104.5l-15 -28q-15 -28 -44 -45t-60 -17q-36 0 -68 26.5t-41 61.5q-7 26 -20 366.5t-35 481.5q-156 -18 -209 -35q-30 -10 -51 -10q-33 0 -59 17
t-35.5 44t-6 56t29.5 56t71 42q74 26 246 54t295 28q95 0 131 -20q54 -29 65.5 -83.5t-28.5 -97.5q-19 -22 -42.5 -29t-78.5 -7h-31zM539 1675q22 11 47 11q42 0 75 -28t39 -71q3 -27 -7.5 -54t-45.5 -77q-15 -21 -88 -131q-50 -76 -76 -102q-54 -54 -112 -54q-21 0 -33 5
q-38 12 -66.5 45.5t-83.5 132.5q-31 53 -67 127q-41 88 -19 143q13 25 38.5 39t54.5 14q38 0 65 -24q12 -12 24 -29.5t20 -31.5t20 -37.5t20 -36.5l29 -48l51 78q42 64 66 90.5t49 38.5z" />
    <glyph glyph-name="tcaron" unicode="&#x165;" horiz-adv-x="698" 
d="M457 51q-33 -26 -74 -26q-16 0 -37.5 9.5t-36.5 24.5q-46 43 -57 160t-15 463v30.5t-0.5 29t-0.5 32.5q-46 -5 -84 -24q-30 -15 -58 -15q-57 0 -86 47q-33 51 2 107q42 65 160 94q226 53 365 53q174 0 174 -118q0 -24 -6.5 -42.5t-15.5 -30.5t-27 -20.5t-32.5 -12.5
t-40.5 -6.5t-42.5 -3t-48 -0.5t-47.5 -1q8 -104 10 -133q5 -99 12 -194.5t11.5 -147t7.5 -101.5t3.5 -72.5t-3.5 -45t-11.5 -33.5t-21.5 -23zM414 1352q-12 50 8.5 88.5t64.5 48.5q8 2 25 2q45 0 76 -36.5t41 -104.5q28 -168 -23 -240q-36 -53 -90 -53q-14 0 -22 2
q-99 21 -78 149q11 72 -2 144z" />
    <glyph glyph-name="Umacron" unicode="&#x16a;" 
d="M551 1075q35 53 94 53q41 0 75.5 -27t47.5 -77q15 -49 19 -173t-16.5 -294.5t-70.5 -286.5q-54 -125 -152 -202.5t-200 -77.5t-181 81.5t-114 247.5q-15 69 -19.5 153.5t-2.5 275.5q1 181 3 214.5t13 53.5q13 27 39 42t55 15q31 0 52.5 -16.5t44.5 -46.5q4 -75 11 -202
q17 -307 29 -404.5t48 -155.5q12 -21 24 -21q7 0 29 11q49 25 85 87.5t54.5 140.5t27 166.5t7 165t-9.5 136.5q-7 63 -5.5 92t13.5 49zM162 1153q-10 10 -17 38.5t-4 47.5q6 28 31 51t55 27q36 4 170 4q83 0 95 -2q69 -6 98.5 -57.5t-4.5 -102.5q-22 -31 -54.5 -43
t-97.5 -12q-232 0 -256 33q-2 0 -3 1t-13 15z" />
    <glyph glyph-name="umacron" unicode="&#x16b;" horiz-adv-x="647" 
d="M223 809q5 -20 9 -101t19.5 -160t51.5 -124q7 -10 12 -10q6 0 23 43q21 56 35.5 212t40.5 187q34 43 86 43q66 0 104 -65q10 -20 10 -88.5t-9.5 -152.5t-35 -174.5t-61.5 -144.5q-75 -110 -186 -110q-117 0 -206 125t-96 356q-4 109 6 151t46 66q28 19 57 19
q32 0 58.5 -20t35.5 -52zM164 1112q36 4 170 4q82 0 94 -2q69 -6 98.5 -57.5t-4.5 -102.5q-22 -31 -54 -43t-97 -12q-232 0 -256 33q-3 0 -17 16q-10 10 -16.5 38.5t-3.5 47.5q6 28 31 51t55 27z" />
    <glyph glyph-name="Uring" unicode="&#x16e;" 
d="M379 238q49 25 85 87.5t54.5 140.5t27 166.5t7 165t-9.5 136.5q-7 63 -5.5 92t13.5 49q35 53 94 53q41 0 75.5 -27t47.5 -77q15 -49 19 -173t-16.5 -294.5t-70.5 -286.5q-54 -125 -152 -202.5t-200 -77.5t-181 81.5t-114 247.5q-15 69 -19.5 153.5t-2.5 275.5
q1 181 3 214.5t13 53.5q13 27 39 42t55 15q31 0 52.5 -16.5t44.5 -46.5q4 -75 11 -202q17 -307 29 -404.5t48 -155.5q12 -21 24 -21q7 0 29 11zM408 1636q44 0 85 -26.5t69.5 -68t48 -85.5t28.5 -86q28 -137 -84 -240q-90 -77 -195 -77q-87 0 -161 52.5t-107 135.5
q-12 29 -16 83.5t4 88.5q15 63 52.5 116t86.5 79q53 28 189 28zM375 1403q-16 22 -35 22q-18 0 -30.5 -19t-12.5 -50q0 -27 20.5 -46.5t44.5 -19.5q19 0 35 13q26 26 -22 100z" />
    <glyph glyph-name="uring" unicode="&#x16f;" horiz-adv-x="647" 
d="M604 834q10 -20 10 -88.5t-9.5 -152.5t-35 -174.5t-61.5 -144.5q-75 -110 -186 -110q-117 0 -206 125t-96 356q-4 109 6 151t46 66q28 19 57 19q32 0 58.5 -20t35.5 -52q5 -20 9 -101t19.5 -160t51.5 -124q7 -10 12 -10q6 0 23 43q21 56 35.5 212t40.5 187q34 43 86 43
q66 0 104 -65zM598 1188q28 -137 -84 -240q-91 -78 -195 -78q-87 0 -161 53t-107 136q-12 29 -16 83.5t4 88.5q15 63 52.5 115.5t86.5 78.5q55 29 189 29q44 0 85 -26.5t69.5 -68t48 -85.5t28.5 -86zM334 1221q-16 22 -35 22q-18 0 -30.5 -19t-12.5 -50q0 -27 21 -46.5
t45 -19.5q19 0 34 12q27 27 -22 101z" />
    <glyph glyph-name="Uhungarumlaut" unicode="&#x170;" 
d="M768 1024q15 -49 19 -173t-16.5 -294.5t-70.5 -286.5q-54 -125 -152 -202.5t-200 -77.5t-181 81.5t-114 247.5q-15 69 -19.5 153.5t-2.5 275.5q1 181 3 214.5t13 53.5q13 27 39 42t55 15q31 0 52.5 -16.5t44.5 -46.5q4 -75 11 -202q17 -307 29 -404.5t48 -155.5
q12 -21 24 -21q7 0 29 11q49 25 85 87.5t54.5 140.5t27 166.5t7 165t-9.5 136.5q-7 63 -5.5 92t13.5 49q35 53 94 53q41 0 75.5 -27t47.5 -77zM682 1239q-64 -64 -92 -96q-30 -30 -53 -44t-58 -14q-33 0 -57 17q-37 29 -44 72t19 83q19 29 110 111.5t116 93.5q16 8 39 8
q32 0 59 -16t37 -43q16 -38 0.5 -73t-76.5 -99zM487 1430q1 -29 -15 -54t-69 -78q-64 -64 -88 -96q-27 -35 -53.5 -49t-66.5 -14q-91 24 -91 108q0 21 3 31t16 33q31 52 120.5 132.5t137.5 80.5q40 0 71.5 -27.5t34.5 -66.5z" />
    <glyph glyph-name="uhungarumlaut" unicode="&#x171;" horiz-adv-x="647" 
d="M414 856q34 43 86 43q66 0 104 -65q10 -20 10 -88.5t-9.5 -152.5t-35 -174.5t-61.5 -144.5q-75 -110 -186 -110q-117 0 -206 125t-96 356q-4 109 6 151t46 66q28 19 57 19q32 0 58.5 -20t35.5 -52q5 -20 9 -101t19.5 -160t51.5 -124q7 -10 12 -10q6 0 23 43
q21 56 35.5 212t40.5 187zM684 1227q16 -38 0.5 -73t-76.5 -99q-57 -57 -92 -97q-30 -30 -52.5 -43.5t-57.5 -13.5q-34 0 -58 17q-37 29 -43.5 72t19.5 83q19 29 109.5 111.5t115.5 93.5q16 8 39 8q32 0 59 -16t37 -43zM307 1339q40 0 72 -27.5t35 -66.5q1 -29 -14.5 -53
t-69.5 -78q-64 -64 -88 -96q-27 -35 -54 -49.5t-67 -14.5q-90 24 -90 109q0 21 3 31t15 32q31 52 120.5 132.5t137.5 80.5z" />
    <glyph glyph-name="Uogonek" unicode="&#x172;" 
d="M416 -401q-96 17 -147 99t-31 189q9 55 30 117q-74 26 -130.5 104.5t-84.5 210.5q-15 69 -19.5 153.5t-2.5 275.5q1 181 3 214.5t13 53.5q13 27 39 42t55 15q31 0 52.5 -16.5t44.5 -46.5q4 -75 11 -202q17 -307 29 -404.5t48 -155.5q12 -21 24 -21q7 0 29 11
q49 25 85 87.5t54.5 140.5t27 166.5t7 165t-9.5 136.5q-7 63 -5.5 92t13.5 49q35 53 94 53q41 0 75.5 -27t47.5 -77q15 -49 19 -173t-16.5 -294.5t-70.5 -286.5q-65 -147 -182 -225q-16 -35 -41 -103.5t-26 -86.5v-21l28 23q27 18 58 49q55 59 104 59q31 0 60 -17t44 -46
q48 -91 -98 -213q-120 -92 -198 -92q-23 0 -33 2z" />
    <glyph glyph-name="uogonek" unicode="&#x173;" horiz-adv-x="647" 
d="M139 23q16 93 58 184q-76 53 -124.5 164t-52.5 274q-4 109 6 151t46 66q28 19 57 19q32 0 58.5 -20t35.5 -52q5 -20 9 -101t19.5 -160t51.5 -124q7 -10 12 -10q6 0 23 43q21 56 35.5 212t40.5 187q34 43 86 43q66 0 104 -65q10 -20 10 -88.5t-9.5 -152.5t-35 -174.5
t-61.5 -144.5q-38 -54 -82 -79q-18 -39 -45.5 -111t-28.5 -94v-21l29 23q24 16 57 49q55 59 105 59q31 0 60 -17t44 -46q48 -91 -98 -213q-120 -92 -199 -92q-23 0 -33 2q-96 17 -147 99.5t-31 189.5z" />
    <glyph glyph-name="Ydieresis" unicode="&#x178;" horiz-adv-x="712" 
d="M453 1104q18 6 36 6q40 0 75 -25.5t54 -66.5q11 -27 29 -99t27 -124q12 -72 11 -165t-13 -159q-19 -87 -46.5 -148.5t-76.5 -123.5q-45 -56 -103 -105t-110 -76q-20 -10 -62 -22t-51 -10q-1 0 -21.5 4.5t-30.5 8.5t-28.5 13t-32.5 24t-26 36q-34 64 -3.5 123t91.5 59
q20 0 43 -10l27 -13q119 91 159 168q28 53 42 139.5t1 168.5q-24 -32 -38.5 -49.5t-40.5 -43.5t-54.5 -38.5t-58.5 -12.5q-66 0 -114.5 34t-73.5 90.5t-36.5 115t-11.5 121.5q-1 87 5 118t28 58q28 35 76 35q35 0 57 -13.5t31 -40t11.5 -49t2.5 -57.5q5 -145 23 -137
q7 7 57 94q60 102 84 130t62 42zM129 1157q-40 19 -54 60.5t5 82.5q14 35 46.5 59.5t68.5 24.5q47 0 78 -34.5t24 -83.5q-9 -49 -45 -82t-86 -33q-37 0 -37 6zM399 1346q27 18 62 18q30 0 55 -13.5t35 -37.5q36 -73 -8 -123q-36 -39 -82 -39q-10 0 -20 2t-14.5 3.5t-4.5 0.5
q-64 23 -71.5 87t48.5 102z" />
    <glyph glyph-name="Zacute" unicode="&#x179;" horiz-adv-x="759" 
d="M719 270q66 -9 96.5 -52.5t17 -92t-60.5 -72.5q-33 -16 -160 -16q-192 0 -288 -2q-12 0 -33 -1t-29 -1q-66 0 -106.5 11.5t-71.5 43.5q-63 63 -29 168q8 27 81.5 176.5t138.5 284.5t59 141q-11 0 -23.5 -1t-27.5 -2.5t-23 -2.5q-57 -8 -101.5 -25.5t-56.5 -17.5
q-42 0 -70 32t-28 74q0 82 100 123q51 20 132 33.5t141 13.5q76 0 126.5 -31t69.5 -91q23 -81 -23.5 -202t-207.5 -444q-17 -32 -25 -49q135 6 297 6q73 0 105 -4zM541 1470q40 0 69.5 -27t30.5 -67q3 -40 -24.5 -76t-110.5 -102q-15 -11 -82 -59q-43 -27 -84 -27
q-54 0 -84.5 38t-19.5 91q6 23 22 41.5t34.5 32t64 44.5t85.5 62q40 30 58 39.5t41 9.5z" />
    <glyph glyph-name="zacute" unicode="&#x17a;" horiz-adv-x="720" 
d="M782 246q-7 -34 -25 -56.5t-46.5 -32.5t-54.5 -13t-62 -3q-99 0 -220.5 12t-168.5 35q-25 12 -50 40t-34 53q-23 62 1.5 134t110.5 193q60 82 60 88q0 2 -53 2h-43h-47q-49 0 -72 13q-47 25 -53 76.5t34 86.5q32 27 117 37.5t164 10.5q78 0 123 -29q57 -37 74.5 -98.5
t-7.5 -139.5q-14 -45 -53.5 -107t-71.5 -105t-32 -48q0 -7 70.5 -11.5t153.5 -8t103 -8.5q37 -9 62.5 -47.5t19.5 -73.5zM600 1204q3 -40 -24.5 -76t-110.5 -102q-15 -11 -82 -59q-44 -27 -84 -27q-54 0 -84.5 38t-19.5 91q6 23 22 41.5t34.5 32t64 44.5t85.5 62
q40 30 58 39.5t41 9.5q40 0 69.5 -27t30.5 -67z" />
    <glyph glyph-name="Zdotaccent" unicode="&#x17b;" horiz-adv-x="800" 
d="M719 270q66 -9 96.5 -52.5t17 -92t-60.5 -72.5q-33 -16 -160 -16q-192 0 -288 -2q-12 0 -33 -1t-29 -1q-66 0 -106.5 11.5t-71.5 43.5q-63 63 -29 168q8 27 81.5 176.5t138.5 284.5t59 141q-11 0 -23.5 -1t-27.5 -2.5t-23 -2.5q-57 -8 -101.5 -25.5t-56.5 -17.5
q-42 0 -70 32t-28 74q0 82 100 123q51 20 132 33.5t141 13.5q76 0 126.5 -31t69.5 -91q23 -81 -23.5 -202t-207.5 -444q-17 -32 -25 -49q135 6 297 6q73 0 105 -4zM469 1223q-19 -47 -63 -79t-93 -32q-51 0 -101.5 42t-64.5 91q-12 51 7 99t63 79q41 27 86 27
q85 0 141 -71.5t25 -155.5z" />
    <glyph glyph-name="zdotaccent" unicode="&#x17c;" horiz-adv-x="720" 
d="M463 893q57 -37 74.5 -98.5t-7.5 -139.5q-14 -45 -53.5 -107t-71.5 -105t-32 -48q0 -7 70.5 -11.5t153.5 -8t103 -8.5q37 -9 62.5 -47.5t19.5 -73.5q-22 -105 -166 -105q-107 0 -233.5 10.5t-177.5 36.5q-25 12 -50 40t-34 53q-23 62 1.5 134t110.5 193q60 82 60 88
q0 2 -53 2h-43h-47q-49 0 -72 13q-47 25 -53 76.5t34 86.5q32 27 117 37.5t164 10.5q78 0 123 -29zM115 1100q-12 51 6.5 99t62.5 79q41 27 86 27q85 0 141 -72t25 -156q-19 -47 -62.5 -78.5t-92.5 -31.5q-51 0 -101.5 42t-64.5 91z" />
    <glyph glyph-name="Zcaron" unicode="&#x17d;" horiz-adv-x="800" 
d="M772 53q-33 -16 -160 -16q-192 0 -288 -2q-12 0 -33 -1t-29 -1q-66 0 -106.5 11.5t-71.5 43.5q-63 63 -29 168q8 27 81.5 176.5t138.5 284.5t59 141q-11 0 -23.5 -1t-27.5 -2.5t-23 -2.5q-57 -8 -101.5 -25.5t-56.5 -17.5q-42 0 -70 32t-28 74q0 82 100 123
q51 20 132 33.5t141 13.5q76 0 126.5 -31t69.5 -91q23 -81 -23.5 -202t-207.5 -444q-17 -32 -25 -49q135 6 297 6q73 0 105 -4q66 -9 96.5 -52.5t17 -92t-60.5 -72.5zM647 1536q3 -27 -7.5 -54t-45.5 -77q-15 -21 -88 -131q-52 -79 -76 -103q-53 -53 -113 -53q-22 0 -32 4
q-38 12 -66.5 45.5t-83.5 132.5q-31 53 -67 127q-41 88 -19 144q27 53 92 53q38 0 66 -25q12 -12 24 -29.5t20 -31.5t20 -37.5t20 -36.5l28 -47l52 78q43 64 66 90.5t48 38.5q20 10 47 10q42 0 75.5 -27.5t39.5 -70.5z" />
    <glyph glyph-name="zcaron" unicode="&#x17e;" horiz-adv-x="843" 
d="M782 246q-7 -34 -25 -56.5t-46.5 -32.5t-54.5 -13t-62 -3q-99 0 -220.5 12t-168.5 35q-25 12 -50 40t-34 53q-23 62 1.5 134t110.5 193q60 82 60 88q0 2 -53 2h-43h-47q-49 0 -72 13q-47 25 -53 76.5t34 86.5q32 27 117 37.5t164 10.5q78 0 123 -29q57 -37 74.5 -98.5
t-7.5 -139.5q-14 -45 -53.5 -107t-71.5 -105t-32 -48q0 -7 70.5 -11.5t153.5 -8t103 -8.5q37 -9 62.5 -47.5t19.5 -73.5zM625 1372q3 -26 -8 -53t-46 -78q-15 -21 -88 -131q-52 -79 -75 -102q-54 -54 -113 -54q-23 0 -33 4q-38 12 -65.5 45t-83.5 134q-37 63 -68 127
q-40 86 -18 143q27 53 92 53q38 0 65 -24q16 -16 28.5 -35.5t30.5 -54t25 -46.5l29 -47l51 78q42 64 66 90.5t49 38.5q20 10 47 10q42 0 75.5 -27.5t39.5 -70.5z" />
    <glyph glyph-name="florin" unicode="&#x192;" horiz-adv-x="718" 
d="M119 20q2 25 13 45.5t25.5 38t36 62t39.5 108.5q13 42 19 220q-76 -13 -84 -13q-39 0 -70 27q-31 26 -35 63.5t21 71.5q12 17 33.5 28t40.5 17t70 18q13 3 20 5q2 64 4.5 98.5t12 93t30 101t53.5 71.5q40 37 86 37q40 0 69.5 -27.5t31.5 -66.5t-31 -82q-6 -7 -10 -14.5
t-7 -14t-5 -18t-3 -18.5t-2 -24.5t-1 -27.5t-0.5 -35.5t-0.5 -40.5q5 0 19.5 -0.5t20.5 -1l18 -1.5t19.5 -3t17 -5.5t17.5 -8.5t15 -12q37 -32 43 -77t-26.5 -81t-96.5 -39l-37 -4v-80q-1 -175 -63.5 -329.5t-132.5 -188.5q-24 -12 -53 -12q-48 0 -84 33.5t-33 86.5z" />
    <glyph glyph-name="circumflex" unicode="&#x2c6;" horiz-adv-x="772" 
d="M217 1239q22 37 34.5 55t37 46.5t51.5 41.5t59 13l33 -4q38 -12 68 -45.5t90 -131.5q61 -100 74 -129q19 -34 24.5 -50.5t5.5 -39.5q3 -51 -25.5 -78.5t-70.5 -27.5q-39 0 -66 24q-13 11 -21.5 24.5t-35 58t-63.5 100.5q-51 -83 -69.5 -111.5t-42 -56t-46.5 -39.5
q-18 -10 -47 -10q-41 0 -75.5 27.5t-41.5 70.5q-2 11 -2 20.5t1.5 19t7.5 22t12 24t18 30.5t23.5 37.5t30 49t36.5 59.5z" />
    <glyph glyph-name="caron" unicode="&#x2c7;" horiz-adv-x="815" 
d="M485 942q-53 -53 -112 -53q-23 0 -33 4q-38 12 -66.5 45.5t-83.5 132.5q-31 53 -67 127q-41 88 -19 143q13 25 38.5 39.5t54.5 14.5q37 0 65 -25q12 -12 24 -29.5t20 -31.5t20 -37.5t20 -36.5l29 -47l51 78q42 64 66 90.5t49 38.5q20 10 47 10q42 0 75 -27.5t39 -70.5
q3 -27 -7.5 -54t-45.5 -77q-10 -13 -88 -132q-50 -76 -76 -102z" />
    <glyph glyph-name="breve" unicode="&#x2d8;" horiz-adv-x="722" 
d="M293 1286q1 -9 4.5 -25t10 -40t14 -41t14.5 -17q10 0 33 52.5t32 78.5q26 67 44.5 94t46.5 39q22 11 45 11q42 0 75 -33q35 -32 37.5 -76.5t-28.5 -122.5q-33 -87 -74.5 -152t-77.5 -89q-10 -7 -48.5 -21t-45.5 -14h-6q-6 1 -14.5 1.5t-16.5 0.5q-53 3 -105 32t-83 72
q-32 47 -53.5 137.5t-12.5 141.5q7 41 38 67.5t68 26.5q50 0 72 -32.5t31 -90.5z" />
    <glyph glyph-name="dotaccent" unicode="&#x2d9;" horiz-adv-x="514" 
d="M84 1108q-12 51 7 99t63 79q41 27 86 27q85 0 141 -72t25 -156q-19 -47 -63 -78.5t-93 -31.5q-51 0 -101.5 42t-64.5 91z" />
    <glyph glyph-name="ring" unicode="&#x2da;" horiz-adv-x="731" 
d="M401 1405q44 0 85 -26.5t69.5 -68t48.5 -85.5t29 -86q28 -137 -84 -240q-91 -78 -195 -78q-87 0 -161 53t-107 136q-12 29 -16 83.5t4 88.5q15 63 52.5 115.5t86.5 78.5q55 29 188 29zM391 1071q26 26 -22 100q-16 23 -35 23q-18 0 -30.5 -19.5t-12.5 -50.5
q0 -27 20.5 -46t44.5 -19q20 0 35 12z" />
    <glyph glyph-name="ogonek" unicode="&#x2db;" horiz-adv-x="706" 
d="M340 133q50 -53 12 -123q-16 -36 -41 -105.5t-26 -86.5v-21l28 23q27 18 58 49q55 59 104 59q31 0 60.5 -17t44.5 -46q47 -90 -99 -213q-120 -92 -198 -92q-23 0 -33 2q-96 17 -147 99t-31 189q6 40 20 87.5t36.5 103.5t58 92.5t75.5 36.5q50 0 78 -37z" />
    <glyph glyph-name="tilde" unicode="&#x2dc;" horiz-adv-x="825" 
d="M84 1122q35 105 80.5 153t111.5 48q47 0 100 -28.5t79 -51.5t82 -77q11 -10 16 -15q10 21 18 43t13.5 33t17.5 26q35 41 82 41q36 0 67.5 -25.5t43.5 -68.5q15 -54 -18.5 -126t-95.5 -123.5t-120 -51.5q-60 0 -108 33.5t-139 123.5l-17 17l-10 -22q-7 -17 -7.5 -51.5
t-9.5 -62.5t-39 -46q-28 -17 -59 -17q-40 0 -69 28.5t-35 55.5q-17 63 16 164z" />
    <glyph glyph-name="hungarumlaut" unicode="&#x2dd;" horiz-adv-x="817" 
d="M381 995q-37 29 -44 72.5t19 83.5q19 29 110 111.5t116 93.5q16 8 39 8q32 0 59 -16t37 -43q16 -38 0.5 -73t-76.5 -99q-57 -57 -92 -97q-30 -30 -53 -43.5t-58 -13.5t-57 16zM274 1096q-27 -35 -53.5 -49.5t-66.5 -14.5q-42 11 -66.5 38.5t-24.5 70.5q0 21 3 30.5
t16 32.5q31 52 120.5 132.5t137.5 80.5q40 0 71.5 -27.5t34.5 -66.5q1 -29 -14.5 -53t-69.5 -78q-64 -64 -88 -96z" />
    <glyph glyph-name="endash" unicode="&#x2013;" horiz-adv-x="897" 
d="M43 582q0 32 23.5 62t54.5 38q53 16 430 20q144 0 175 -4t58 -28q52 -46 37.5 -107.5t-82.5 -83.5q-24 -6 -104 -6q-27 0 -69 0.5t-119 1.5t-142 2q-140 1 -173.5 6t-53.5 25q-13 12 -24 35.5t-11 38.5z" />
    <glyph glyph-name="emdash" unicode="&#x2014;" horiz-adv-x="1134" 
d="M100 487q-58 28 -58.5 91.5t56.5 91.5t770 28q86 0 113 -8q59 -16 85 -57.5t13 -85.5t-57 -68q-19 -9 -52.5 -10.5t-207.5 -1.5h-55q-564 0 -607 20z" />
    <glyph glyph-name="quoteleft" unicode="&#x2018;" horiz-adv-x="423" 
d="M129 1071q-28 164 23 240q36 51 88 51q16 0 24 -2q99 -21 78 -150q-12 -79 2 -141q11 -51 -9.5 -89t-64.5 -48q-20 -4 -28 -4q-43 0 -73 37t-40 106z" />
    <glyph glyph-name="quoteright" unicode="&#x2019;" horiz-adv-x="428" 
d="M113 1165q-12 50 8.5 89t64.5 49q8 2 25 2q45 0 76 -37t41 -105q28 -167 -23 -239q-36 -54 -90 -54q-14 0 -22 2q-99 21 -78 150q11 72 -2 143z" />
    <glyph glyph-name="quotesinglbase" unicode="&#x201a;" horiz-adv-x="407" 
d="M342 74q0 -122 -43.5 -185t-101.5 -63q-53 0 -81.5 49t-2.5 121q11 29 20.5 83.5t13.5 63.5q9 24 34 43t50 19q42 0 70 -21q26 -19 33.5 -39t7.5 -71z" />
    <glyph glyph-name="quotedblleft" unicode="&#x201c;" horiz-adv-x="573" 
d="M82 1051q-31 166 18 239q36 53 88 53q15 0 23 -2q97 -18 82 -147q-12 -74 4 -141q12 -51 -8 -90.5t-64 -49.5q-20 -4 -28 -4q-43 0 -73 36.5t-42 105.5zM332 1276q36 53 88 53q14 0 22 -2q100 -18 82 -147q-12 -76 4 -142q12 -51 -7.5 -90t-63.5 -49q-20 -4 -29 -4
q-87 0 -115 141q-31 165 19 240z" />
    <glyph glyph-name="quotedblright" unicode="&#x201d;" horiz-adv-x="608" 
d="M96 1223q-13 50 7 88.5t63 50.5q20 4 29 4q88 0 116 -141q31 -163 -18 -240q-37 -55 -90 -55q-15 0 -21 2q-100 21 -82 149q10 83 -4 142zM332 1090q12 74 -4 141q-12 50 7.5 88.5t63.5 50.5q20 4 29 4q41 0 71.5 -37t43.5 -104q31 -168 -19 -242q-38 -53 -90 -53
q-14 0 -20 2q-100 18 -82 150z" />
    <glyph glyph-name="quotedblbase" unicode="&#x201e;" horiz-adv-x="727" 
d="M438 -188q-20 3 -41 24.5t-30 46.5q-8 23 -5.5 43t25.5 103q15 53 26 110.5t19 80t27 40.5q31 25 67 25t64 -22.5t37 -65.5q7 -30 -4 -110t-35 -171q-12 -44 -44 -78.5t-75 -34.5q-4 0 -31 9zM371 59q-3 -32 -7 -57.5t-14.5 -54.5t-25.5 -48t-40.5 -31.5t-58.5 -12.5
q-29 0 -54 17.5t-36 45.5q-11 32 7 95.5t20 101.5q4 56 12 75q10 30 35 46t55 16q60 0 88 -47q31 -47 19 -146z" />
    <glyph glyph-name="dagger" unicode="&#x2020;" horiz-adv-x="643" 
d="M197 969q2 27 3.5 63.5t2 57t2.5 47.5t5 41.5t8.5 32t13 26.5t18.5 17.5t26 12t35 3.5q37 0 57 -13t35 -45q7 -16 10 -32.5t4 -54t0.5 -82.5t1 -143t5.5 -210l41 -4q50 -4 84.5 -26t46.5 -51t7 -60.5t-28 -54.5q-37 -37 -98 -37q-7 0 -22 1t-23 1q3 -67 7 -134t6 -101
t4 -70t2 -51t-1.5 -32t-4.5 -25.5t-9 -20.5q-13 -28 -41.5 -45t-60.5 -17q-37 0 -67.5 26.5t-41.5 63.5q-9 37 -26 391q-45 -10 -78 -10q-39 0 -64 17q-50 32 -45.5 90t58.5 86q12 6 118 35q0 168 9 307z" />
    <glyph glyph-name="daggerdbl" unicode="&#x2021;" horiz-adv-x="616" 
d="M526 809q-9 -27 -29.5 -45t-35.5 -23.5t-47 -13.5v-207h28q44 0 60 -6q20 -5 43.5 -24t32.5 -39q17 -37 3.5 -76.5t-49.5 -63.5q-21 -11 -33.5 -13.5t-45.5 -2.5h-37q-6 -143 -13 -171q-8 -32 -32 -56q-29 -33 -78 -33q-27 0 -51 12q-20 11 -33.5 27.5t-20.5 31.5t-10 45
t-3.5 47t-0.5 58v23q-21 -3 -45 -3q-81 0 -100 68q-15 51 15 91t97 57l39 8v233h-24q-76 0 -106 52.5t2.5 105.5t109.5 53q23 0 26 6q0 39 -2 80q-5 68 0.5 95.5t28.5 48.5q30 30 72 30q65 0 96 -63q7 -16 12.5 -63t10 -85t10.5 -41q5 0 33 -8q40 -11 65.5 -52t11.5 -83z
" />
    <glyph glyph-name="bullet" unicode="&#x2022;" horiz-adv-x="628" 
d="M96 461q-29 70 -14 139t55.5 122.5t85.5 70.5q18 6 43 6q121 0 172 -25q90 -43 109.5 -133.5t-41.5 -181.5q-37 -57 -96.5 -89t-122.5 -32q-60 0 -111.5 31t-79.5 92z" />
    <glyph glyph-name="ellipsis" unicode="&#x2026;" horiz-adv-x="903" 
d="M350 74q-19 35 -5 91.5t48 82.5q21 18 64 18q38 0 57 -16q26 -19 41 -67t6 -85q-10 -40 -41 -64t-69 -24q-65 0 -101 64zM86 74q-19 35 -5 91.5t48 82.5q21 18 64 18q38 0 57 -16q26 -19 41 -67t6 -85q-10 -40 -41.5 -64t-69.5 -24q-64 0 -100 64zM614 74q-19 35 -5 91.5
t48 82.5q21 18 64 18q38 0 57 -16q26 -19 41 -67t6 -85q-10 -40 -41 -64t-69 -24q-65 0 -101 64z" />
    <glyph glyph-name="perthousand" unicode="&#x2030;" horiz-adv-x="1705" 
d="M352 23q-12 -3 -22 -3q-61 0 -92.5 54t-4.5 127q5 13 45.5 95t127 244.5t178.5 323.5q32 55 62 111t42.5 79.5t27 46.5t25 31.5t27.5 14.5q18 6 35 6q43 0 75.5 -34.5t26.5 -78.5q-6 -40 -66.5 -166t-222.5 -436q-27 -51 -54 -103.5t-44 -85t-34 -66t-27.5 -52.5l-21 -38
t-18 -28t-14.5 -18t-15 -12.5t-16 -6.5t-20 -5zM68 989q30 53 80 89t106 36q50 0 99.5 -22t82.5 -60q48 -53 64 -111t0.5 -106.5t-48.5 -88.5t-81 -63.5t-99 -25.5h-10q-68 0 -122 30.5t-82 78.5t-27 113t37 130zM1620 250q-35 -83 -104 -139t-148 -56q-15 0 -43 4
q-90 20 -143 96.5t-41 166.5q12 83 50 142t87 71q10 0 41 18q18 12 28.5 14t45.5 2q36 0 48.5 -2.5t41.5 -17.5q39 -19 76.5 -56t56.5 -75q12 -24 14 -36t2 -50q0 -47 -12 -82zM1104 418q12 -24 14 -36t2 -50q0 -47 -12 -82q-35 -83 -104 -139t-148 -56q-15 0 -43 4
q-90 20 -143 96.5t-41 166.5q12 83 50 142t87 71q10 0 41 18q18 12 28.5 14t45.5 2q36 0 48.5 -2.5t41.5 -17.5q39 -19 76.5 -56t56.5 -75zM905 309l13 23q-26 25 -33.5 29t-26.5 4h-22l-7 -25q-10 -37 -3.5 -56.5t24.5 -19.5q29 0 55 45zM1348 365l-7 -25
q-10 -37 -3.5 -56.5t24.5 -19.5q29 0 55 45l13 23q-26 25 -33.5 29t-26.5 4h-22zM254 870q0 -20 8 -20q3 0 6 8q4 8 0.5 20.5t-8.5 12.5q-6 0 -6 -21z" />
    <glyph glyph-name="guilsinglleft" unicode="&#x2039;" horiz-adv-x="716" 
d="M90 459q-12 25 -17 49.5t-6 45t8 44.5l15 40t25 40t29 36.5t36.5 37.5t38 35t42 36t40.5 35q93 79 132.5 104t70.5 25h10q44 -4 72.5 -37t23 -78.5t-52.5 -78.5q-21 -15 -103.5 -93t-146.5 -147q42 -63 91.5 -116t84.5 -83t65 -58t41.5 -56t4.5 -62q-7 -37 -40.5 -61.5
t-72.5 -24.5q-51 0 -139 74t-158.5 159t-93.5 134z" />
    <glyph glyph-name="guilsinglright" unicode="&#x203a;" horiz-adv-x="634" 
d="M145 1022h11q30 0 68 -25t134 -106q7 -6 40.5 -34t42.5 -36.5t37.5 -34.5t37 -37t28.5 -36t25.5 -40.5t14.5 -40t7.5 -45t-6 -45.5t-16.5 -50q-23 -48 -93.5 -133.5t-158 -159.5t-137.5 -74q-40 0 -73.5 25t-40.5 63q-7 34 4.5 61.5t41 55.5t64.5 57.5t84.5 83.5
t91.5 117q-66 70 -148 147.5t-102 91.5q-47 33 -52.5 78.5t23 79t72.5 37.5z" />
    <glyph glyph-name="Euro" unicode="&#x20ac;" horiz-adv-x="917" 
d="M659 692q-8 -2 -22 -2q-39 0 -69 29.5t-36 75.5q-8 63 -18 63q-5 0 -31 -22q-19 -17 -41 -54t-16 -41q29 0 60.5 -21t43.5 -46q26 -59 -9 -106.5t-105 -47.5q-29 0 -29 -8q0 -7 57 -10q50 -3 74.5 -10.5t46.5 -26.5q32 -28 40.5 -60.5t-2.5 -57.5t-27.5 -43t-30.5 -21
q-13 -4 -13 -11q2 -3 7 -4q6 0 51.5 40t73.5 71q51 57 104 57q18 0 39 -6q21 -8 41 -30.5t26 -45.5q12 -48 -13.5 -95t-104.5 -118q-64 -58 -112.5 -83t-98.5 -25q-87 0 -165 57t-132 139q-16 25 -22 32t-13 7q-2 0 -6 -1t-6 -1q-41 -8 -72 -8q-44 0 -72 25q-57 51 -22 120
q9 21 32 36.5t39.5 21t47.5 14.5q-1 25 -2 32t-5 13t-14 10q-43 20 -59.5 60.5t2 80t67.5 56.5l31 10q39 119 84.5 191.5t134.5 120.5q61 34 127 34q84 0 141.5 -62t73.5 -149q27 -156 -76 -180z" />
    <glyph glyph-name="trademark" unicode="&#x2122;" horiz-adv-x="1335" 
d="M971 893q-32 -32 -58.5 -44.5t-64.5 -12.5q-41 0 -41 -7q0 -1 6.5 -59t-0.5 -68q-10 -37 -39.5 -59t-64.5 -22q-34 0 -64.5 22t-46.5 64q-7 16 -8.5 47.5t-1.5 148.5q0 51 -1 112q0 46 1 55t7 17q3 4 5 7q16 23 42.5 39t51.5 16q22 0 50.5 -14t43 -25l43.5 -33
q85 91 109 110q49 40 107 40q116 0 157 -131q12 -37 34 -160t22 -152q0 -54 -34.5 -87t-80.5 -33q-34 0 -64.5 20.5t-44.5 58.5q-7 14 -18 86q-13 81 -19 85q-1 1 -2 1q-4 0 -26 -22zM143 1067q-36 9 -59.5 44t-17.5 69q13 73 86 104t233 31q82 0 118 -6.5t70 -28.5
q33 -20 48 -57.5t4 -71.5q-9 -31 -42.5 -52.5t-70.5 -21.5h-18q-7 -317 -12 -354q-5 -45 -27 -72q-32 -43 -88 -43q-35 0 -64.5 21t-42.5 63q-6 21 -5.5 50t9.5 145q12 189 10 200q-2 6 -6 7q-8 0 -12 -2q-14 -3 -41.5 -16t-44.5 -13q-7 0 -27 4z" />
    <glyph glyph-name="minus" unicode="&#x2212;" horiz-adv-x="671" 
d="M139 489q-47 10 -71.5 45.5t-14.5 77t51 66.5l29 16q69 4 148 9t120.5 7.5t67.5 2.5q46 0 64.5 -6.5t41.5 -26.5q34 -28 39 -68t-18 -73t-64 -45q-37 -9 -47 -9h-98h-65q-151 0 -183 4z" />
  </font>
</defs>
</svg>
